<?xml version="1.0" encoding="UTF-8"?>
<svg version="1.1" xmlns="http://www.w3.org/2000/svg" width="1366" height="768">
<path d="M0 0 C450.78 0 901.56 0 1366 0 C1366 253.44 1366 506.88 1366 768 C915.22 768 464.44 768 0 768 C0 514.56 0 261.12 0 0 Z " fill="#0E2442" transform="translate(0,0)"/>
<path d="M0 0 C3.91992138 2.99608574 7.61840903 6.1787135 11.28808594 9.47363281 C13.54181737 11.48309216 15.83825782 13.43968261 18.13769531 15.39648438 C24.25801776 20.60512304 30.32490196 25.87598476 36.39404297 31.14404297 C40.58298285 34.77807024 44.78613789 38.39491256 49 42 C53.84915361 46.14859869 58.68071453 50.31674344 63.5 54.5 C68.34175628 58.70210224 73.19383264 62.89160207 78.0625 67.0625 C78.90989746 67.7894104 78.90989746 67.7894104 79.77441406 68.53100586 C82.81324249 71.1356541 85.86060837 73.72962264 88.91796875 76.3125 C89.55919678 76.85640381 90.2004248 77.40030762 90.86108398 77.96069336 C92.09102894 79.00369049 93.32349312 80.04372644 94.55883789 81.08032227 C97.13786371 83.27153595 99.10939228 85.16408842 101 88 C100.92123738 92.25318158 100.38218623 94.47168374 97.875 97.9375 C94.21845693 100.5606722 92.43084668 100.45067498 88 100 C85.296875 98.3828125 85.296875 98.3828125 82.75 96.125 C81.33460938 94.89136719 81.33460938 94.89136719 79.890625 93.6328125 C78.45976563 92.32957031 78.45976563 92.32957031 77 91 C75.63101563 89.75863281 75.63101563 89.75863281 74.234375 88.4921875 C72.40212525 86.82222273 70.57403113 85.14768774 68.75 83.46875 C66.06262366 81.05621896 63.31034556 78.7674379 60.5 76.5 C55.74404581 72.66280969 51.24495199 68.60614899 46.75 64.46875 C44.06262366 62.05621896 41.31034556 59.7674379 38.5 57.5 C33.74260332 53.66164586 29.24216082 49.60377641 24.74609375 45.46484375 C22.08124834 43.07292703 19.35168175 40.80745116 16.5625 38.5625 C12.49652603 35.28648668 8.62940319 31.86973356 4.8125 28.3125 C-5.54276021 18.25172666 -5.54276021 18.25172666 -18.8125 14.625 C-20.01519531 14.59664062 -21.21789062 14.56828125 -22.45703125 14.5390625 C-29.08025525 15.40073883 -33.63021229 20.24302699 -38.5 24.5 C-39.74079623 25.57432177 -40.9816842 26.64853758 -42.22265625 27.72265625 C-43.16455811 28.54080811 -43.16455811 28.54080811 -44.12548828 29.37548828 C-47.05059036 31.91047516 -49.99511966 34.42261646 -52.9375 36.9375 C-57.80698291 41.10743879 -62.65820996 45.297951 -67.5 49.5 C-75.2136508 56.19445358 -82.96834397 62.84022649 -90.72949219 69.47949219 C-97.97248512 75.67668355 -105.19560865 81.89565979 -112.39428711 88.14428711 C-117.15661197 92.27566092 -121.93985982 96.38195682 -126.73046875 100.48046875 C-131.63306093 104.67796902 -136.51059792 108.90388932 -141.38354492 113.13574219 C-145.08473471 116.34764171 -148.79909357 119.54326636 -152.52636719 122.72485352 C-163.69748914 131.5263153 -163.69748914 131.5263153 -173 142 C-173.28662433 146.14776273 -173.28662433 146.14776273 -172 150 C-171.05680908 150.01458252 -170.11361816 150.02916504 -169.1418457 150.04418945 C-165.62841339 150.10539606 -162.11574554 150.17957508 -158.6027832 150.26245117 C-157.08498379 150.29561916 -155.56706344 150.32367632 -154.04907227 150.34643555 C-151.86161981 150.38013278 -149.67526736 150.43245204 -147.48828125 150.48828125 C-146.17384033 150.51446533 -144.85939941 150.54064941 -143.50512695 150.56762695 C-138.98627742 151.1250472 -136.44148042 152.41941116 -133.38452053 155.77137947 C-131.67947564 158.51593831 -131.62619797 160.1592987 -131.62818909 163.37594604 C-131.62143158 164.46661377 -131.61467407 165.55728149 -131.60771179 166.68099976 C-131.61543106 167.87278839 -131.62315033 169.06457703 -131.63110352 170.29248047 C-131.6253219 172.2249319 -131.61953759 174.15738333 -131.61365211 176.08983445 C-131.61016907 178.16493328 -131.61401961 180.23990622 -131.61987495 182.31499863 C-131.63146598 186.6437008 -131.61928841 190.97213566 -131.60325623 195.30081177 C-131.56707421 206.05322663 -131.56083067 216.80563526 -131.56335449 227.55810547 C-131.56506649 235.91345226 -131.55791985 244.26858051 -131.52337593 252.6238662 C-131.50659939 256.92424889 -131.50836129 261.22409826 -131.52419865 265.52447867 C-131.53136836 268.83264657 -131.51275295 272.14058838 -131.49829102 275.44873047 C-131.50803452 276.63647064 -131.51777802 277.82421082 -131.52781677 279.04794312 C-131.47460935 285.13854233 -131.40356072 289.3615509 -127 294 C-122.99475031 296.93571217 -120.14190694 297.37695419 -115.21589947 297.38476086 C-114.54322264 297.38991076 -113.87054581 297.39506067 -113.17748484 297.40036663 C-110.91913699 297.41400322 -108.66136893 297.40629585 -106.40299988 297.39872742 C-104.76938371 297.40416569 -103.13577148 297.41091675 -101.50216562 297.41886932 C-97.00979499 297.43693103 -92.51758935 297.43633311 -88.02519095 297.43273985 C-83.18198882 297.43211708 -78.33884258 297.44872598 -73.4956665 297.46325684 C-65.10342689 297.48607048 -56.71122885 297.49793271 -48.31896019 297.50238609 C-36.1851145 297.50884074 -24.05134407 297.53176604 -11.91752867 297.55872939 C7.76810508 297.60202602 27.45373566 297.63197634 47.1394043 297.65356445 C66.26376908 297.67456553 85.38810796 297.70183301 104.51245117 297.73754883 C105.69100081 297.73974765 106.86955044 297.74194648 108.0838137 297.74421193 C113.99616887 297.75528137 119.9085238 297.76647422 125.82087862 297.77772844 C174.88056309 297.87095426 223.94026187 297.9423115 273 298 C273 303.94 273 309.88 273 316 C222.4673885 316.09124652 171.93478746 316.16203672 121.40210972 316.20426132 C115.43653004 316.20926416 109.47095053 316.21444144 103.50537109 316.21972656 C101.72390873 316.22130043 101.72390873 316.22130043 99.90645723 316.22290608 C80.67527128 316.24031223 61.44413315 316.27185111 42.21297558 316.30861118 C22.48065374 316.34601471 2.74835694 316.36823462 -16.98399889 316.37635398 C-29.16033178 316.38184295 -41.33652951 316.39918074 -53.5128208 316.43166587 C-61.86208327 316.45280646 -70.21127584 316.45920105 -78.56056313 316.45400551 C-83.37797859 316.45144305 -88.19515781 316.45537666 -93.01253128 316.4768219 C-97.42582178 316.49632464 -101.83871776 316.49724588 -106.25202663 316.48359558 C-107.84574167 316.48190915 -109.43948159 316.48695181 -111.03314786 316.49953273 C-123.45120929 316.59183796 -132.76379191 315.02448923 -142.01953125 306.29296875 C-146.93431203 300.60268015 -150.10361572 293.57297534 -150.15821838 286.04560852 C-150.1680072 285.02337189 -150.17779602 284.00113525 -150.18788147 282.94792175 C-150.19363693 281.82726822 -150.1993924 280.70661469 -150.20532227 279.55200195 C-150.21522186 278.37138184 -150.22512146 277.19076172 -150.23532104 275.97436523 C-150.26151234 272.73705555 -150.28337297 269.49975108 -150.30332303 266.262398 C-150.32519153 262.87910322 -150.35257599 259.49585324 -150.37937927 256.1125946 C-150.42929448 249.70597054 -150.47423765 243.29932159 -150.51740164 236.89264888 C-150.56678403 229.59885542 -150.62169844 222.30510692 -150.67708123 215.01135695 C-150.79088328 200.00761319 -150.89772619 185.0038271 -151 170 C-151.71542969 169.99589111 -152.43085938 169.99178223 -153.16796875 169.98754883 C-156.44612125 169.95441744 -159.72246328 169.8837508 -163 169.8125 C-164.12535156 169.80669922 -165.25070312 169.80089844 -166.41015625 169.79492188 C-174.84834298 169.57286433 -179.82118408 167.80772416 -186.0234375 162.15625 C-186.46945312 161.6096875 -186.91546875 161.063125 -187.375 160.5 C-187.83648437 159.9534375 -188.29796875 159.406875 -188.7734375 158.84375 C-192.86372319 152.69529508 -192.90413583 146.14507339 -192 139 C-188.04289597 127.21318124 -180.18662026 120.85621549 -170.82421875 113.3203125 C-168.14206334 111.11671594 -165.56373579 108.83956175 -163 106.5 C-158.70008209 102.58108748 -154.24080453 98.90829131 -149.71875 95.25 C-146.22091849 92.35524289 -142.88214596 89.30410461 -139.52734375 86.24609375 C-136.93037607 83.93812402 -134.26595987 81.74444137 -131.5625 79.5625 C-127.75912497 76.48663412 -124.09917348 73.31246834 -120.5 70 C-116.0301488 65.88621091 -111.40955107 62.02912703 -106.68359375 58.21484375 C-104.05291443 56.04367173 -101.52057576 53.79758643 -99 51.5 C-94.70008209 47.58108748 -90.24080453 43.90829131 -85.71875 40.25 C-83.07852271 38.06498431 -80.5327028 35.80828609 -78 33.5 C-73.70008209 29.58108748 -69.24080453 25.90829131 -64.71875 22.25 C-62.07852271 20.06498431 -59.5327028 17.80828609 -57 15.5 C-41.80171883 1.72279425 -20.72217472 -13.38307117 0 0 Z " fill="#FCFCFD" transform="translate(468,196)"/>
<path d="M0 0 C0.77794922 -0.02900391 1.55589844 -0.05800781 2.35742188 -0.08789062 C9.44813111 -0.16477071 14.03013199 2.2805579 19.9375 5.9375 C29.25917832 15.25917832 31.49055255 26.4748592 31.5 39.125 C31.51224609 39.97642578 31.52449219 40.82785156 31.53710938 41.70507812 C31.56419448 53.55932673 28.67276573 64.75024608 20.328125 73.515625 C12.71194972 80.30523862 5.07758295 81.12315165 -4.75 80.6640625 C-13.54308319 79.87896579 -16.62553425 77.3656135 -23.6875 71.3125 C-23.6875 84.5125 -23.6875 97.7125 -23.6875 111.3125 C-30.2875 111.3125 -36.8875 111.3125 -43.6875 111.3125 C-43.6875 75.0125 -43.6875 38.7125 -43.6875 1.3125 C-37.0875 1.3125 -30.4875 1.3125 -23.6875 1.3125 C-23.6875 4.6125 -23.6875 7.9125 -23.6875 11.3125 C-23.0275 11.3125 -22.3675 11.3125 -21.6875 11.3125 C-21.43871094 10.71824219 -21.18992187 10.12398438 -20.93359375 9.51171875 C-19.50684287 6.99365999 -18.08322921 5.81517908 -15.75 4.125 C-15.06035156 3.61582031 -14.37070312 3.10664063 -13.66015625 2.58203125 C-9.36627387 -0.1813584 -4.92981503 0.05977949 0 0 Z " fill="#FBFBFC" transform="translate(719.6875,367.6875)"/>
<path d="M0 0 C0.75442383 0.00757324 1.50884766 0.01514648 2.28613281 0.02294922 C8.82523961 0.21710995 13.38086378 1.36199462 18.203125 5.93359375 C20.55736275 8.52713588 21.625 9.86991224 21.625 13.4375 C22.305625 12.73625 22.98625 12.035 23.6875 11.3125 C25.781218 9.23064442 27.91995506 7.21379275 30.125 5.25 C30.6715625 4.76144531 31.218125 4.27289063 31.78125 3.76953125 C38.56103737 -1.12857785 47.63039999 -0.33097942 55.625 0.4375 C61.59805956 1.81321926 64.83936006 5.32287606 68.3984375 10.14453125 C72.35783829 17.546341 71.88665306 25.04364949 71.8203125 33.24609375 C71.81657667 34.58130175 71.81373239 35.91651251 71.81173706 37.25172424 C71.80414541 40.74518566 71.78453606 44.23847755 71.7623291 47.73187256 C71.74177371 51.30494901 71.73271473 54.87805318 71.72265625 58.45117188 C71.70128532 65.44669073 71.66614028 72.44206974 71.625 79.4375 C65.025 79.4375 58.425 79.4375 51.625 79.4375 C51.595271 76.92431152 51.595271 76.92431152 51.56494141 74.36035156 C51.4889315 68.15056194 51.40020661 61.94100805 51.30761719 55.73144531 C51.26821989 53.0426811 51.23363212 50.3539185 51.203125 47.66503906 C51.15751623 43.80254669 51.09951385 39.94041003 51.0390625 36.078125 C51.02751129 34.8738385 51.01596008 33.669552 51.00405884 32.42877197 C50.98418915 31.30791199 50.96431946 30.187052 50.94384766 29.03222656 C50.93052399 28.04627502 50.91720032 27.06032349 50.9034729 26.04449463 C50.61524479 23.34617416 50.08736593 21.70874472 48.625 19.4375 C44.59890552 17.06920913 40.18983443 16.71249688 35.625 17.4375 C31.20016555 19.69166094 28.75417859 21.95501875 26.625 26.4375 C25.7053367 29.46283256 25.47660673 32.23415551 25.41967773 35.38964844 C25.39973251 36.37036316 25.37978729 37.35107788 25.35923767 38.36151123 C25.34252518 39.41268127 25.32581268 40.46385132 25.30859375 41.546875 C25.2774221 43.16979462 25.2774221 43.16979462 25.24562073 44.82550049 C25.18027069 48.27943613 25.12130771 51.73344737 25.0625 55.1875 C25.01930096 57.52995571 24.97568622 59.8724038 24.93164062 62.21484375 C24.82460413 67.95565182 24.72329552 73.69653588 24.625 79.4375 C18.025 79.4375 11.425 79.4375 4.625 79.4375 C4.595271 76.92431152 4.595271 76.92431152 4.56494141 74.36035156 C4.4889315 68.15056194 4.40020661 61.94100805 4.30761719 55.73144531 C4.26821989 53.0426811 4.23363212 50.3539185 4.203125 47.66503906 C4.15751623 43.80254669 4.09951385 39.94041003 4.0390625 36.078125 C4.02751129 34.8738385 4.01596008 33.669552 4.00405884 32.42877197 C3.98418915 31.30791199 3.96431946 30.187052 3.94384766 29.03222656 C3.93052399 28.04627502 3.91720032 27.06032349 3.9034729 26.04449463 C3.61524479 23.34617416 3.08736593 21.70874472 1.625 19.4375 C-2.40826357 17.06499202 -6.80310477 16.72791312 -11.375 17.4375 C-16.44207394 19.87359324 -19.3978639 23.21151915 -21.375 28.4375 C-21.96142335 32.38518358 -21.97983795 36.29126507 -21.984375 40.27734375 C-22.00091125 41.39943741 -22.01744751 42.52153107 -22.03448486 43.67762756 C-22.08287028 47.2434746 -22.10431578 50.80889539 -22.125 54.375 C-22.15316744 56.80015154 -22.18309594 59.22528331 -22.21484375 61.65039062 C-22.28862738 67.579392 -22.33826031 73.50815805 -22.375 79.4375 C-28.975 79.4375 -35.575 79.4375 -42.375 79.4375 C-42.375 53.6975 -42.375 27.9575 -42.375 1.4375 C-36.105 1.4375 -29.835 1.4375 -23.375 1.4375 C-23.375 5.0675 -23.375 8.6975 -23.375 12.4375 C-22.715 12.4375 -22.055 12.4375 -21.375 12.4375 C-21.148125 11.880625 -20.92125 11.32375 -20.6875 10.75 C-16.00115952 2.4931144 -8.97641038 -0.12505835 0 0 Z " fill="#FBFBFB" transform="translate(583.375,367.5625)"/>
<path d="M0 0 C8.56963372 5.4022971 14.16723775 12.14973196 17.58984375 21.765625 C18.59904645 26.23759662 18.7351643 30.34863893 18.69140625 34.9140625 C18.70300781 36.11289062 18.70300781 36.11289062 18.71484375 37.3359375 C18.67873891 48.49233423 15.91942135 59.08995048 8.12890625 67.4140625 C4.62274129 70.65345404 0.86725425 72.79354114 -3.55859375 74.5390625 C-4.41839844 74.89613281 -5.27820313 75.25320313 -6.1640625 75.62109375 C-15.7909638 78.22445601 -29.58545102 78.39760101 -38.5625 73.7890625 C-39.22121094 73.3765625 -39.87992187 72.9640625 -40.55859375 72.5390625 C-41.26886719 72.1265625 -41.97914063 71.7140625 -42.7109375 71.2890625 C-50.93329761 65.89935904 -55.32283399 56.90576674 -57.55859375 47.5390625 C-57.98294288 43.73710046 -58.03672022 39.98704465 -57.99609375 36.1640625 C-57.98634521 35.14546143 -57.97659668 34.12686035 -57.96655273 33.07739258 C-57.69030516 21.40850776 -55.1323834 14.18867248 -46.9296875 5.703125 C-34.6910926 -5.46686112 -14.80272268 -7.53822862 0 0 Z " fill="#FCFCFC" transform="translate(504.55859375,371.4609375)"/>
<path d="M0 0 C6.58190995 4.62848866 11.1804655 9.84779876 13.50390625 17.578125 C11.23828079 19.08654671 8.96704462 20.58494751 6.69140625 22.078125 C6.04880859 22.50738281 5.40621094 22.93664062 4.74414062 23.37890625 C-0.15625 26.578125 -0.15625 26.578125 -3.49609375 26.578125 C-4.85546875 24.75 -4.85546875 24.75 -6.24609375 22.328125 C-9.54506207 17.12181271 -12.69408658 14.51902577 -18.81640625 13.00390625 C-26.36144841 11.80505844 -34.13822733 11.3366173 -40.85546875 15.38671875 C-47.59640008 20.28191888 -51.10091368 26.46459365 -52.49609375 34.578125 C-52.73454167 38.28418367 -52.72705263 41.99010729 -52.74609375 45.703125 C-52.76671875 46.68539062 -52.78734375 47.66765625 -52.80859375 48.6796875 C-52.85748798 57.96959147 -51.59610076 67.2222342 -45.49609375 74.578125 C-40.10692268 79.67598952 -34.98635509 81.74411208 -27.68359375 82.015625 C-20.91268806 81.8122436 -14.93777371 80.4522552 -9.6484375 76.03515625 C-5.89923148 72.00959598 -4.13971112 67.78291333 -2.49609375 62.578125 C1.92714307 63.16077772 5.01949265 64.84578711 8.81640625 67.140625 C9.88503906 67.78128906 10.95367187 68.42195313 12.0546875 69.08203125 C12.86292969 69.57574219 13.67117188 70.06945312 14.50390625 70.578125 C11.51297213 81.67606478 5.93823328 90.11043722 -3.953125 96.0546875 C-15.51661752 101.59649516 -31.35000326 101.8028915 -43.68359375 98.69140625 C-56.12786396 94.27427732 -64.78574342 85.67734774 -70.8125 74.03515625 C-77.92693458 57.52231731 -77.30814311 38.3464289 -71.49609375 21.578125 C-66.37675504 9.32503325 -58.77136346 2.7467227 -47.05859375 -2.9765625 C-31.77688446 -9.17637877 -14.37481439 -8.18847017 0 0 Z " fill="#FAFBFB" transform="translate(421.49609375,348.421875)"/>
<path d="M0 0 C0.83893799 -0.0103125 1.67787598 -0.020625 2.54223633 -0.03125 C11.90582084 0.10079938 20.24222755 2.68596476 26.9375 9.4375 C31.63627315 15.81148792 34.05916896 21.3091359 34.0703125 29.265625 C34.07160156 30.14734375 34.07289062 31.0290625 34.07421875 31.9375 C34.07035156 32.845 34.06648438 33.7525 34.0625 34.6875 C34.06636719 35.61046875 34.07023437 36.5334375 34.07421875 37.484375 C34.07292969 38.3609375 34.07164063 39.2375 34.0703125 40.140625 C34.06918457 40.94145508 34.06805664 41.74228516 34.06689453 42.56738281 C33.9375 44.4375 33.9375 44.4375 32.9375 45.4375 C31.37202952 45.53076716 29.80237228 45.55495582 28.23413086 45.55102539 C27.23316879 45.55094986 26.23220673 45.55087433 25.20091248 45.55079651 C24.1123848 45.54563522 23.02385712 45.54047394 21.90234375 45.53515625 C20.79395645 45.5337413 19.68556915 45.53232635 18.54359436 45.53086853 C14.98736931 45.52525033 11.43120617 45.51269475 7.875 45.5 C5.47070403 45.49498734 3.06640708 45.49042403 0.66210938 45.48632812 C-5.24611504 45.47527499 -11.1543031 45.45851917 -17.0625 45.4375 C-16.65036706 47.1988777 -16.21964848 48.95591279 -15.78125 50.7109375 C-15.54341797 51.68981934 -15.30558594 52.66870117 -15.06054688 53.67724609 C-13.54524194 57.86805763 -10.83111235 60.19346265 -7.0625 62.4375 C-0.0952697 64.7599101 6.50415151 63.87748536 13.01953125 60.66015625 C15.62418627 58.99975498 17.2841286 57.02538568 18.9375 54.4375 C23.2204452 54.9854083 25.78885641 56.46182804 29.25 59 C30.57451172 59.96099609 30.57451172 59.96099609 31.92578125 60.94140625 C32.58964844 61.43511719 33.25351563 61.92882812 33.9375 62.4375 C30.30563685 70.01704048 24.9836271 75.51998759 17.34375 79.140625 C12.19335799 80.92798663 7.09429097 80.97209069 1.6875 80.9375 C0.66914062 80.93250488 -0.34921875 80.92750977 -1.3984375 80.92236328 C-11.62122172 80.68542215 -20.01951717 78.34356387 -27.60546875 71.08984375 C-35.573045 62.05422778 -37.58621774 51.71014036 -37.5 39.9375 C-37.51998047 38.96941406 -37.53996094 38.00132812 -37.56054688 37.00390625 C-37.55372342 26.8369626 -34.2303895 17.87068157 -27.16015625 10.4375 C-18.71662505 2.36494996 -11.49344936 0.11791393 0 0 Z " fill="#FAFBFB" transform="translate(1018.0625,367.5625)"/>
<path d="M0 0 C5.14566315 3.27103494 8.28222423 7.5534577 10.1015625 13.3359375 C10.41543771 16.75461545 10.42629641 20.16625011 10.4453125 23.59765625 C10.4599353 24.58466019 10.47455811 25.57166412 10.48962402 26.58857727 C10.55182754 30.80346978 10.59162705 35.01850501 10.63330078 39.23364258 C10.66693424 42.31347294 10.71205306 45.39298614 10.7578125 48.47265625 C10.76572815 49.91012459 10.76572815 49.91012459 10.77380371 51.37663269 C10.78721802 52.26127701 10.80063232 53.14592133 10.81445312 54.05737305 C10.82539001 55.22721992 10.82539001 55.22721992 10.83654785 56.42070007 C10.93831243 58.5750294 10.93831243 58.5750294 13.1015625 60.3359375 C15.4115625 60.3359375 17.7215625 60.3359375 20.1015625 60.3359375 C20.5965625 67.7609375 20.5965625 67.7609375 21.1015625 75.3359375 C17.10721828 76.33452355 13.77015545 76.53710389 9.6640625 76.5859375 C8.36597656 76.61171875 7.06789063 76.6375 5.73046875 76.6640625 C1.91646961 76.31920144 0.10716237 75.64498412 -2.8984375 73.3359375 C-5.8984375 69.09455819 -5.8984375 69.09455819 -5.8984375 66.3359375 C-6.8884375 66.3359375 -7.8784375 66.3359375 -8.8984375 66.3359375 C-9.176875 67.41875 -9.176875 67.41875 -9.4609375 68.5234375 C-11.60194277 72.71236085 -15.19924538 75.37366946 -19.640625 76.95703125 C-27.44267664 78.2663721 -37.4780836 78.91740966 -44.359375 74.59765625 C-49.90899585 70.04809398 -53.41504302 64.60985215 -54.21875 57.50390625 C-54.4656188 50.96188303 -54.04145401 45.58532774 -49.8984375 40.3359375 C-42.14126042 32.31770158 -31.28815661 30.44168632 -20.6796875 28.90625 C-16.6074177 28.07120591 -13.48526557 26.40526139 -9.8984375 24.3359375 C-9.805625 22.4178125 -9.805625 22.4178125 -9.7109375 20.4609375 C-9.67613281 19.74164063 -9.64132812 19.02234375 -9.60546875 18.28125 C-9.70214844 17.63929688 -9.79882812 16.99734375 -9.8984375 16.3359375 C-15.18471671 12.81175136 -21.7635801 13.72492052 -27.8984375 14.3359375 C-33.413144 16.09699517 -38.19845442 18.79504918 -41.8984375 23.3359375 C-45.84719332 22.01968556 -46.44836463 20.28228352 -48.5859375 16.7734375 C-49.51986328 15.25556641 -49.51986328 15.25556641 -50.47265625 13.70703125 C-50.94316406 12.92457031 -51.41367187 12.14210938 -51.8984375 11.3359375 C-41.32678226 -3.97473561 -16.35749216 -7.32192506 0 0 Z " fill="#FBFBFB" transform="translate(817.8984375,370.6640625)"/>
<path d="M0 0 C1.15338867 -0.03673828 1.15338867 -0.03673828 2.33007812 -0.07421875 C8.99691115 -0.10797487 14.18097443 1.66971766 19.17578125 6.1640625 C25.86935437 15.44423762 26.62560389 24.61738974 26.48046875 35.8203125 C26.47622391 37.07133759 26.47197906 38.32236267 26.46760559 39.61129761 C26.45375204 42.90262875 26.42690206 46.19350082 26.39349365 49.48468018 C26.3625482 52.85691778 26.34904853 56.22922318 26.33398438 59.6015625 C26.30105528 66.19290771 26.24934541 72.78386525 26.1875 79.375 C19.5875 79.375 12.9875 79.375 6.1875 79.375 C6.17291748 77.7350708 6.15833496 76.0951416 6.14331055 74.40551758 C6.08533377 68.32049771 6.00809992 62.23584811 5.92504883 56.15112305 C5.89179675 53.51772064 5.86376576 50.88424691 5.84106445 48.25073242 C5.80752471 44.46502289 5.7552068 40.67996711 5.69921875 36.89453125 C5.69282883 35.71727982 5.6864389 34.54002838 5.67985535 33.32710266 C5.65016411 31.67595711 5.65016411 31.67595711 5.61987305 29.99145508 C5.60321846 28.54250603 5.60321846 28.54250603 5.58622742 27.06428528 C5.11363007 23.87677165 4.06028599 21.97695475 2.1875 19.375 C-2.07813548 16.74034279 -6.95031968 16.82521283 -11.8125 17.375 C-16.52063298 19.06282126 -19.12990144 21.15948797 -21.8125 25.375 C-23.98749707 31.37020935 -24.15274892 37.00123945 -24.2265625 43.33984375 C-24.24592865 44.37315323 -24.2652948 45.40646271 -24.2852478 46.47108459 C-24.34473299 49.75147405 -24.39130452 53.03189918 -24.4375 56.3125 C-24.47570836 58.54493666 -24.51476174 60.77735902 -24.5546875 63.00976562 C-24.65040899 68.46472683 -24.73455438 73.91975701 -24.8125 79.375 C-31.4125 79.375 -38.0125 79.375 -44.8125 79.375 C-44.8125 53.635 -44.8125 27.895 -44.8125 1.375 C-38.5425 1.375 -32.2725 1.375 -25.8125 1.375 C-25.8125 5.335 -25.8125 9.295 -25.8125 13.375 C-25.131875 12.67375 -24.45125 11.9725 -23.75 11.25 C-21.656282 9.16814442 -19.51754494 7.15129275 -17.3125 5.1875 C-16.7659375 4.69894531 -16.219375 4.21039063 -15.65625 3.70703125 C-10.69369425 0.121795 -5.90805242 0.00975731 0 0 Z " fill="#FAFAFB" transform="translate(895.8125,367.625)"/>
<path d="M0 0 C0.93150879 0.00757324 1.86301758 0.01514648 2.82275391 0.02294922 C13.61436876 0.28128422 20.98842136 2.84840088 28.75 10.4375 C26.24653351 15.29717024 22.66447559 18.71606704 18.75 22.4375 C16.0599385 21.4383343 13.68951868 20.39969918 11.25 18.875 C6.258577 16.00493178 0.40526867 15.84061118 -5.25 16.4375 C-7.46770481 17.17867259 -7.46770481 17.17867259 -9.25 18.4375 C-10.42110449 21.2971006 -10.42110449 21.2971006 -10.25 24.4375 C-7.17788693 28.60174534 -3.52801802 29.436327 1.3125 30.4375 C2.75093549 30.769409 4.18844188 31.10536983 5.625 31.4453125 C6.67880859 31.6932959 6.67880859 31.6932959 7.75390625 31.94628906 C15.35333677 33.81640333 22.64928725 36.20021539 27.75 42.4375 C31.65352699 48.97406641 31.59237736 55.01149375 30.75 62.4375 C28.80323693 69.47218007 25.27809493 73.49713389 19.12890625 77.28125 C9.10226176 82.15462729 -5.42753573 82.55484665 -16.1796875 79.52734375 C-22.26304142 77.12031695 -29.0347518 73.59220244 -32.22265625 67.61328125 C-32.26734291 64.05749981 -29.82863417 62.11157 -27.5 59.6875 C-27.04367187 59.18089844 -26.58734375 58.67429687 -26.1171875 58.15234375 C-24.89807138 56.84514121 -23.57820021 55.63370516 -22.25 54.4375 C-21.26 54.4375 -20.27 54.4375 -19.25 54.4375 C-17.90576661 56.09538785 -16.57381517 57.76326317 -15.25 59.4375 C-10.07833572 63.057665 -5.9925633 63.57681781 0.25 63.5625 C1.3740625 63.56507813 2.498125 63.56765625 3.65625 63.5703125 C6.2220699 63.46016367 8.31266427 63.19020662 10.75 62.4375 C10.88536774 61.00260191 10.98217143 59.56402893 11.0625 58.125 C11.14951172 56.92423828 11.14951172 56.92423828 11.23828125 55.69921875 C10.95476888 53.2722559 10.95476888 53.2722559 8.80859375 51.79296875 C4.7994578 50.01625078 0.75900358 49.06035447 -3.5 48.0625 C-13.27271094 45.61700734 -21.40688056 43.11364705 -27.25 34.4375 C-30.11080618 28.57965878 -30.33074117 21.42529811 -28.6328125 15.16015625 C-25.55515877 8.06521115 -19.28932276 3.92758762 -12.30004883 1.04174805 C-8.26460945 -0.14769014 -4.17682177 -0.04714922 0 0 Z " fill="#FAFAFB" transform="translate(1094.25,367.5625)"/>
<path d="M0 0 C6.27 0 12.54 0 19 0 C19 25.74 19 51.48 19 78 C12.73 78 6.46 78 0 78 C0 52.26 0 26.52 0 0 Z " fill="#FEFEFE" transform="translate(943,369)"/>
<path d="M0 0 C4.35253143 2.44124019 6.7858423 5.97316445 8.75 10.5 C11.13153732 19.50709628 10.92875706 30.08024556 6.95703125 38.54296875 C4.48181113 42.55618972 0.98442344 44.67534844 -3.25 46.5 C-9.14594582 47.24915483 -14.27129543 46.97351482 -19.25 43.5 C-25.65020601 36.95433476 -26.61121112 30.89472565 -26.625 22.125 C-26.64949219 21.31289063 -26.67398437 20.50078125 -26.69921875 19.6640625 C-26.73030443 13.1982401 -25.31371067 7.73013446 -20.7668457 2.9362793 C-14.69834468 -2.34235036 -7.36374459 -3.17185963 0 0 Z " fill="#112745" transform="translate(493.25,385.5)"/>
<path d="M0 0 C5.99731079 3.42543032 8.59549849 7.59508921 10.7734375 14.12890625 C11.39738864 24.02813109 11.67483314 34.37257508 5.3984375 42.62890625 C0.68718283 47.11581546 -3.45360235 47.58660596 -9.79296875 47.4453125 C-14.63850729 46.81531471 -17.32270707 44.13319006 -20.4765625 40.62890625 C-24.36498899 35.07401126 -24.56329795 31.02911243 -24.5390625 24.37890625 C-24.55517578 23.51007813 -24.57128906 22.64125 -24.58789062 21.74609375 C-24.59283414 15.16132952 -23.88609697 9.31430322 -19.5078125 4.0703125 C-18.92 3.61527344 -18.3321875 3.16023438 -17.7265625 2.69140625 C-16.84484375 1.98177734 -16.84484375 1.98177734 -15.9453125 1.2578125 C-11.26317673 -1.81749941 -5.14130971 -2.01142467 0 0 Z " fill="#112744" transform="translate(720.2265625,384.87109375)"/>
<path d="M0 0 C21.54545455 0 21.54545455 0 27.375 5.0625 C29.75360538 9.36228665 29.90394943 13.1968111 29 18 C27.60510501 20.69928153 26.33695274 21.93478595 24 24 C23.01 24 22.02 24 21 24 C24.17023562 30.43557831 27.34933813 36.82195683 31 43 C27.52339146 43.5565322 24.45635212 43.75543025 21 43 C18.24926494 40.39951517 16.69191587 37.35722929 15 34 C12.74839441 29.27984493 12.74839441 29.27984493 9 26 C9 31.61 9 37.22 9 43 C6.03 43 3.06 43 0 43 C0 28.81 0 14.62 0 0 Z " fill="#F5F6F7" transform="translate(1013,483)"/>
<path d="M0 0 C8 0 8 0 10.26928711 2.07958984 C10.8494458 3.03043457 11.42960449 3.9812793 12.02734375 4.9609375 C12.99704102 6.50394531 12.99704102 6.50394531 13.98632812 8.078125 C14.63021484 9.16609375 15.27410156 10.2540625 15.9375 11.375 C16.60845703 12.45523437 17.27941406 13.53546875 17.97070312 14.6484375 C22.4369833 21.8739666 22.4369833 21.8739666 24 25 C24.33 16.75 24.66 8.5 25 0 C27.64 0 30.28 0 33 0 C33 14.19 33 28.38 33 43 C25 43 25 43 22.62304688 40.796875 C21.99462891 39.79140625 21.36621094 38.7859375 20.71875 37.75 C20.02265625 36.6671875 19.3265625 35.584375 18.609375 34.46875 C17.90562953 33.31287754 17.20251226 32.15662239 16.5 31 C15.76822092 29.84210532 15.03386996 28.6858318 14.296875 27.53125 C12.50590089 24.70339614 10.74956468 21.8536589 9 19 C8.67 26.92 8.34 34.84 8 43 C5.36 43 2.72 43 0 43 C0 28.81 0 14.62 0 0 Z " fill="#FCFCFC" transform="translate(866,483)"/>
<path d="M0 0 C9.24 0 18.48 0 28 0 C28 2.64 28 5.28 28 8 C21.73 8 15.46 8 9 8 C9 11.3 9 14.6 9 18 C14.94 18 20.88 18 27 18 C27 20.31 27 22.62 27 25 C21.06 25 15.12 25 9 25 C9 28.63 9 32.26 9 36 C15.6 36 22.2 36 29 36 C29 38.31 29 40.62 29 43 C19.43 43 9.86 43 0 43 C0 28.81 0 14.62 0 0 Z " fill="#F6F7F8" transform="translate(966,483)"/>
<path d="M0 0 C9.24 0 18.48 0 28 0 C28 2.64 28 5.28 28 8 C21.73 8 15.46 8 9 8 C9 11.3 9 14.6 9 18 C14.94 18 20.88 18 27 18 C27 20.31 27 22.62 27 25 C21.06 25 15.12 25 9 25 C9 28.63 9 32.26 9 36 C15.27 36 21.54 36 28 36 C28 38.31 28 40.62 28 43 C18.76 43 9.52 43 0 43 C0 28.81 0 14.62 0 0 Z " fill="#F8F8F9" transform="translate(819,483)"/>
<path d="M0 0 C1.21171875 -0.02578125 2.4234375 -0.0515625 3.671875 -0.078125 C8.25007891 0.34171029 11.49039543 1.6786322 14.9296875 4.75 C18.25 8.91666667 18.25 8.91666667 18.25 12.25 C15.34399739 13.50664978 13.45395416 14.25 10.25 14.25 C9.5075 13.26 8.765 12.27 8 11.25 C5.81471914 8.46574155 5.50728688 8.29134968 1.75 7.6875 C-1.8485297 8.26583513 -3.87270249 9.04971367 -6.75 11.25 C-8.30693041 14.36386082 -7.97567195 17.64744932 -8 21.0625 C-8.020625 21.77470703 -8.04125 22.48691406 -8.0625 23.22070312 C-8.09624593 27.78062152 -7.50402761 30.59882703 -4.75 34.25 C-3.54038656 35.6706927 -3.54038656 35.6706927 0 35.625 C3.63417034 35.59890183 4.16324437 35.32014285 7.1875 32.875 C9.23142313 30.45460719 9.23142313 30.45460719 10.25 28.25 C16 29.125 16 29.125 18.25 30.25 C18.1760095 33.3576009 17.88075777 35.52573366 15.80078125 37.9140625 C10.39434222 42.67548169 5.84732232 44.74774556 -1.40625 44.56640625 C-6.62856477 43.86139376 -10.48913632 41.5440443 -14.125 37.8125 C-18.87265715 30.32580987 -18.63066097 21.8455956 -17.75 13.25 C-16.32753097 7.83692865 -13.42703137 4.32699432 -8.75 1.25 C-5.83999203 -0.20500399 -3.2410667 0.04102616 0 0 Z " fill="#F4F5F7" transform="translate(782.75,482.75)"/>
<path d="M0 0 C10.56 0 21.12 0 32 0 C32 2.64 32 5.28 32 8 C28.04 8 24.08 8 20 8 C20 19.55 20 31.1 20 43 C17.03 43 14.06 43 11 43 C11 31.45 11 19.9 11 8 C7.37 8 3.74 8 0 8 C0 5.36 0 2.72 0 0 Z " fill="#F1F3F4" transform="translate(917,483)"/>
<path d="M0 0 C0.58291226 13.14790997 0.58291226 13.14790997 -3 19 C-6.87923352 23.0594165 -10.22398849 24.85677327 -15.875 25.3125 C-19.17287177 25.28213286 -20.00374881 24.99760714 -22.9375 23.125 C-25.71068709 20.26777694 -26.20503898 18.57699254 -26.375 14.6875 C-26.42398438 13.92824219 -26.47296875 13.16898437 -26.5234375 12.38671875 C-25.71639196 8.70683198 -23.91361591 7.31624757 -21 5 C-18.38150771 4.05086634 -16.06222699 3.3378309 -13.375 2.75 C-12.04938805 2.43267204 -10.72386384 2.11497732 -9.3984375 1.796875 C-7.71621094 1.40242188 -7.71621094 1.40242188 -6 1 C-3 0 -3 0 0 0 Z " fill="#142A47" transform="translate(810,409)"/>
<path d="M0 0 C3.20046493 2.34180361 4.7585315 4.33387665 6.5625 7.875 C7.0575 11.835 7.0575 11.835 7.5625 15.875 C-3.3275 15.875 -14.2175 15.875 -25.4375 15.875 C-24.33914381 8.18650665 -22.86142432 4.99681335 -17.3125 -0.0625 C-11.62647874 -2.16385568 -5.71213795 -1.86942696 0 0 Z " fill="#172C49" transform="translate(1026.4375,384.125)"/>
<path d="M0 0 C4.87466941 0.04881643 7.6040575 0.97490175 11.3125 4.3125 C13.66492347 7.52035018 13.7809209 10.40899252 13.3125 14.3125 C11.02731238 18.62896551 8.85697291 21.4101625 4.3125 23.3125 C-0.0433698 23.86688343 -2.12450886 23.62055175 -6 21.5 C-8.80096485 19.22014489 -10.47298988 17.64472077 -11.05859375 14.0078125 C-11.23949094 7.00602708 -11.23949094 7.00602708 -8.25 3.25 C-7.404375 2.610625 -6.55875 1.97125 -5.6875 1.3125 C-4.05640633 -0.31859367 -2.24562778 0.06377717 0 0 Z " fill="#F8F8F9" transform="translate(951.6875,336.6875)"/>
<path d="M0 0 C6.8359375 -0.1953125 6.8359375 -0.1953125 9 0 C11 2 11 2 11.25 5 C11 8 11 8 9 10 C5.98173347 10.27240673 3.03629378 10.08675125 0 10 C0 6.7 0 3.4 0 0 Z " fill="#0F2542" transform="translate(1022,491)"/>
</svg>
