<?xml version="1.0" encoding="UTF-8"?>
<svg version="1.1" xmlns="http://www.w3.org/2000/svg" width="1080" height="607">
<path d="M0 0 C356.4 0 712.8 0 1080 0 C1080 200.31 1080 400.62 1080 607 C723.6 607 367.2 607 0 607 C0 406.69 0 206.38 0 0 Z " fill="#FEFEFE" transform="translate(0,0)"/>
<path d="M0 0 C4.27989567 2.76247812 7.94788846 6.24385539 11.62939453 9.74194336 C16.06443417 13.94322734 20.76672897 17.70199586 25.62963867 21.39501953 C29.17629526 24.10877654 32.29469581 27.00084273 35.4375 30.1875 C37.69294561 32.23020701 39.99938128 34.21056122 42.3125 36.1875 C42.89902344 36.69539063 43.48554688 37.20328125 44.08984375 37.7265625 C47.05330932 40.26667584 50.04495327 42.65917689 53.24609375 44.89453125 C56.31339485 47.09833265 58.13190257 49.24587569 60.4375 52.1875 C62.55410427 53.49915257 62.55410427 53.49915257 64.4375 54.1875 C64.4375 54.8475 64.4375 55.5075 64.4375 56.1875 C65.05625 56.47625 65.675 56.765 66.3125 57.0625 C68.4375 58.1875 68.4375 58.1875 70.4375 60.1875 C70.5625 63.3125 70.5625 63.3125 70.4375 66.1875 C69.7775 66.1875 69.1175 66.1875 68.4375 66.1875 C67.4475 68.1675 67.4475 68.1675 66.4375 70.1875 C63.20804109 70.54696274 61.82627707 70.46813601 59.1484375 68.53515625 C58.37757813 67.78105469 57.60671875 67.02695312 56.8125 66.25 C53.28688697 62.90746777 49.72596226 59.73007521 45.9375 56.6875 C34.72376704 47.58534015 34.72376704 47.58534015 30.4375 43.1875 C30.4375 42.5275 30.4375 41.8675 30.4375 41.1875 C29.633125 40.919375 28.82875 40.65125 28 40.375 C27.154375 39.983125 26.30875 39.59125 25.4375 39.1875 C25.1075 38.1975 24.7775 37.2075 24.4375 36.1875 C23.11663805 35.49645302 21.78056588 34.83433558 20.4375 34.1875 C18.8395389 32.83240691 17.27996688 31.43141828 15.75 30 C11.79589471 26.37200649 7.74791465 23.00283268 3.4765625 19.7578125 C1.6192897 18.32749897 -0.1624777 16.84269164 -1.9375 15.3125 C-6.1674093 11.88828771 -9.87656152 11.85263373 -15.12109375 11.8984375 C-18.57211434 12.30703834 -20.21306908 13.69567933 -22.5625 16.1875 C-25.43875912 19.06375912 -28.36170002 21.66772129 -31.5625 24.1875 C-32.2225 24.1875 -32.8825 24.1875 -33.5625 24.1875 C-34.0575 25.6725 -34.0575 25.6725 -34.5625 27.1875 C-36.453125 28.87109375 -36.453125 28.87109375 -38.8125 30.625 C-39.6271875 31.23988281 -40.441875 31.85476562 -41.28125 32.48828125 C-42.0340625 33.04902344 -42.786875 33.60976562 -43.5625 34.1875 C-46.26825743 36.27831256 -48.70542144 38.33042144 -51.125 40.75 C-53.1887718 42.8137718 -55.12598298 44.59116126 -57.5625 46.1875 C-58.2225 46.1875 -58.8825 46.1875 -59.5625 46.1875 C-59.5625 46.8475 -59.5625 47.5075 -59.5625 48.1875 C-61.1015625 49.73828125 -61.1015625 49.73828125 -63.1875 51.5 C-63.91453125 52.11617187 -64.6415625 52.73234375 -65.390625 53.3671875 C-66.10734375 53.96789062 -66.8240625 54.56859375 -67.5625 55.1875 C-68.15546875 55.70570313 -68.7484375 56.22390625 -69.359375 56.7578125 C-73.31821429 60.1875 -73.31821429 60.1875 -75.5625 60.1875 C-75.5625 60.8475 -75.5625 61.5075 -75.5625 62.1875 C-79.02403846 65.1875 -79.02403846 65.1875 -81.5625 65.1875 C-81.78808594 65.75984375 -82.01367188 66.3321875 -82.24609375 66.921875 C-83.93567357 69.82975718 -85.97847189 71.36792246 -88.625 73.4375 C-93.17907386 77.05079807 -97.52395518 80.80092949 -101.78515625 84.75390625 C-103.5625 86.1875 -103.5625 86.1875 -105.5625 86.1875 C-105.5625 86.8475 -105.5625 87.5075 -105.5625 88.1875 C-111.03869048 93.1875 -111.03869048 93.1875 -113.5625 93.1875 C-113.8925 94.1775 -114.2225 95.1675 -114.5625 96.1875 C-115.2225 96.1875 -115.8825 96.1875 -116.5625 96.1875 C-116.2325 98.8275 -115.9025 101.4675 -115.5625 104.1875 C-114.88670898 104.1968457 -114.21091797 104.20619141 -113.51464844 104.21582031 C-110.4465289 104.26957301 -107.37992613 104.35320992 -104.3125 104.4375 C-102.71728516 104.45876953 -102.71728516 104.45876953 -101.08984375 104.48046875 C-100.06503906 104.51269531 -99.04023438 104.54492188 -97.984375 104.578125 C-97.04174805 104.59907227 -96.09912109 104.62001953 -95.12792969 104.64160156 C-91.66478216 105.37852561 -90.67773359 106.33816161 -88.5625 109.1875 C-88.18861259 112.24667802 -88.05586939 114.93954864 -88.10839844 117.99511719 C-88.10781433 118.88327621 -88.10723022 119.77143524 -88.10662842 120.68650818 C-88.10941314 123.61952927 -88.14052349 126.55153164 -88.171875 129.484375 C-88.17933601 131.51889491 -88.1850296 133.553422 -88.18902588 135.58795166 C-88.20429319 140.94093695 -88.24358472 146.29348762 -88.2878418 151.64630127 C-88.32877068 157.10919312 -88.34703182 162.57215525 -88.3671875 168.03515625 C-88.41007769 178.75279505 -88.47834252 189.47011137 -88.5625 200.1875 C-87.9025 200.1875 -87.2425 200.1875 -86.5625 200.1875 C-86.5625 200.8475 -86.5625 201.5075 -86.5625 202.1875 C-85.5725 202.5175 -84.5825 202.8475 -83.5625 203.1875 C-83.5625 203.8475 -83.5625 204.5075 -83.5625 205.1875 C5.8675 205.1875 95.2975 205.1875 187.4375 205.1875 C187.4375 209.1475 187.4375 213.1075 187.4375 217.1875 C152.77807771 217.2559365 118.11867279 217.30902836 83.45919752 217.34069599 C79.36741086 217.34444811 75.27562434 217.34833108 71.18383789 217.35229492 C69.9619354 217.35347532 69.9619354 217.35347532 68.71534801 217.35467956 C55.52510891 217.36773379 42.33490902 217.39138773 29.14469319 217.41895839 C15.61050331 217.44701211 2.07633398 217.46367619 -11.45788378 217.46976548 C-19.80935087 217.47388199 -28.16070711 217.4868841 -36.51214009 217.5112494 C-42.23888683 217.52710618 -47.96557626 217.53190049 -53.69234336 217.52800413 C-56.99650699 217.52608248 -60.30043601 217.53066966 -63.6045742 217.54511642 C-67.18873211 217.56002076 -70.77241394 217.55646063 -74.35658264 217.54826355 C-75.39842164 217.55700207 -76.44026063 217.5657406 -77.5136705 217.57474393 C-84.66941277 217.53044701 -89.50779791 216.60284584 -95.25 212.0625 C-102.88077261 202.57559351 -102.091377 192.76347885 -101.953125 181.15234375 C-101.94565456 179.30433263 -101.93996543 177.45631353 -101.93597412 175.60829163 C-101.92078092 170.76992504 -101.8815543 165.93204706 -101.8371582 161.09387207 C-101.79606852 156.14663297 -101.77793398 151.19931408 -101.7578125 146.25195312 C-101.71505331 136.56358869 -101.6468794 126.87558515 -101.5625 117.1875 C-102.65949219 117.21070313 -103.75648438 117.23390625 -104.88671875 117.2578125 C-106.341139 117.27657921 -107.79556664 117.29477844 -109.25 117.3125 C-109.97123047 117.32925781 -110.69246094 117.34601563 -111.43554688 117.36328125 C-117.33824077 117.41718713 -120.82347785 116.72431027 -125.25 112.8125 C-129.73955074 107.71625322 -130.01277823 103.76693415 -129.8671875 97.0859375 C-128.9230114 88.10415977 -118.7759252 81.09901848 -112.1875 75.75 C-111.259375 75.00492187 -110.33125 74.25984375 -109.375 73.4921875 C-105.75387739 70.5248787 -102.2995184 67.39589984 -98.8515625 64.23046875 C-92.08066444 58.1875 -92.08066444 58.1875 -89.5625 58.1875 C-89.5625 57.5275 -89.5625 56.8675 -89.5625 56.1875 C-88.9025 56.1875 -88.2425 56.1875 -87.5625 56.1875 C-87.5625 55.5275 -87.5625 54.8675 -87.5625 54.1875 C-84.10096154 51.1875 -84.10096154 51.1875 -81.5625 51.1875 C-81.5625 50.5275 -81.5625 49.8675 -81.5625 49.1875 C-76.08630952 44.1875 -76.08630952 44.1875 -73.5625 44.1875 C-73.5625 43.5275 -73.5625 42.8675 -73.5625 42.1875 C-71.87052149 40.95998618 -70.17375177 39.73811861 -68.4453125 38.5625 C-66.30191089 37.07130039 -66.30191089 37.07130039 -63.75 34.375 C-62.6671875 33.2921875 -62.6671875 33.2921875 -61.5625 32.1875 C-60.9025 32.1875 -60.2425 32.1875 -59.5625 32.1875 C-59.5625 31.5275 -59.5625 30.8675 -59.5625 30.1875 C-58.09559441 28.8547812 -56.55927499 27.59836131 -55 26.375 C-49.34829105 21.87129443 -43.90756427 17.1653572 -38.51538086 12.35424805 C-33.78024246 8.1875 -33.78024246 8.1875 -31.5625 8.1875 C-31.5625 7.5275 -31.5625 6.8675 -31.5625 6.1875 C-30.0234375 4.75 -30.0234375 4.75 -27.9375 3.1875 C-27.26460938 2.671875 -26.59171875 2.15625 -25.8984375 1.625 C-18.46275619 -2.95080388 -7.91562261 -3.98670044 0 0 Z " fill="#182A47" transform="translate(345.5625,191.8125)"/>
<path d="M0 0 C1.19367187 -0.01675781 2.38734375 -0.03351563 3.6171875 -0.05078125 C8.27920812 0.4320338 11.55660792 1.77144373 14.91796875 5.07421875 C21.617605 14.32609738 23.09021495 21.80416789 22.125 33.3125 C21.34862975 37.39067476 20.34553872 41.34574917 19.125 45.3125 C18.465 45.3125 17.805 45.3125 17.125 45.3125 C17.0321875 46.17875 17.0321875 46.17875 16.9375 47.0625 C15.58468731 50.80875053 12.83497461 52.40128904 9.40234375 54.23046875 C3.80775892 56.67738162 -1.84178034 57.15862227 -7.875 56.3125 C-10.4924096 55.26962586 -11.75320259 54.26678709 -13.875 52.3125 C-14.205 51.3225 -14.535 50.3325 -14.875 49.3125 C-15.535 49.3125 -16.195 49.3125 -16.875 49.3125 C-16.875 58.5525 -16.875 67.7925 -16.875 77.3125 C-21.495 77.3125 -26.115 77.3125 -30.875 77.3125 C-30.875 52.2325 -30.875 27.1525 -30.875 1.3125 C-26.255 1.3125 -21.635 1.3125 -16.875 1.3125 C-16.875 3.2925 -16.875 5.2725 -16.875 7.3125 C-15.9675 6.52875 -15.06 5.745 -14.125 4.9375 C-9.50513054 0.94761274 -6.16760406 0.0198955 0 0 Z " fill="#182A46" transform="translate(516.875,310.6875)"/>
<path d="M0 0 C1.5159375 0.00580078 1.5159375 0.00580078 3.0625 0.01171875 C8.96502529 0.61609966 12.11971174 2.87788485 16 7.3125 C16 7.9725 16 8.6325 16 9.3125 C16.66 9.3125 17.32 9.3125 18 9.3125 C18.1546875 8.3534375 18.1546875 8.3534375 18.3125 7.375 C18.539375 6.694375 18.76625 6.01375 19 5.3125 C19.99 4.9825 20.98 4.6525 22 4.3125 C22 3.6525 22 2.9925 22 2.3125 C27.43303608 -1.02263106 33.87975355 -0.45936144 40 0.3125 C43.38391695 1.72750099 45.83497435 3.33849971 48 6.3125 C50.04891944 12.02610062 50.26588012 17.15013084 50.1953125 23.18359375 C50.1924826 24.105923 50.18965271 25.02825226 50.18673706 25.97853088 C50.17560974 28.90249013 50.15051912 31.82613451 50.125 34.75 C50.11496057 36.74153201 50.1058364 38.73306886 50.09765625 40.72460938 C50.07569483 45.5873595 50.04121673 50.4498765 50 55.3125 C45.71 55.3125 41.42 55.3125 37 55.3125 C36.97494385 54.0757251 36.9498877 52.8389502 36.92407227 51.56469727 C36.83017747 46.99313287 36.72991371 42.42172682 36.62768555 37.8503418 C36.58426856 35.86860854 36.54259863 33.88683622 36.50268555 31.9050293 C36.44514617 29.0628683 36.38140555 26.22090517 36.31640625 23.37890625 C36.29969376 22.48724258 36.28298126 21.59557892 36.26576233 20.67689514 C36.563413 16.67301605 36.563413 16.67301605 35 13.3125 C32.81360547 13.23991054 30.62499611 13.22876217 28.4375 13.25 C27.23996094 13.25902344 26.04242188 13.26804687 24.80859375 13.27734375 C23.41833984 13.29474609 23.41833984 13.29474609 22 13.3125 C21.34 14.6325 20.68 15.9525 20 17.3125 C19.34 17.3125 18.68 17.3125 18 17.3125 C18 29.8525 18 42.3925 18 55.3125 C13.38 55.3125 8.76 55.3125 4 55.3125 C4 42.1125 4 28.9125 4 15.3125 C3.34 15.3125 2.68 15.3125 2 15.3125 C2 14.6525 2 13.9925 2 13.3125 C1.34 13.3125 0.68 13.3125 0 13.3125 C0 12.6525 0 11.9925 0 11.3125 C-1.60727327 11.54167968 -3.21087416 11.79670802 -4.8125 12.0625 C-5.70582031 12.20171875 -6.59914063 12.3409375 -7.51953125 12.484375 C-10.55907103 13.49915049 -11.39787571 14.58332929 -13 17.3125 C-14.22318866 20.98206597 -14.23116124 24.43571003 -14.31640625 28.26171875 C-14.33718735 29.03433548 -14.35796844 29.80695221 -14.37937927 30.60298157 C-14.44471038 33.0685648 -14.50368315 35.53425361 -14.5625 38 C-14.60570087 39.67253691 -14.64931566 41.34506319 -14.69335938 43.01757812 C-14.8003749 47.1157775 -14.90168857 51.21408296 -15 55.3125 C-19.62 55.3125 -24.24 55.3125 -29 55.3125 C-29 37.4925 -29 19.6725 -29 1.3125 C-24.71 1.3125 -20.42 1.3125 -16 1.3125 C-16 3.6225 -16 5.9325 -16 8.3125 C-14.9171875 7.1678125 -14.9171875 7.1678125 -13.8125 6 C-9.34291664 1.72906479 -6.25030716 -0.1036403 0 0 Z " fill="#132643" transform="translate(426,310.6875)"/>
<path d="M0 0 C1.06250977 0.00193359 1.06250977 0.00193359 2.14648438 0.00390625 C7.48701642 0.10216811 11.44244263 0.93997131 16.1875 3.3125 C16.1875 3.9725 16.1875 4.6325 16.1875 5.3125 C16.95578125 5.54195313 17.7240625 5.77140625 18.515625 6.0078125 C21.80318047 7.61313929 22.43654775 8.90294864 23.9375 12.1875 C24.34484375 13.05117188 24.7521875 13.91484375 25.171875 14.8046875 C27.26613011 19.97588666 27.4018494 24.6705704 27.4375 30.1875 C27.458125 30.97769531 27.47875 31.76789063 27.5 32.58203125 C27.53341065 37.60198096 26.8751524 40.91323739 24.1875 45.3125 C23.5275 45.3125 22.8675 45.3125 22.1875 45.3125 C22.0946875 46.2096875 22.0946875 46.2096875 22 47.125 C20.85195318 50.21589529 19.08202948 50.9005344 16.1875 52.3125 C15.5275 52.3125 14.8675 52.3125 14.1875 52.3125 C14.1875 52.9725 14.1875 53.6325 14.1875 54.3125 C5.88842392 56.91613171 -3.3743253 57.98711155 -11.6875 54.875 C-18.30097245 51.41022124 -22.37047021 45.38794051 -24.75 38.4375 C-27.30895352 28.16989767 -25.80846637 19.05342433 -21.5625 9.5 C-15.96846326 2.50745407 -8.77544449 -0.06567218 0 0 Z " fill="#192D47" transform="translate(361.8125,310.6875)"/>
<path d="M0 0 C21.60257592 -0.72365949 21.60257592 -0.72365949 29.375 5.375 C31.83170522 7.83170522 34.07183528 10.10775291 36 13 C36 14.32 36 15.64 36 17 C34.390625 18.51953125 34.390625 18.51953125 32.25 19.8125 C31.55390625 20.25207031 30.8578125 20.69164062 30.140625 21.14453125 C27.56124813 22.17534062 26.53981459 22.05781968 24 21 C22.29220027 19.37550757 20.62449243 17.70779973 19 16 C13.65804864 12.4386991 6.70724441 13.50777374 0.5625 14.625 C-4.18003346 17.16977405 -6.40121403 20.27482643 -8.1171875 25.21875 C-10.24507523 34.33288859 -10.26196669 44.51637536 -6.2109375 53.078125 C-4.53484186 55.73825099 -2.66561778 57.35961983 0 59 C0.99 59.66 1.98 60.32 3 61 C8.15395484 61.70579636 13.32090629 61.78202168 18 59.3125 C22.11357632 56.14161825 24.05657089 53.09451717 25 48 C29.56454251 48.54339792 32.9728176 49.79463821 37 52 C37.82224906 57.3446189 36.04843079 60.57715745 33.05078125 64.8125 C27.66130864 70.56127078 20.22097335 73.71580643 12.4609375 74.23828125 C2.73414238 74.50139284 -5.29236431 73.78845965 -13.3125 67.6875 C-21.94350071 59.05649929 -24.94065582 49.36079262 -25.1875 37.25 C-25.08594091 28.13225103 -23.42718062 20.96892512 -19 13 C-18.34 13 -17.68 13 -17 13 C-16.814375 12.278125 -16.62875 11.55625 -16.4375 10.8125 C-14.44974385 6.92341188 -11.88968786 4.93355857 -8 3 C-5.26636219 2.34640771 -2.82632917 2.14875417 0 2 C0 1.34 0 0.68 0 0 Z " fill="#182B46" transform="translate(296,293)"/>
<path d="M0 0 C3.94872131 3.8359007 5.09998711 6.68743553 6.1875 12.125 C6.1875 16.745 6.1875 21.365 6.1875 26.125 C-5.6925 26.125 -17.5725 26.125 -29.8125 26.125 C-28.38472367 31.14734339 -28.38472367 31.14734339 -26.8125 36.125 C-21.73663565 38.77444062 -16.40480365 38.98281649 -10.8125 38.125 C-8.95085585 37.03703463 -8.95085585 37.03703463 -7.5 35.5625 C-6.613125 34.758125 -5.72625 33.95375 -4.8125 33.125 C-1.4375 33.3125 -1.4375 33.3125 1.1875 34.125 C1.1875 34.785 1.1875 35.445 1.1875 36.125 C2.5075 36.455 3.8275 36.785 5.1875 37.125 C5.10759578 39.84174362 4.62923356 41.61135633 2.84375 43.6875 C-4.05859909 49.96236281 -10.59577551 51.69352907 -19.85546875 51.40234375 C-28.14571377 50.62479105 -34.38711357 47.54610442 -39.8125 41.125 C-44.40202285 32.7558701 -45.06695182 22.03023938 -43.38671875 12.78125 C-41.28530032 6.28361266 -36.59227256 1.12902208 -31.125 -2.8125 C-21.20236582 -7.37154814 -8.91651333 -5.94434222 0 0 Z " fill="#0F2341" transform="translate(722.8125,315.875)"/>
<path d="M0 0 C5.93594645 7.51782137 4.83070146 16.85408129 4.66796875 25.875 C4.65289616 27.33201743 4.6392123 28.78904993 4.62695312 30.24609375 C4.59414778 33.78937925 4.54250782 37.33209171 4.48046875 40.875 C6.79046875 40.875 9.10046875 40.875 11.48046875 40.875 C11.48046875 44.175 11.48046875 47.475 11.48046875 50.875 C8.79479578 52.21783649 6.60300022 52.11787519 3.60546875 52.1875 C2.03152344 52.24357422 2.03152344 52.24357422 0.42578125 52.30078125 C-2.51953125 51.875 -2.51953125 51.875 -4.90234375 50.04296875 C-6.51953125 47.875 -6.51953125 47.875 -6.51953125 44.875 C-7.22078125 45.638125 -7.92203125 46.40125 -8.64453125 47.1875 C-13.24826229 51.49098771 -16.75071724 53.05463046 -23.01953125 53.25 C-28.39079378 53.06804666 -31.88532787 52.20795139 -35.98828125 48.57421875 C-40.12213851 43.94659521 -40.32167506 38.99973988 -40.05859375 32.9765625 C-39.37572505 29.0475933 -38.29186024 26.89749588 -35.4140625 24.16796875 C-29.88151125 20.39214511 -23.2263996 19.54593822 -16.76171875 18.34765625 C-14.20254499 17.80817886 -11.88862116 16.98057529 -9.51953125 15.875 C-9.51953125 13.565 -9.51953125 11.255 -9.51953125 8.875 C-19.46718236 8.268793 -19.46718236 8.268793 -28.51953125 11.875 C-29.17953125 11.875 -29.83953125 11.875 -30.51953125 11.875 C-30.84953125 12.865 -31.17953125 13.855 -31.51953125 14.875 C-34.69072628 13.78148447 -35.52736668 12.8623012 -37.33203125 9.9375 C-38.51953125 6.875 -38.51953125 6.875 -37.51953125 3.875 C-29.00990365 -4.90913172 -10.1647367 -6.69895691 0 0 Z " fill="#162946" transform="translate(582.51953125,314.125)"/>
<path d="M0 0 C4.21393461 3.13595134 7.33879246 7.30258492 9.6875 12 C9.77652493 13.35845193 9.80510132 14.72115974 9.80102539 16.08251953 C9.80094986 16.92324005 9.80087433 17.76396057 9.80079651 18.63015747 C9.79563522 19.53853363 9.79047394 20.44690979 9.78515625 21.3828125 C9.7837413 22.31221649 9.78232635 23.24162048 9.78086853 24.19918823 C9.77526053 27.17449124 9.76270668 30.14971964 9.75 33.125 C9.74498603 35.13932183 9.74042295 37.15364484 9.73632812 39.16796875 C9.7252885 44.11200802 9.70801849 49.05599135 9.6875 54 C5.0675 54 0.4475 54 -4.3125 54 C-4.33755615 52.86981445 -4.3626123 51.73962891 -4.38842773 50.57519531 C-4.48266956 46.37814183 -4.58284926 42.18124737 -4.68481445 37.984375 C-4.72809986 36.16865766 -4.76977944 34.35290129 -4.80981445 32.53710938 C-4.86767202 29.92566167 -4.93132172 27.31440923 -4.99609375 24.703125 C-5.01280624 23.89256653 -5.02951874 23.08200806 -5.04673767 22.24688721 C-5.14021396 18.68275277 -5.35874584 15.43312065 -6.3125 12 C-14.5868527 11.53824317 -14.5868527 11.53824317 -22.3125 14 C-24.33299642 18.61964905 -24.64598847 23.0518023 -24.7265625 28.0234375 C-24.74592865 28.76961334 -24.7652948 29.51578918 -24.7852478 30.28457642 C-24.84462065 32.64793777 -24.8912578 35.01134897 -24.9375 37.375 C-24.97571884 38.98569732 -25.0147728 40.59637506 -25.0546875 42.20703125 C-25.15028676 46.13786016 -25.234472 50.06878463 -25.3125 54 C-29.9325 54 -34.5525 54 -39.3125 54 C-39.3125 36.18 -39.3125 18.36 -39.3125 0 C-35.0225 0 -30.7325 0 -26.3125 0 C-25.9825 1.98 -25.6525 3.96 -25.3125 6 C-24.85359375 5.57847656 -24.3946875 5.15695312 -23.921875 4.72265625 C-23.30828125 4.17480469 -22.6946875 3.62695312 -22.0625 3.0625 C-21.45921875 2.51722656 -20.8559375 1.97195313 -20.234375 1.41015625 C-14.78654714 -2.58713208 -6.15548711 -1.85826026 0 0 Z " fill="#102644" transform="translate(638.3125,312)"/>
<path d="M0 0 C0.69931641 -0.01224609 1.39863281 -0.02449219 2.11914062 -0.03710938 C6.53311655 -0.04949659 10.08881584 0.55960817 14.1875 2.1875 C14.1875 2.8475 14.1875 3.5075 14.1875 4.1875 C16.6625 5.1775 16.6625 5.1775 19.1875 6.1875 C19.1875 7.1775 19.1875 8.1675 19.1875 9.1875 C18.5275 9.5175 17.8675 9.8475 17.1875 10.1875 C16.8575 11.1775 16.5275 12.1675 16.1875 13.1875 C15.5275 13.1875 14.8675 13.1875 14.1875 13.1875 C14.1875 13.8475 14.1875 14.5075 14.1875 15.1875 C12.5375 15.1875 10.8875 15.1875 9.1875 15.1875 C9.1875 14.5275 9.1875 13.8675 9.1875 13.1875 C5.76517028 12.04672343 3.10076783 12.08934883 -0.5 12.125 C-1.67949219 12.13402344 -2.85898437 12.14304687 -4.07421875 12.15234375 C-4.97785156 12.16394531 -5.88148438 12.17554688 -6.8125 12.1875 C-6.97931109 15.10402174 -6.97931109 15.10402174 -6.8125 18.1875 C-4.3633269 20.6366731 -3.19049002 20.59226843 0.1875 21.0625 C7.39630788 22.27501959 15.60432155 24.01017253 20.1875 30.1875 C21.86240313 35.2122094 22.29448227 40.54845427 20.2109375 45.515625 C16.55540492 51.57080167 13.00597893 54.22435974 6.1875 56.1875 C-3.43812682 57.05640183 -12.65840345 56.80218558 -20.375 50.5 C-21.179375 49.736875 -21.98375 48.97375 -22.8125 48.1875 C-22.27162682 44.40138773 -20.69527668 42.63349233 -17.8125 40.1875 C-17.1525 40.1875 -16.4925 40.1875 -15.8125 40.1875 C-15.8125 39.5275 -15.8125 38.8675 -15.8125 38.1875 C-13.59595373 39.21661077 -11.70380823 40.26984225 -9.75 41.75 C-6.83299099 43.91423249 -4.34221063 44.32587012 -0.8125 44.3125 C0.2084375 44.31636719 0.2084375 44.31636719 1.25 44.3203125 C3.40624781 44.25381126 3.40624781 44.25381126 6.1875 43.1875 C6.1875 40.5475 6.1875 37.9075 6.1875 35.1875 C5.25808594 35.00574219 4.32867188 34.82398438 3.37109375 34.63671875 C-15.00389526 30.90040712 -15.00389526 30.90040712 -20.8125 22.1875 C-21.51412213 16.9906012 -21.43989539 12.51468256 -19.1875 7.75 C-13.40746611 1.51364765 -8.225549 0.00745743 0 0 Z " fill="#192C48" transform="translate(753.8125,310.8125)"/>
<path d="M0 0 C4.86802449 -0.34634166 8.83031146 -0.49820067 13.375 1.4375 C19.4099439 7.32875476 21.12529303 15.28951877 21.234375 23.45703125 C21.24210937 24.65392578 21.24210937 24.65392578 21.25 25.875 C21.270625 26.66519531 21.29125 27.45539063 21.3125 28.26953125 C21.34591065 33.28948096 20.6876524 36.60073739 18 41 C17.34 41 16.68 41 16 41 C15.9071875 41.8971875 15.9071875 41.8971875 15.8125 42.8125 C14.66445318 45.90339529 12.89452948 46.5880344 10 48 C9.34 48 8.68 48 8 48 C8 48.66 8 49.32 8 50 C3.76088719 51.02295193 -0.27109875 51.16603106 -4.625 51.1875 C-6.59339844 51.20876953 -6.59339844 51.20876953 -8.6015625 51.23046875 C-12 51 -12 51 -15 49 C-14.6875 46.125 -14.6875 46.125 -14 43 C-10.1496895 40.43312633 -8.41430237 41.16711276 -4 42 C-4 42.66 -4 43.32 -4 44 C-3.01 43.505 -3.01 43.505 -2 43 C-2 42.34 -2 41.68 -2 41 C-1.34 41 -0.68 41 0 41 C0.33 40.01 0.66 39.02 1 38 C1.83917969 37.49984375 2.67835938 36.9996875 3.54296875 36.484375 C6.39880134 33.59676049 6.37308699 32.91950897 6.48828125 29.015625 C6.455135 27.09314273 6.39563119 25.17097005 6.3125 23.25 C6.28994141 22.26644531 6.26738281 21.28289062 6.24414062 20.26953125 C6.18528805 17.8448053 6.10313431 15.42318017 6 13 C5.34 13 4.68 13 4 13 C1.875 11.125 1.875 11.125 0 9 C0 8.34 0 7.68 0 7 C-0.66 6.67 -1.32 6.34 -2 6 C-0.68 5.67 0.64 5.34 2 5 C1.34 5 0.68 5 0 5 C0 3.35 0 1.7 0 0 Z " fill="#172A45" transform="translate(368,315)"/>
<path d="M0 0 C14.21187337 -1.0778668 14.21187337 -1.0778668 20.546875 4.00390625 C24.5943724 9.56377499 24.27218777 16.29833337 24.1953125 22.87109375 C24.1924826 23.793423 24.18965271 24.71575226 24.18673706 25.66603088 C24.17560974 28.58999013 24.15051912 31.51363451 24.125 34.4375 C24.11496057 36.42903201 24.1058364 38.42056886 24.09765625 40.41210938 C24.07569483 45.2748595 24.04121673 50.1373765 24 55 C19.71 55 15.42 55 11 55 C10.9906543 53.77369873 10.98130859 52.54739746 10.97167969 51.28393555 C10.93183536 46.73815457 10.86609244 42.19305438 10.79248047 37.64770508 C10.76423851 35.67969502 10.74304006 33.71157085 10.72900391 31.7434082 C10.70761879 28.9155827 10.6609926 26.08913385 10.609375 23.26171875 C10.60814636 22.38037766 10.60691772 21.49903656 10.60565186 20.59098816 C10.61363266 15.80470911 10.61363266 15.80470911 8.09570312 11.953125 C4.71663968 10.4163282 1.68881618 10.30740135 -2 10 C1 8 1 8 3 8 C2.67 7.01 2.34 6.02 2 5 C0.68 5 -0.64 5 -2 5 C-2 4.34 -2 3.68 -2 3 C-1.34 3 -0.68 3 0 3 C0 2.01 0 1.02 0 0 Z " fill="#142745" transform="translate(452,311)"/>
<path d="M0 0 C4.62 0 9.24 0 14 0 C14 17.82 14 35.64 14 54 C9.38 54 4.76 54 0 54 C0 36.18 0 18.36 0 0 Z " fill="#22344F" transform="translate(657,312)"/>
<path d="M0 0 C2.3671875 1.41796875 2.3671875 1.41796875 4 3 C4 3.66 4 4.32 4 5 C4.66 5 5.32 5 6 5 C7.17426264 7.34852528 7.11508173 8.73774065 7.09765625 11.3515625 C7.09443359 12.20234375 7.09121094 13.053125 7.08789062 13.9296875 C7.07951172 14.81914062 7.07113281 15.70859375 7.0625 16.625 C7.05798828 17.5221875 7.05347656 18.419375 7.04882812 19.34375 C7.03702591 21.56256648 7.02056155 23.78125018 7 26 C6.01 26.33 5.02 26.66 4 27 C3.67 27.99 3.34 28.98 3 30 C-1.45849958 32.97233305 -5.77433867 32.74215102 -11 32 C-15.36826843 28.9689566 -16.5870771 25.99677456 -18 21 C-18.80226562 14.78244147 -19.087525 8.69441625 -15.75 3.1875 C-11.59042638 -1.52933707 -5.8102883 -1.18957156 0 0 Z " fill="#F6F8F9" transform="translate(368,323)"/>
<path d="M0 0 C3.94251511 2.99087353 5.67280316 6.36527946 6.34375 11.21484375 C6.36006872 12.5806714 6.34897381 13.94706192 6.3125 15.3125 C6.30259033 16.02035645 6.29268066 16.72821289 6.2824707 17.45751953 C6.08686825 22.925526 5.29335283 26.1979766 1.8125 30.375 C-2.24116375 33.0774425 -5.43281551 32.90236817 -10.1875 32.375 C-13.70098186 31.00015927 -14.85344234 29.92692134 -16.8046875 26.703125 C-18.36524796 22.94719983 -18.52494283 20.29860292 -18.4375 16.25 C-18.42203125 15.05117188 -18.4065625 13.85234375 -18.390625 12.6171875 C-18.08807915 7.78809029 -18.08807915 7.78809029 -17.1875 5.375 C-16.5275 5.045 -15.8675 4.715 -15.1875 4.375 C-14.8575 3.385 -14.5275 2.395 -14.1875 1.375 C-9.69218161 -1.13708969 -4.93537202 -1.41010629 0 0 Z " fill="#F6F8F9" transform="translate(518.1875,322.625)"/>
<path d="M0 0 C0.66 0 1.32 0 2 0 C2 0.66 2 1.32 2 2 C1.01 1.67 0.02 1.34 -1 1 C-0.67 0.67 -0.34 0.34 0 0 Z M4 -3 C3.67 -2.01 3.34 -1.02 3 0 C1.329375 0.12375 1.329375 0.12375 -0.375 0.25 C-4.05753944 0.57873787 -4.05753944 0.57873787 -5.4375 3.0625 C-5.623125 3.701875 -5.80875 4.34125 -6 5 C-4.35 5.33 -2.7 5.66 -1 6 C-1 6.66 -1 7.32 -1 8 C-0.34 8 0.32 8 1 8 C1 6.68 1 5.36 1 4 C4.465 3.505 4.465 3.505 8 3 C8 2.34 8 1.68 8 1 C12.29 1 16.58 1 21 1 C21.49926292 7.39056541 21.00039709 10.99939333 17.484375 16.37109375 C15.77684902 18.24487884 14.35785888 19.08859685 12 20 C8.75 20.125 8.75 20.125 6 20 C6 20.99 6 21.98 6 23 C7.134375 23.268125 8.26875 23.53625 9.4375 23.8125 C10.613125 24.204375 11.78875 24.59625 13 25 C13.33 25.99 13.66 26.98 14 28 C8.36656982 29.87781006 2.26483158 29.71300253 -3.375 27.9375 C-8.00197019 24.52235533 -10.54563466 21.71252694 -11.51953125 15.8984375 C-11.78537181 10.51980284 -11.82421432 6.1535956 -8.375 1.8125 C-4.7038268 -1.69377417 -1.07115669 -3 4 -3 Z " fill="#172A46" transform="translate(554,338)"/>
<path d="M0 0 C0.99 1.485 0.99 1.485 2 3 C2.33 2.67 2.66 2.34 3 2 C5.67058851 1.85884839 8.32432238 1.95752893 11 2 C11.625 3.75 11.625 3.75 12 6 C11.67 6.61875 11.34 7.2375 11 7.875 C9.60809832 10.83279108 10.29197005 12.88466822 11 16 C11.99 16 12.98 16 14 16 C13.67 28.54 13.34 41.08 13 54 C8.71 54 4.42 54 0 54 C0 36.18 0 18.36 0 0 Z " fill="#112542" transform="translate(599,312)"/>
<path d="M0 0 C4.92980953 2.00844092 8.09403383 5.64105074 11 10 C12 15 12 15 12 29 C0.12 29 -11.76 29 -24 29 C-20.51009191 25.51009191 -19.55326487 25.56737983 -14.8125 25.3125 C-13.18248047 25.21388672 -13.18248047 25.21388672 -11.51953125 25.11328125 C-10.68808594 25.07589844 -9.85664062 25.03851563 -9 25 C-9 24.67 -9 24.34 -9 24 C-7.865625 23.855625 -6.73125 23.71125 -5.5625 23.5625 C-2.19222799 23.38828522 -2.19222799 23.38828522 -1 22 C-12.385 21.505 -12.385 21.505 -24 21 C-24 16.0020211 -23.79122637 14.82501392 -21 11 C-16.71920359 8.14613573 -13.02736992 8.37880199 -8 9 C-4.8424744 10.0679866 -1.92924808 11.41509283 1 13 C1.66 11.68 2.32 10.36 3 9 C3.66 9 4.32 9 5 9 C5 8.34 5 7.68 5 7 C4.360625 6.360625 3.72125 5.72125 3.0625 5.0625 C1 3 1 3 0 0 Z " fill="#21344F" transform="translate(717,313)"/>
<path d="M0 0 C0.99 0.495 0.99 0.495 2 1 C1.67 1.66 1.34 2.32 1 3 C1.99 3.33 2.98 3.66 4 4 C4.33 6.64 4.66 9.28 5 12 C5.66 12 6.32 12 7 12 C7.1546875 11.1028125 7.1546875 11.1028125 7.3125 10.1875 C8.09824033 7.68741714 8.96918853 6.62464918 11 5 C11.66 5 12.32 5 13 5 C13.33 4.67 13.66 4.34 14 4 C14.66 4.33 15.32 4.66 16 5 C16 5.66 16 6.32 16 7 C21.32637353 9.39831285 26.22503363 9.88583555 32 9 C33.86164415 7.91203463 33.86164415 7.91203463 35.3125 6.4375 C36.199375 5.633125 37.08625 4.82875 38 4 C41.375 4.1875 41.375 4.1875 44 5 C44 5.66 44 6.32 44 7 C45.32 7.33 46.64 7.66 48 8 C47.92009578 10.71674362 47.44173356 12.48635633 45.65625 14.5625 C38.75390091 20.83736281 32.21672449 22.56852907 22.95703125 22.27734375 C14.66581424 21.49969988 8.42676199 18.42039447 3 12 C0.79861566 8.04046306 0 4.56553614 0 0 Z " fill="#132643" transform="translate(680,345)"/>
<path d="M0 0 C1.20527344 -0.01417969 2.41054688 -0.02835937 3.65234375 -0.04296875 C7.68046519 0.22926397 10.63098592 0.79297595 13.57421875 3.66015625 C13.96222656 4.18480469 14.35023438 4.70945312 14.75 5.25 C16.73571729 8.20167408 16.73571729 8.20167408 19.0625 9.1875 C18.4025 10.5075 17.7425 11.8275 17.0625 13.1875 C16.4025 12.8575 15.7425 12.5275 15.0625 12.1875 C14.4025 15.1575 13.7425 18.1275 13.0625 21.1875 C12.7325 21.1875 12.4025 21.1875 12.0625 21.1875 C12.0625 18.8775 12.0625 16.5675 12.0625 14.1875 C11.299375 14.043125 10.53625 13.89875 9.75 13.75 C7.0625 13.1875 7.0625 13.1875 4.0625 12.1875 C2.37704276 12.09462229 0.688007 12.05752796 -1 12.0625 C-1.87785156 12.05992187 -2.75570312 12.05734375 -3.66015625 12.0546875 C-5.96948266 12.03916576 -5.96948266 12.03916576 -7.9375 13.1875 C-8.2675 12.5275 -8.5975 11.8675 -8.9375 11.1875 C-11.24715848 10.13397157 -13.5804774 9.13030904 -15.9375 8.1875 C-16.2675 9.5075 -16.5975 10.8275 -16.9375 12.1875 C-15.9475 11.8575 -14.9575 11.5275 -13.9375 11.1875 C-14.5975 13.4975 -15.2575 15.8075 -15.9375 18.1875 C-16.5975 18.1875 -17.2575 18.1875 -17.9375 18.1875 C-18.2675 19.1775 -18.5975 20.1675 -18.9375 21.1875 C-18.9375 19.5375 -18.9375 17.8875 -18.9375 16.1875 C-20.9175 17.1775 -20.9175 17.1775 -22.9375 18.1875 C-22.2775 18.1875 -21.6175 18.1875 -20.9375 18.1875 C-21.51094937 21.05474686 -21.7989515 22.0489515 -23.9375 24.1875 C-24.39756346 26.39000992 -24.39756346 26.39000992 -24.5625 28.8125 C-24.63726563 29.62976563 -24.71203125 30.44703125 -24.7890625 31.2890625 C-24.86253906 32.22878906 -24.86253906 32.22878906 -24.9375 33.1875 C-25.2675 33.1875 -25.5975 33.1875 -25.9375 33.1875 C-26.35851224 22.9584619 -26.22228628 15.88415474 -19.5625 7.875 C-13.59549665 1.46832272 -8.59147148 0.04584563 0 0 Z " fill="#112441" transform="translate(704.9375,310.8125)"/>
<path d="M0 0 C0 13.86 0 27.72 0 42 C-3.63 42 -7.26 42 -11 42 C-11.90308194 37.48459031 -12.12946607 33.41482507 -12.09765625 28.85546875 C-12.09553383 27.7007885 -12.09553383 27.7007885 -12.09336853 26.52278137 C-12.08779606 24.07764712 -12.07524871 21.63260632 -12.0625 19.1875 C-12.05748144 17.52408987 -12.05291915 15.8606783 -12.04882812 14.19726562 C-12.03783566 10.13147472 -12.0205901 6.06575317 -12 2 C-11.01 3.485 -11.01 3.485 -10 5 C-9.34 4.67 -8.68 4.34 -8 4 C-7.67 5.32 -7.34 6.64 -7 8 C-6.7525 7.4225 -6.505 6.845 -6.25 6.25 C-2.77777778 0 -2.77777778 0 0 0 Z " fill="#0C203E" transform="translate(646,323)"/>
<path d="M0 0 C2.1875 0.3125 2.1875 0.3125 4 1 C5.49048284 5.20842214 5.49048284 5.20842214 5 8 C2.37675337 11.15557911 -0.61598495 13.68588669 -4 16 C-4.66 16 -5.32 16 -6 16 C-6 16.66 -6 17.32 -6 18 C-9.79042353 20.99707907 -12.16075212 22.40327066 -17 22 C-17.66 22.33 -18.32 22.66 -19 23 C-19 22.34 -19 21.68 -19 21 C-19.66 20.34 -20.32 19.68 -21 19 C-19.865625 18.87625 -18.73125 18.7525 -17.5625 18.625 C-16.386875 18.41875 -15.21125 18.2125 -14 18 C-13.67 17.34 -13.34 16.68 -13 16 C-13.99 16.66 -14.98 17.32 -16 18 C-17.66617115 18.04063832 -19.33388095 18.042721 -21 18 C-21.66 18.33 -22.32 18.66 -23 19 C-22.34 17.68 -21.68 16.36 -21 15 C-20.34 15 -19.68 15 -19 15 C-19 14.34 -19 13.68 -19 13 C-18.01 13 -17.02 13 -16 13 C-15.67 11.35 -15.34 9.7 -15 8 C-14.01 7.67 -13.02 7.34 -12 7 C-12 6.34 -12 5.68 -12 5 C-9.33333333 3.66666667 -6.66666667 2.33333333 -4 1 C-3.67 1.66 -3.34 2.32 -3 3 C-2.5875 2.484375 -2.175 1.96875 -1.75 1.4375 C-1.1725 0.963125 -0.595 0.48875 0 0 Z M1 1 C0.67 1.66 0.34 2.32 0 3 C0.66 3 1.32 3 2 3 C1.67 2.34 1.34 1.68 1 1 Z " fill="#112341" transform="translate(276,236)"/>
<path d="M0 0 C0.66 0.99 1.32 1.98 2 3 C2.86625 3.268125 3.7325 3.53625 4.625 3.8125 C10.17513038 5.76532365 14.73285719 9.09928578 18 14 C17.6875 15.9375 17.6875 15.9375 17 18 C16.814375 18.7425 16.62875 19.485 16.4375 20.25 C16.293125 20.8275 16.14875 21.405 16 22 C15.34 22 14.68 22 14 22 C14 22.66 14 23.32 14 24 C8.41365775 22.6288069 5.28611722 19.99410547 1.25 16.125 C0.38568359 15.33029297 0.38568359 15.33029297 -0.49609375 14.51953125 C-3.28508326 11.89957141 -5.62145022 9.65845902 -7 6 C-5.68 6.33 -4.36 6.66 -3 7 C-3.66 5.35 -4.32 3.7 -5 2 C-2 0 -2 0 0 0 Z " fill="#112543" transform="translate(360,206)"/>
<path d="M0 0 C10 0 10 0 13.125 1.5625 C15 4 15 4 15.5625 7.5625 C15 11 15 11 13 12.8125 C12.34 13.204375 11.68 13.59625 11 14 C11 14.66 11 15.32 11 16 C11.66 16 12.32 16 13 16 C15 19 15 19 15 22 C13.35 22 11.7 22 10 22 C7 16.25 7 16.25 7 14 C6.34 14 5.68 14 5 14 C5 16.64 5 19.28 5 22 C3.35 22 1.7 22 0 22 C0 14.74 0 7.48 0 0 Z " fill="#4F5C71" transform="translate(678,386)"/>
<path d="M0 0 C1.65 0 3.3 0 5 0 C5 7.26 5 14.52 5 22 C3.35 22 1.7 22 0 22 C-0.33 20.68 -0.66 19.36 -1 18 C-1.66 18 -2.32 18 -3 18 C-6 12.25 -6 12.25 -6 10 C-6.66 10 -7.32 10 -8 10 C-8 13.96 -8 17.92 -8 22 C-9.32 22 -10.64 22 -12 22 C-12 15.07 -12 8.14 -12 1 C-7 1 -7 1 -5.453125 2.42578125 C-5.05609375 3.04839844 -4.6590625 3.67101562 -4.25 4.3125 C-3.84265625 4.92738281 -3.4353125 5.54226563 -3.015625 6.17578125 C-2 8 -2 8 -1 11 C-0.67 7.37 -0.34 3.74 0 0 Z " fill="#37465B" transform="translate(617,386)"/>
<path d="M0 0 C2.05078125 0.03255208 4.1015625 0.06510417 6.15234375 0.09765625 C6.15234375 0.42765625 6.15234375 0.75765625 6.15234375 1.09765625 C5.07984375 1.22140625 4.00734375 1.34515625 2.90234375 1.47265625 C-0.30610364 2.00739748 -2.08752305 2.57482414 -4.84765625 4.09765625 C-6.17188495 4.46549756 -7.50379537 4.80968606 -8.84765625 5.09765625 C-8.84765625 5.75765625 -8.84765625 6.41765625 -8.84765625 7.09765625 C-7.52765625 6.43765625 -6.20765625 5.77765625 -4.84765625 5.09765625 C-4.40343676 7.67893167 -3.99182502 10.25868409 -3.59765625 12.84765625 C-3.40429688 13.94207031 -3.40429688 13.94207031 -3.20703125 15.05859375 C-2.89453125 17.20703125 -2.89453125 17.20703125 -2.84765625 21.09765625 C-4.80078125 23.48828125 -4.80078125 23.48828125 -6.84765625 25.09765625 C-6.84765625 25.75765625 -6.84765625 26.41765625 -6.84765625 27.09765625 C-7.50765625 27.09765625 -8.16765625 27.09765625 -8.84765625 27.09765625 C-8.84765625 26.43765625 -8.84765625 25.77765625 -8.84765625 25.09765625 C-9.63140625 24.99453125 -10.41515625 24.89140625 -11.22265625 24.78515625 C-13.84765625 24.09765625 -13.84765625 24.09765625 -15.84765625 21.09765625 C-16.52468373 16.08292944 -16.85812034 10.8848857 -13.97265625 6.53515625 C-10.24035502 2.25398719 -8.4934456 1.81621126 -2.84765625 1.09765625 C-1.84765625 0.09765625 -1.84765625 0.09765625 0 0 Z " fill="#172945" transform="translate(748.84765625,311.90234375)"/>
<path d="M0 0 C0.54098792 6.62710199 -0.12675739 10.53189279 -4 16 C-6.24512262 17.12256131 -7.51456649 17.13413762 -10 17.125 C-11.051875 17.12886719 -11.051875 17.12886719 -12.125 17.1328125 C-14 17 -14 17 -16 16 C-17.1845131 12.44646071 -17.26641894 9.72986522 -17 6 C-14.73802592 2.88601569 -12.13931898 2.23700442 -8.5 1.3125 C-7.5409375 1.06113281 -6.581875 0.80976563 -5.59375 0.55078125 C-3 0 -3 0 0 0 Z " fill="#F1F4F6" transform="translate(574,340)"/>
<path d="M0 0 C4.62 0 9.24 0 14 0 C14 1.32 14 2.64 14 4 C11.03 4 8.06 4 5 4 C5 5.65 5 7.3 5 9 C7.97 9 10.94 9 14 9 C14 10.32 14 11.64 14 13 C11.03 13 8.06 13 5 13 C5 14.65 5 16.3 5 18 C8.3 18 11.6 18 15 18 C15 19.32 15 20.64 15 22 C10.05 22 5.1 22 0 22 C0 14.74 0 7.48 0 0 Z " fill="#4D5A6D" transform="translate(655,386)"/>
<path d="M0 0 C2.4375 1.125 2.4375 1.125 4 3 C4.97717908 6.60804584 5.18951523 8.4314543 4 12 C3.34 12 2.68 12 2 12 C1.67 12.99 1.34 13.98 1 15 C-2.05290263 15.29354833 -4.95457539 15.41409388 -8 15 C-11.09623426 12.4323911 -11.85529697 10.88630606 -12.5 6.9375 C-12 4 -12 4 -10.5 1.625 C-6.98135541 -0.66211898 -4.08515412 -0.67946095 0 0 Z " fill="#162847" transform="translate(668,290)"/>
<path d="M0 0 C3.68623011 1.61272567 4.75355 2.630325 7 6 C7 7.65 7 9.3 7 11 C-0.26 11 -7.52 11 -15 11 C-14 4 -14 4 -12.5625 1.5625 C-8.53185404 -0.89521095 -4.59488164 -0.62555925 0 0 Z " fill="#F0F4F6" transform="translate(709,322)"/>
<path d="M0 0 C3.96 0 7.92 0 12 0 C12.33 1.98 12.66 3.96 13 6 C13.48210938 5.566875 13.96421875 5.13375 14.4609375 4.6875 C15.09257813 4.130625 15.72421875 3.57375 16.375 3 C17.00148438 2.443125 17.62796875 1.88625 18.2734375 1.3125 C20 0 20 0 22 0 C22 0.66 22 1.32 22 2 C21.01 2 20.02 2 19 2 C20.32 2.66 21.64 3.32 23 4 C22.01 4.66 21.02 5.32 20 6 C20.33 6.99 20.66 7.98 21 9 C23.64 9.33 26.28 9.66 29 10 C29 10.33 29 10.66 29 11 C28.24074219 11.10957031 27.48148438 11.21914063 26.69921875 11.33203125 C25.70535156 11.49058594 24.71148438 11.64914062 23.6875 11.8125 C22.70136719 11.96332031 21.71523438 12.11414063 20.69921875 12.26953125 C17.80608135 13.05247871 16.73337669 13.59346731 15 16 C13.6811029 19.83442097 13.77628899 23.81768056 13.68359375 27.828125 C13.66281265 28.57713074 13.64203156 29.32613647 13.62062073 30.09783936 C13.55542912 32.48180288 13.49638217 34.86587312 13.4375 37.25 C13.39428584 38.86980254 13.35067063 40.48959443 13.30664062 42.109375 C13.19977904 46.07280832 13.09842667 50.0363486 13 54 C12.67 54 12.34 54 12 54 C11.97531916 48.90967159 11.95714918 43.81937785 11.94506836 38.72900391 C11.94003318 36.99657586 11.93320468 35.26415208 11.92456055 33.53173828 C11.91245935 31.04458567 11.90676362 28.55748913 11.90234375 26.0703125 C11.89718246 25.29317902 11.89202118 24.51604553 11.88670349 23.71536255 C11.88612829 18.22774341 11.88612829 18.22774341 13 16 C12.01 16 11.02 16 10 16 C9.61077082 14.71254964 9.23901964 13.41980403 8.875 12.125 C8.66617188 11.40570313 8.45734375 10.68640625 8.2421875 9.9453125 C8.16226563 9.30335938 8.08234375 8.66140625 8 8 C8.66 7.34 9.32 6.68 10 6 C9.67 5.01 9.34 4.02 9 3 C4.34947128 2.73067479 4.34947128 2.73067479 0 4 C0 2.68 0 1.36 0 0 Z " fill="#4C586F" transform="translate(600,312)"/>
<path d="M0 0 C3 1.8125 3 1.8125 5 4 C5 4.99 5 5.98 5 7 C3.35 7 1.7 7 0 7 C0 6.34 0 5.68 0 5 C-4.455 5.495 -4.455 5.495 -9 6 C-8.34 9.63 -7.68 13.26 -7 17 C-5.02 17 -3.04 17 -1 17 C-0.67 16.34 -0.34 15.68 0 15 C1.65 15 3.3 15 5 15 C5 18 5 18 3 20.1875 C-0.83491209 22.50442605 -3.62803663 22.96958865 -8 22 C-11 20.1875 -11 20.1875 -13 17 C-13.78630096 11.95708905 -13.68964511 7.56737525 -11.625 2.875 C-8.46614581 -0.76983176 -4.54564297 -0.64316937 0 0 Z " fill="#202D43" transform="translate(568,386)"/>
<path d="M0 0 C1.32 0.66 2.64 1.32 4 2 C3.01 2.495 3.01 2.495 2 3 C1.29618843 4.98723268 0.6288189 6.98777953 0 9 C-0.33 9.33 -0.66 9.66 -1 10 C-0.34 10.33 0.32 10.66 1 11 C0 14 0 14 -2 15 C-4.49253376 15.12419345 -6.94490756 15.18515513 -9.4375 15.1875 C-10.11876953 15.19974609 -10.80003906 15.21199219 -11.50195312 15.22460938 C-15.22829809 15.23555848 -16.81991571 15.12005619 -20 13 C-19.6875 10.125 -19.6875 10.125 -19 7 C-15.1496895 4.43312633 -13.41430237 5.16711276 -9 6 C-9 6.66 -9 7.32 -9 8 C-8.34 7.67 -7.68 7.34 -7 7 C-7 6.34 -7 5.68 -7 5 C-6.34 5 -5.68 5 -5 5 C-4.67 4.01 -4.34 3.02 -4 2 C-2.68 2 -1.36 2 0 2 C0 1.34 0 0.68 0 0 Z " fill="#112540" transform="translate(373,351)"/>
<path d="M0 0 C-0.33 3.63 -0.66 7.26 -1 11 C-0.34 11 0.32 11 1 11 C1 9.35 1 7.7 1 6 C1.33 6 1.66 6 2 6 C2 8.97 2 11.94 2 15 C1.01 14.67 0.02 14.34 -1 14 C-1.33 15.11375 -1.66 16.2275 -2 17.375 C-3.02415796 19.84796679 -3.51622564 20.77767372 -5.98046875 21.91015625 C-8.1875 22.4375 -8.1875 22.4375 -12 23 C-12.33 22.34 -12.66 21.68 -13 21 C-11.68 20.34 -10.36 19.68 -9 19 C-9.33 18.01 -9.66 17.02 -10 16 C-10.06802967 14.27204648 -10.08495645 12.54164635 -10.0625 10.8125 C-10.05347656 9.91144531 -10.04445313 9.01039063 -10.03515625 8.08203125 C-10.02355469 7.39496094 -10.01195312 6.70789063 -10 6 C-10.66 6 -11.32 6 -12 6 C-12.33 5.01 -12.66 4.02 -13 3 C-8.545 2.505 -8.545 2.505 -4 2 C-5.32 1.67 -6.64 1.34 -8 1 C-8.33 0.34 -8.66 -0.32 -9 -1 C-4.80410573 -2.16552619 -4.17908064 -2.08954032 0 0 Z " fill="#0F2341" transform="translate(772,341)"/>
<path d="M0 0 C0 0.66 0 1.32 0 2 C1.32 2.33 2.64 2.66 4 3 C5.11503071 8.87925282 5.23373626 11.73020758 2 17 C0.14416121 20.29926896 -0.48805027 23.24570201 -1 27 C-2.41377341 24.36095629 -3.37240135 21.92879371 -4 19 C-4.99 19.66 -5.98 20.32 -7 21 C-6.67 17.7 -6.34 14.4 -6 11 C-6.66 11 -7.32 11 -8 11 C-7.33333333 7.66666667 -6.66666667 4.33333333 -6 1 C-3.92446352 0.4465236 -2.15634036 0 0 0 Z " fill="#112644" transform="translate(348,317)"/>
<path d="M0 0 C4.29 0 8.58 0 13 0 C13 0.99 13 1.98 13 3 C10.03 3 7.06 3 4 3 C4 4.65 4 6.3 4 8 C6.97 8 9.94 8 13 8 C13 9.32 13 10.64 13 12 C10.03 12 7.06 12 4 12 C4 13.65 4 15.3 4 17 C7.3 17 10.6 17 14 17 C14 18.32 14 19.64 14 21 C9.38 21 4.76 21 0 21 C0 14.07 0 7.14 0 0 Z " fill="#2D394F" transform="translate(582,387)"/>
<path d="M0 0 C0.66 0 1.32 0 2 0 C1.67 1.32 1.34 2.64 1 4 C4.22791555 6.1519437 5.28400809 6.20086443 9 6 C5.88265947 11.77922546 1.5498194 15.55441726 -4 19 C-6.708016 19.62676695 -8.22482861 19.4826385 -11 19 C-10.505 17.515 -10.505 17.515 -10 16 C-9.01 16 -8.02 16 -7 16 C-7 15.01 -7 14.02 -7 13 C-7.66 12.67 -8.32 12.34 -9 12 C-9 11.67 -9 11.34 -9 11 C-9.66 10.67 -10.32 10.34 -11 10 C-10.29875 9.649375 -9.5975 9.29875 -8.875 8.9375 C-5.68257321 6.78608195 -3.68989629 4.43065939 -1.33203125 1.42578125 C-0.89246094 0.95527344 -0.45289063 0.48476562 0 0 Z " fill="#112542" transform="translate(302,210)"/>
<path d="M0 0 C0.99 0.495 0.99 0.495 2 1 C1.67 1.66 1.34 2.32 1 3 C1.99 3.33 2.98 3.66 4 4 C4.33 6.64 4.66 9.28 5 12 C5.66 12 6.32 12 7 12 C7.1546875 11.1028125 7.1546875 11.1028125 7.3125 10.1875 C8.09824033 7.68741714 8.96918853 6.62464918 11 5 C11.66 5 12.32 5 13 5 C13.33 4.67 13.66 4.34 14 4 C14.66 4.33 15.32 4.66 16 5 C16 5.66 16 6.32 16 7 C17.65 7.66 19.3 8.32 21 9 C20.01 9.33 19.02 9.66 18 10 C18 11.32 18 12.64 18 14 C17 16.25 17 16.25 16 18 C17.32 18.33 18.64 18.66 20 19 C16.83418192 19.99664643 15.2202659 20.45930075 12 20 C7.1145295 16.92527801 2.11413427 12.88937592 0.375 7.1875 C0 4 0 4 0 0 Z " fill="#243650" transform="translate(680,345)"/>
<path d="M0 0 C0.99 0.33 1.98 0.66 3 1 C3.66 0.67 4.32 0.34 5 0 C5 0.66 5 1.32 5 2 C6.65 1.67 8.3 1.34 10 1 C10 3.31 10 5.62 10 8 C2.84466021 10.60758587 -3.40237976 11.38999191 -11 11 C-10.67 9.68 -10.34 8.36 -10 7 C-12.97 6.505 -12.97 6.505 -16 6 C-16 5.67 -16 5.34 -16 5 C-12.04 5 -8.08 5 -4 5 C-4 5.66 -4 6.32 -4 7 C-3.34 6.34 -2.68 5.68 -2 5 C-2.33 4.34 -2.66 3.68 -3 3 C-2.34 3 -1.68 3 -1 3 C-0.67 2.01 -0.34 1.02 0 0 Z " fill="#0F2240" transform="translate(522,351)"/>
<path d="M0 0 C0.99 0 1.98 0 3 0 C3.19373875 6.33508461 3.37111243 12.67047583 3.53710938 19.00634766 C3.59551194 21.1617266 3.65766184 23.3170074 3.72363281 25.47216797 C3.81780327 28.5698052 3.89849634 31.66754526 3.9765625 34.765625 C4.00875885 35.72929993 4.0409552 36.69297485 4.0741272 37.68585205 C4.10438492 39.03679962 4.10438492 39.03679962 4.13525391 40.41503906 C4.15746002 41.20557678 4.17966614 41.9961145 4.20254517 42.81060791 C3.97449177 45.27572866 3.23160702 46.87172424 2 49 C1.34 49 0.68 49 0 49 C0 32.83 0 16.66 0 0 Z " fill="#0E2141" transform="translate(659,312)"/>
<path d="M0 0 C0.33 0 0.66 0 1 0 C1 16.83 1 33.66 1 51 C4.96 51 8.92 51 13 51 C13 40.11 13 29.22 13 18 C13.66 17.67 14.32 17.34 15 17 C14.67 29.21 14.34 41.42 14 54 C9.38 54 4.76 54 0 54 C0 36.18 0 18.36 0 0 Z " fill="#505D6F" transform="translate(397,312)"/>
<path d="M0 0 C5.28 0 10.56 0 16 0 C16 0.99 16 1.98 16 3 C14.02 3 12.04 3 10 3 C10 8.94 10 14.88 10 21 C8.68 21 7.36 21 6 21 C6 15.06 6 9.12 6 3 C4.02 3 2.04 3 0 3 C0 2.01 0 1.02 0 0 Z " fill="#25344A" transform="translate(630,387)"/>
<path d="M0 0 C0 0.33 0 0.66 0 1 C-1.37671875 1.02126953 -1.37671875 1.02126953 -2.78125 1.04296875 C-10.62758749 1.34792094 -15.82668732 2.08790174 -22 7 C-22.99 7.495 -22.99 7.495 -24 8 C-24.46751788 10.35599235 -24.46751788 10.35599235 -24.625 13.0625 C-24.69976563 13.98160156 -24.77453125 14.90070313 -24.8515625 15.84765625 C-24.90054688 16.55792969 -24.94953125 17.26820313 -25 18 C-28.1325699 16.64449874 -28.9345822 16.10602195 -30.8125 13.0625 C-32 10 -32 10 -31 7 C-22.80503534 -1.45931836 -10.81909143 -0.36242614 0 0 Z " fill="#37435A" transform="translate(576,311)"/>
<path d="M0 0 C0 0.99 0 1.98 0 3 C-0.33 3.33 -0.66 3.66 -1 4 C-1.04063832 5.66617115 -1.042721 7.33388095 -1 9 C0.32 9 1.64 9 3 9 C3.99 9.33 4.98 9.66 6 10 C6 10.99 6 11.98 6 13 C5.34 13 4.68 13 4 13 C4.33 15.97 4.66 18.94 5 22 C2.69 22.33 0.38 22.66 -2 23 C-1.67 24.65 -1.34 26.3 -1 28 C-1.66 28 -2.32 28 -3 28 C-3.33 28.66 -3.66 29.32 -4 30 C-6.50037734 27.82575883 -7.43628586 26.26954202 -8 23 C-6.35 23.33 -4.7 23.66 -3 24 C-2.67 23.01 -2.34 22.02 -2 21 C-1.01 20.34 -0.02 19.68 1 19 C2.2188121 15.44327821 2.2188121 15.44327821 3 12 C2.34 12 1.68 12 1 12 C0.67 13.32 0.34 14.64 0 16 C0 15.01 0 14.02 0 13 C-1.65 13 -3.3 13 -5 13 C-4.49396008 10.83125748 -4.00016187 9.00032373 -3 7 C-4.98 7.99 -4.98 7.99 -7 9 C-5.44499019 5.18315774 -2.96404505 2.80804268 0 0 Z " fill="#172D49" transform="translate(225,275)"/>
<path d="M0 0 C3.3 0 6.6 0 10 0 C10.99 0.99 11.98 1.98 13 3 C12.34 3 11.68 3 11 3 C11.33 4.98 11.66 6.96 12 9 C11.04287109 9.07347656 11.04287109 9.07347656 10.06640625 9.1484375 C9.24011719 9.22320312 8.41382813 9.29796875 7.5625 9.375 C6.73878906 9.44460938 5.91507813 9.51421875 5.06640625 9.5859375 C4.38449219 9.72257812 3.70257812 9.85921875 3 10 C2.67 10.66 2.34 11.32 2 12 C2 9.36 2 6.72 2 4 C1.67 9.94 1.34 15.88 1 22 C0.67 22 0.34 22 0 22 C0 14.74 0 7.48 0 0 Z " fill="#47556B" transform="translate(678,386)"/>
<path d="M0 0 C4.56454251 0.54339792 7.9728176 1.79463821 12 4 C12.34530062 7.71198163 12.25629673 9.57283878 10.3125 12.8125 C7.75031189 15.23619145 6.5013183 15.91022261 3 16 C2.01 15.34 1.02 14.68 0 14 C-0.1875 10.875 -0.1875 10.875 0 8 C0.66 8.33 1.32 8.66 2 9 C2.33 8.01 2.66 7.02 3 6 C3.66 6 4.32 6 5 6 C5 7.32 5 8.64 5 10 C5.99 9.67 6.98 9.34 8 9 C8.73323796 6.98491642 8.73323796 6.98491642 9 5 C8.34 5 7.68 5 7 5 C6.67 5.66 6.34 6.32 6 7 C5.67 5.35 5.34 3.7 5 2 C4.01 2.495 4.01 2.495 3 3 C2.67 3.99 2.34 4.98 2 6 C1.01 6 0.02 6 -1 6 C-0.67 4.02 -0.34 2.04 0 0 Z " fill="#0F2642" transform="translate(321,341)"/>
<path d="M0 0 C0.33 0 0.66 0 1 0 C1 13.86 1 27.72 1 42 C-3.62 42 -8.24 42 -13 42 C-13 40.02 -13 38.04 -13 36 C-12.67 36 -12.34 36 -12 36 C-12 37.65 -12 39.3 -12 41 C-11.67 40.34 -11.34 39.68 -11 39 C-7.7 39 -4.4 39 -1 39 C-1.00523682 37.88963379 -1.01047363 36.77926758 -1.01586914 35.63525391 C-1.03393985 31.52409671 -1.04543962 27.41294304 -1.05493164 23.30175781 C-1.05996711 21.52082733 -1.06679581 19.739901 -1.07543945 17.95898438 C-1.08753942 15.40233335 -1.09323609 12.84573688 -1.09765625 10.2890625 C-1.10281754 9.49005524 -1.10797882 8.69104797 -1.11329651 7.86782837 C-1.11387171 2.22774341 -1.11387171 2.22774341 0 0 Z " fill="#4A566B" transform="translate(647,324)"/>
<path d="M0 0 C7.59 0 15.18 0 23 0 C22.01 0.99 21.02 1.98 20 3 C22.96178773 4.67110042 25.37071192 5.32682752 28.75 5.625 C29.94882812 5.73714844 29.94882812 5.73714844 31.171875 5.8515625 C31.77515625 5.90054687 32.3784375 5.94953125 33 6 C33 6.33 33 6.66 33 7 C22.11 7 11.22 7 0 7 C0 6.01 0 5.02 0 4 C2.97 4 5.94 4 9 4 C9 3.34 9 2.68 9 2 C6.03 1.67 3.06 1.34 0 1 C0 0.67 0 0.34 0 0 Z " fill="#0B1E3B" transform="translate(695,334)"/>
<path d="M0 0 C0 0.66 0 1.32 0 2 C-0.33 2.33 -0.66 2.66 -1 3 C0.32 3.33 1.64 3.66 3 4 C3 4.99 3 5.98 3 7 C2.01 7.495 2.01 7.495 1 8 C2.98 8.66 4.96 9.32 7 10 C7 10.33 7 10.66 7 11 C5.84371094 11.03867187 5.84371094 11.03867187 4.6640625 11.078125 C3.66117187 11.13484375 2.65828125 11.1915625 1.625 11.25 C0.62726563 11.29640625 -0.37046875 11.3428125 -1.3984375 11.390625 C-4.1526477 11.72160885 -4.1526477 11.72160885 -5.3515625 14.046875 C-5.56554687 14.69140625 -5.77953125 15.3359375 -6 16 C-6 15.01 -6 14.02 -6 13 C-6.84188612 11.05270463 -6.84188612 11.05270463 -8 10 C-8.33 10.66 -8.66 11.32 -9 12 C-9.99 11.67 -10.98 11.34 -12 11 C-11 9 -11 9 -8 8 C-7.835 7.34 -7.67 6.68 -7.5 6 C-7.335 5.34 -7.17 4.68 -7 4 C-6.01 3.67 -5.02 3.34 -4 3 C-4 2.34 -4 1.68 -4 1 C-2 0 -2 0 0 0 Z " fill="#2E3F5A" transform="translate(452,312)"/>
<path d="M0 0 C0.33 0 0.66 0 1 0 C1.33 8.58 1.66 17.16 2 26 C3.98 26.66 5.96 27.32 8 28 C7.67 30.64 7.34 33.28 7 36 C-1.57142857 36.28571429 -1.57142857 36.28571429 -5 34 C-5 33.34 -5 32.68 -5 32 C-3.68 32 -2.36 32 -1 32 C-0.67 21.44 -0.34 10.88 0 0 Z " fill="#122646" transform="translate(585,328)"/>
<path d="M0 0 C0.66 0 1.32 0 2 0 C2 13.86 2 27.72 2 42 C-1.96 41.67 -5.92 41.34 -10 41 C-10 40.01 -10 39.02 -10 38 C-6.7 38 -3.4 38 0 38 C0 25.46 0 12.92 0 0 Z " fill="#0F1F37" transform="translate(474,324)"/>
<path d="M0 0 C0.99 0 1.98 0 3 0 C3 1.32 3 2.64 3 4 C4.32 3.67 5.64 3.34 7 3 C7 3.66 7 4.32 7 5 C2.98195309 5.84098656 -0.01803543 6.05404945 -4 5 C-4 5.66 -4 6.32 -4 7 C-6.31 7.33 -8.62 7.66 -11 8 C-11 9.32 -11 10.64 -11 12 C-11.66 12 -12.32 12 -13 12 C-13.33 11.34 -13.66 10.68 -14 10 C-16.52733235 9.34444881 -16.52733235 9.34444881 -19 9 C-18.01958581 6.54896452 -17.3486182 5.23241214 -15.125 3.75 C-13 3 -13 3 -9 3 C-8.67 2.34 -8.34 1.68 -8 1 C-5.69 1 -3.38 1 -1 1 C-1.99 1.66 -2.98 2.32 -4 3 C-2.02 3 -0.04 3 2 3 C2 2.34 2 1.68 2 1 C1.34 0.67 0.68 0.34 0 0 Z M-12 4 C-12.33 4.66 -12.66 5.32 -13 6 C-12.01 6 -11.02 6 -10 6 C-10 5.34 -10 4.68 -10 4 C-10.66 4 -11.32 4 -12 4 Z " fill="#0E2240" transform="translate(566,334)"/>
<path d="M0 0 C0.66 0.99 1.32 1.98 2 3 C5.05429073 4.21284876 5.05429073 4.21284876 8 5 C9.125 9.75 9.125 9.75 8 12 C6.68 11.34 5.36 10.68 4 10 C4 9.34 4 8.68 4 8 C3.2575 8.515625 2.515 9.03125 1.75 9.5625 C-1 11 -1 11 -3.1875 10.9375 C-5.54189724 9.71970832 -6.06045053 8.42716947 -7 6 C-5.68 6.33 -4.36 6.66 -3 7 C-3.66 5.35 -4.32 3.7 -5 2 C-2 0 -2 0 0 0 Z " fill="#0E2340" transform="translate(360,206)"/>
<path d="M0 0 C0 0.66 0 1.32 0 2 C0.99 1.67 1.98 1.34 3 1 C2.34 3.31 1.68 5.62 1 8 C0.34 8 -0.32 8 -1 8 C-1.33 8.99 -1.66 9.98 -2 11 C-2 9.35 -2 7.7 -2 6 C-3.98 6.99 -3.98 6.99 -6 8 C-5.34 8 -4.68 8 -4 8 C-4.57344937 10.86724686 -4.8614515 11.8614515 -7 14 C-7.46006346 16.20250992 -7.46006346 16.20250992 -7.625 18.625 C-7.69976563 19.44226563 -7.77453125 20.25953125 -7.8515625 21.1015625 C-7.92503906 22.04128906 -7.92503906 22.04128906 -8 23 C-8.33 23 -8.66 23 -9 23 C-9.3150042 15.34656456 -9.52609107 8.92158617 -6 2 C-3 0 -3 0 0 0 Z " fill="#112541" transform="translate(688,321)"/>
<path d="M0 0 C1.31611677 0.95336021 2.62778961 1.91285774 3.9375 2.875 C4.66839844 3.40867188 5.39929688 3.94234375 6.15234375 4.4921875 C8 6 8 6 9 8 C7.02 8 5.04 8 3 8 C3 6.68 3 5.36 3 4 C1.35 4.66 -0.3 5.32 -2 6 C-1.34 7.65 -0.68 9.3 0 11 C-0.99 11 -1.98 11 -3 11 C-3 11.99 -3 12.98 -3 14 C-6.3 11.03 -9.6 8.06 -13 5 C-11 4 -9 3 -7 2 C-7 3.32 -7 4.64 -7 6 C-6.34 5.67 -5.68 5.34 -5 5 C-4.67 4.01 -4.34 3.02 -4 2 C-3.67 2.99 -3.34 3.98 -3 5 C-2.34 5 -1.68 5 -1 5 C-1.33 4.01 -1.66 3.02 -2 2 C-1.34 2 -0.68 2 0 2 C0 1.34 0 0.68 0 0 Z " fill="#1F324B" transform="translate(357,202)"/>
<path d="M0 0 C0.33 0 0.66 0 1 0 C1 17.49 1 34.98 1 53 C-2.96 53 -6.92 53 -11 53 C-11 52.01 -11 51.02 -11 50 C-7.37 50 -3.74 50 0 50 C0 33.5 0 17 0 0 Z " fill="#0A1D38" transform="translate(669,312)"/>
<path d="M0 0 C4.29 0 8.58 0 13 0 C13 0.99 13 1.98 13 3 C10.03 3 7.06 3 4 3 C3.22337945 8.99107278 2.57914667 14.98673249 2 21 C1.34 21 0.68 21 0 21 C0 14.07 0 7.14 0 0 Z " fill="#212E47" transform="translate(582,387)"/>
<path d="M0 0 C0.66 0.99 1.32 1.98 2 3 C1.01 3.495 1.01 3.495 0 4 C-0.65213292 6.02463255 -0.65213292 6.02463255 -1 8 C-0.34 8 0.32 8 1 8 C0.91256669 9.91750286 0.8043811 11.83406665 0.6875 13.75 C0.62949219 14.81734375 0.57148438 15.8846875 0.51171875 16.984375 C-0.03388385 20.19968194 -0.73051658 21.69129094 -3 24 C-3.66 24 -4.32 24 -5 24 C-5.44433329 15.34372928 -4.91900508 7.37850762 0 0 Z " fill="#1A2D49" transform="translate(341,320)"/>
<path d="M0 0 C2.96179996 1.37512141 5.42143842 3.00369426 8 5 C8.99 5.66 9.98 6.32 11 7 C10.34 7 9.68 7 9 7 C9 7.66 9 8.32 9 9 C8.01 9 7.02 9 6 9 C5.67 8.34 5.34 7.68 5 7 C2.61915122 6.15701426 2.61915122 6.15701426 0 6 C-0.99 6.66 -1.98 7.32 -3 8 C-2.01 9.485 -2.01 9.485 -1 11 C-1.33 11.66 -1.66 12.32 -2 13 C-4 13 -4 13 -5.6875 11.75 C-7 10 -7 10 -6.9375 8.0625 C-5.73517379 5.41738233 -4.20524279 3.8711151 -2 2 C-1.34 2 -0.68 2 0 2 C0 1.34 0 0.68 0 0 Z " fill="#23344A" transform="translate(738,349)"/>
<path d="M0 0 C2.1875 0.3125 2.1875 0.3125 4 1 C4.33 2.98 4.66 4.96 5 7 C4.29875 7.103125 3.5975 7.20625 2.875 7.3125 C-0.38793059 8.09276601 -3.0218264 9.47782238 -6 11 C-6.66 11 -7.32 11 -8 11 C-8.33 11.99 -8.66 12.98 -9 14 C-9.66 14 -10.32 14 -11 14 C-11 13.34 -11 12.68 -11 12 C-10.34 12 -9.68 12 -9 12 C-8.7525 11.38125 -8.505 10.7625 -8.25 10.125 C-6.79371361 7.64931313 -5.62187494 7.04874998 -3 6 C-3.763125 6.165 -4.52625 6.33 -5.3125 6.5 C-8 7 -8 7 -11 7 C-6.25 2.125 -6.25 2.125 -4 1 C-3.67 1.66 -3.34 2.32 -3 3 C-2.5875 2.484375 -2.175 1.96875 -1.75 1.4375 C-0.88375 0.7259375 -0.88375 0.7259375 0 0 Z M1 1 C0.67 1.66 0.34 2.32 0 3 C0.66 3 1.32 3 2 3 C1.67 2.34 1.34 1.68 1 1 Z " fill="#0B1F3F" transform="translate(276,236)"/>
<path d="M0 0 C1.65 0 3.3 0 5 0 C5.66 1.65 6.32 3.3 7 5 C6.01 4.67 5.02 4.34 4 4 C4 3.01 4 2.02 4 1 C3.01 1 2.02 1 1 1 C1.18415432 3.94091587 1.18415432 3.94091587 2 7 C3.95163118 8.43637698 3.95163118 8.43637698 6 9 C5.34 9 4.68 9 4 9 C4 12.96 4 16.92 4 21 C2.68 21 1.36 21 0 21 C0 14.07 0 7.14 0 0 Z " fill="#243348" transform="translate(605,387)"/>
<path d="M0 0 C1.32 0.33 2.64 0.66 4 1 C4 1.66 4 2.32 4 3 C6.475 3.99 6.475 3.99 9 5 C9 5.99 9 6.98 9 8 C8.01 8.495 8.01 8.495 7 9 C6.67 9.99 6.34 10.98 6 12 C5.34 12 4.68 12 4 12 C4 12.66 4 13.32 4 14 C2.35 14 0.7 14 -1 14 C-0.67 13.34 -0.34 12.68 0 12 C0.99 12.33 1.98 12.66 3 13 C2.814375 12.360625 2.62875 11.72125 2.4375 11.0625 C2.293125 10.381875 2.14875 9.70125 2 9 C2.33 8.67 2.66 8.34 3 8 C0.69 7.67 -1.62 7.34 -4 7 C-3.34 6.21625 -2.68 5.4325 -2 4.625 C0.20201441 2.28487188 0.20201441 2.28487188 0 0 Z " fill="#1B2F4B" transform="translate(764,312)"/>
<path d="M0 0 C1.09570312 0.00902344 2.19140625 0.01804687 3.3203125 0.02734375 C4.16335938 0.03894531 5.00640625 0.05054688 5.875 0.0625 C5.875 0.3925 5.875 0.7225 5.875 1.0625 C4.1734375 1.2790625 4.1734375 1.2790625 2.4375 1.5 C-0.93277201 1.67421478 -0.93277201 1.67421478 -2.125 3.0625 C-4.45797433 3.10342937 -6.79205225 3.10491723 -9.125 3.0625 C-9.125 3.7225 -9.125 4.3825 -9.125 5.0625 C-8.135 5.3925 -7.145 5.7225 -6.125 6.0625 C-6.455 7.3825 -6.785 8.7025 -7.125 10.0625 C-4.485 9.7325 -1.845 9.4025 0.875 9.0625 C0.545 9.7225 0.215 10.3825 -0.125 11.0625 C-2.33984375 11.66015625 -2.33984375 11.66015625 -5.0625 12.125 C-8.71272209 12.73055467 -8.71272209 12.73055467 -12.125 14.0625 C-11.795 11.4225 -11.465 8.7825 -11.125 6.0625 C-11.785 5.7325 -12.445 5.4025 -13.125 5.0625 C-8.29048428 1.11855297 -6.25284952 -0.06651968 0 0 Z " fill="#25364F" transform="translate(426.125,310.9375)"/>
<path d="M0 0 C1.02019573 0.9793879 2.02149805 1.97895449 3 3 C3.66 3 4.32 3 5 3 C4.67 4.65 4.34 6.3 4 8 C3 8 2 8 1 8 C0.67 8.66 0.34 9.32 0 10 C-0.99 9.67 -1.98 9.34 -3 9 C-3 8.01 -3 7.02 -3 6 C-3.99 6.66 -4.98 7.32 -6 8 C-6.66 7.67 -7.32 7.34 -8 7 C-7.67 5.02 -7.34 3.04 -7 1 C-4.50935112 0.31292445 -2.62113708 0 0 0 Z " fill="#0C203F" transform="translate(352,199)"/>
<path d="M0 0 C3 1.8125 3 1.8125 5 4 C5 4.99 5 5.98 5 7 C3.35 7 1.7 7 0 7 C0 6.34 0 5.68 0 5 C-2.64 5.33 -5.28 5.66 -8 6 C-7.67 4.68 -7.34 3.36 -7 2 C-9.475 3.485 -9.475 3.485 -12 5 C-9.47339745 -0.59461994 -5.88442635 -0.8325957 0 0 Z " fill="#3A4259" transform="translate(568,386)"/>
<path d="M0 0 C6.27 0.66 12.54 1.32 19 2 C15.1952061 4.53652927 11.86280401 4.48551517 7.4375 4.6875 C6.65697266 4.73455078 5.87644531 4.78160156 5.07226562 4.83007812 C-0.72916667 5.13541667 -0.72916667 5.13541667 -3 4 C-3.66 5.65 -4.32 7.3 -5 9 C-5.66 8.67 -6.32 8.34 -7 8 C-7 6.35 -7 4.7 -7 3 C-3.535 2.505 -3.535 2.505 0 2 C0 1.34 0 0.68 0 0 Z " fill="#0D1F3C" transform="translate(293,353)"/>
<path d="M0 0 C0.66 0.99 1.32 1.98 2 3 C4.56282742 3.72965366 4.56282742 3.72965366 7 4 C7 4.99 7 5.98 7 7 C8.32 6.34 9.64 5.68 11 5 C11.33 5.33 11.66 5.66 12 6 C14.33944736 5.71269945 16.6739143 5.38063221 19 5 C18.34 5.78375 17.68 6.5675 17 7.375 C14.79798559 9.71512812 14.79798559 9.71512812 15 12 C8.88289668 10.32799176 4.51912013 8.51912013 0 4 C-0.33 3.01 -0.66 2.02 -1 1 C-0.67 0.67 -0.34 0.34 0 0 Z " fill="#263551" transform="translate(280,354)"/>
<path d="M0 0 C1.65 0 3.3 0 5 0 C3.515 1.485 3.515 1.485 2 3 C2.99 4.485 2.99 4.485 4 6 C3.67 6.66 3.34 7.32 3 8 C2.34 8 1.68 8 1 8 C1.33 9.32 1.66 10.64 2 12 C1.34 12 0.68 12 0 12 C0 11.34 0 10.68 0 10 C-1.32 10.33 -2.64 10.66 -4 11 C-4.80967438 8.08517222 -5.21845993 6.53886783 -4.0625 3.6875 C-3.711875 3.130625 -3.36125 2.57375 -3 2 C-2.01 2 -1.02 2 0 2 C0 1.34 0 0.68 0 0 Z " fill="#0D2245" transform="translate(324,192)"/>
<path d="M0 0 C0.99 0.33 1.98 0.66 3 1 C2.01 1.495 2.01 1.495 1 2 C0.67 2.99 0.34 3.98 0 5 C-0.33 4.34 -0.66 3.68 -1 3 C-0.67 2.01 -0.34 1.02 0 0 Z M-5 1 C-3.2856382 2.95927063 -1.61594832 4.95880212 0 7 C-4.75 5.125 -4.75 5.125 -7 4 C-7 4.66 -7 5.32 -7 6 C-6.01 6.33 -5.02 6.66 -4 7 C-3.67 7.99 -3.34 8.98 -3 10 C-2.34 10.33 -1.68 10.66 -1 11 C-1.33 11.99 -1.66 12.98 -2 14 C-5.3 11.03 -8.6 8.06 -12 5 C-7 1 -7 1 -5 1 Z " fill="#253349" transform="translate(369,213)"/>
<path d="M0 0 C0.66 0.33 1.32 0.66 2 1 C5.57595776 0.99113765 9.14119026 0.86783819 12.71484375 0.7421875 C16 1 16 1 17.94140625 2.5078125 C18.29074219 3.00023437 18.64007812 3.49265625 19 4 C18.67 4.66 18.34 5.32 18 6 C19.32 6.33 20.64 6.66 22 7 C21.34 8.32 20.68 9.64 20 11 C19.401875 10.030625 18.80375 9.06125 18.1875 8.0625 C16.28872491 4.76947958 16.28872491 4.76947958 13 4 C8.82976082 3.8455467 5.05853682 4.01611229 1 5 C0.67 6.32 0.34 7.64 0 9 C-1.53445094 5.93109813 -0.54984289 3.29905734 0 0 Z " fill="#25354A" transform="translate(503,319)"/>
<path d="M0 0 C0 0.66 0 1.32 0 2 C-0.99 2 -1.98 2 -3 2 C-1.68 2.66 -0.36 3.32 1 4 C0.01 4.66 -0.98 5.32 -2 6 C-1.67 6.99 -1.34 7.98 -1 9 C1.64 9.33 4.28 9.66 7 10 C7 10.33 7 10.66 7 11 C2.71 11.66 -1.58 12.32 -6 13 C-6 10.69 -6 8.38 -6 6 C-7.98 6.99 -7.98 6.99 -10 8 C-9.04578192 6.85073734 -8.08647955 5.70569459 -7.125 4.5625 C-6.59132813 3.92441406 -6.05765625 3.28632813 -5.5078125 2.62890625 C-3.68057607 0.65492285 -2.70796331 0 0 0 Z " fill="#4A5970" transform="translate(622,312)"/>
<path d="M0 0 C1.65 0 3.3 0 5 0 C5 3 5 3 3 5.1875 C-1.07079624 7.64693939 -3.29672611 7.4626171 -8 7 C-8.66 6.34 -9.32 5.68 -10 5 C-9.01 5 -8.02 5 -7 5 C-7 4.34 -7 3.68 -7 3 C-6.030625 2.87625 -5.06125 2.7525 -4.0625 2.625 C-2.5465625 2.315625 -2.5465625 2.315625 -1 2 C-0.67 1.34 -0.34 0.68 0 0 Z " fill="#354354" transform="translate(568,401)"/>
<path d="M0 0 C-0.99 1.485 -0.99 1.485 -2 3 C-1.649375 3.556875 -1.29875 4.11375 -0.9375 4.6875 C0.21845993 7.53886783 -0.19032562 9.08517222 -1 12 C-4.17119503 10.90648447 -5.00783543 9.9873012 -6.8125 7.0625 C-8 4 -8 4 -7 1 C-2.55696203 -1.27848101 -2.55696203 -1.27848101 0 0 Z " fill="#152640" transform="translate(552,317)"/>
<path d="M0 0 C4.29 0 8.58 0 13 0 C13 2.97 13 5.94 13 9 C12.67 9 12.34 9 12 9 C12 6.36 12 3.72 12 1 C9.35149716 1.61509762 6.70660095 2.24149408 4.0625 2.875 C3.30775391 3.04902344 2.55300781 3.22304688 1.77539062 3.40234375 C-0.16593545 3.87244065 -2.08549544 4.4304297 -4 5 C-4.33 5.66 -4.66 6.32 -5 7 C-5 6.34 -5 5.68 -5 5 C-5.66 5 -6.32 5 -7 5 C-7 4.34 -7 3.68 -7 3 C-3.535 2.505 -3.535 2.505 0 2 C0 1.34 0 0.68 0 0 Z " fill="#3E4B5E" transform="translate(562,339)"/>
<path d="M0 0 C1.26328125 0.01804687 2.5265625 0.03609375 3.828125 0.0546875 C4.79234375 0.07789063 5.7565625 0.10109375 6.75 0.125 C6.75 0.455 6.75 0.785 6.75 1.125 C6.15832031 1.15078125 5.56664062 1.1765625 4.95703125 1.203125 C-0.5046465 1.59515407 -3.03338878 2.4782011 -7.25 6.125 C-10.5625 6.875 -10.5625 6.875 -13.25 7.125 C-13.58 6.465 -13.91 5.805 -14.25 5.125 C-9.90808247 0.34889072 -6.39649445 -0.1184536 0 0 Z " fill="#333F58" transform="translate(517.25,310.875)"/>
<path d="M0 0 C0.33 0 0.66 0 1 0 C1.33 3.3 1.66 6.6 2 10 C4.64 10.33 7.28 10.66 10 11 C10 11.33 10 11.66 10 12 C8.02 12 6.04 12 4 12 C4 12.99 4 13.98 4 15 C4.66 15.66 5.32 16.32 6 17 C4.35 17 2.7 17 1 17 C0.67 16.01 0.34 15.02 0 14 C-0.66 13.67 -1.32 13.34 -2 13 C-1.34 8.71 -0.68 4.42 0 0 Z " fill="#293B53" transform="translate(556,346)"/>
<path d="M0 0 C11.52164009 -0.55353075 11.52164009 -0.55353075 17 3 C17 4.65 17 6.3 17 8 C16.01 7.34 15.02 6.68 14 6 C14.33 5.34 14.66 4.68 15 4 C10.05 3.67 5.1 3.34 0 3 C0 2.01 0 1.02 0 0 Z " fill="#1F3148" transform="translate(624,311)"/>
<path d="M0 0 C2 2 2 2 2.125 5.125 C2.08375 6.07375 2.0425 7.0225 2 8 C2.66 8 3.32 8 4 8 C3.67 11.96 3.34 15.92 3 20 C2.01 20 1.02 20 0 20 C0 13.4 0 6.8 0 0 Z " fill="#0A1C35" transform="translate(679,388)"/>
<path d="M0 0 C0.33 0 0.66 0 1 0 C1.33 8.58 1.66 17.16 2 26 C3.98 26.66 5.96 27.32 8 28 C7.67 29.32 7.34 30.64 7 32 C7 31.34 7 30.68 7 30 C5.35 30.66 3.7 31.32 2 32 C-0.19629783 28.45856475 -0.23275752 25.60332753 -0.1953125 21.484375 C-0.18886719 20.23398437 -0.18242188 18.98359375 -0.17578125 17.6953125 C-0.15902344 16.39335937 -0.14226563 15.09140625 -0.125 13.75 C-0.11597656 12.43257813 -0.10695313 11.11515625 -0.09765625 9.7578125 C-0.07408533 6.50502538 -0.04118022 3.25260411 0 0 Z " fill="#0B1A34" transform="translate(585,328)"/>
<path d="M0 0 C0.99 0.33 1.98 0.66 3 1 C2.01 1.33 1.02 1.66 0 2 C0.33 2.66 0.66 3.32 1 4 C1.99 3.67 2.98 3.34 4 3 C3.67 3.99 3.34 4.98 3 6 C2.01 6.33 1.02 6.66 0 7 C0.66 7.66 1.32 8.32 2 9 C-0.31 9.66 -2.62 10.32 -5 11 C-5.3125 8.3125 -5.3125 8.3125 -5 5 C-2.5 2.125 -2.5 2.125 0 0 Z " fill="#0C1E3D" transform="translate(228,274)"/>
<path d="M0 0 C0.22429688 0.64453125 0.44859375 1.2890625 0.6796875 1.953125 C1.82889456 4.24388852 1.82889456 4.24388852 4.3828125 4.609375 C5.74019531 4.67898438 5.74019531 4.67898438 7.125 4.75 C8.03507813 4.80671875 8.94515625 4.8634375 9.8828125 4.921875 C10.58148437 4.94765625 11.28015625 4.9734375 12 5 C12 5.99 12 6.98 12 8 C7.71 8 3.42 8 -1 8 C-1 2 -1 2 0 0 Z " fill="#1A273D" transform="translate(657,400)"/>
<path d="M0 0 C-0.66 0 -1.32 0 -2 0 C-1.67 1.98 -1.34 3.96 -1 6 C-3.64 6 -6.28 6 -9 6 C-9 4.35 -9 2.7 -9 1 C-3.375 -1.125 -3.375 -1.125 0 0 Z " fill="#526174" transform="translate(691,389)"/>
<path d="M0 0 C2.31 0.33 4.62 0.66 7 1 C6.67 2.65 6.34 4.3 6 6 C5.01 5.67 4.02 5.34 3 5 C2.34 7.97 1.68 10.94 1 14 C0.67 14 0.34 14 0 14 C0 11.69 0 9.38 0 7 C-0.99 7 -1.98 7 -3 7 C-3.33 5.68 -3.66 4.36 -4 3 C-3.01 3.33 -2.02 3.66 -1 4 C-0.67 2.68 -0.34 1.36 0 0 Z " fill="#082242" transform="translate(717,318)"/>
<path d="M0 0 C0.66 0 1.32 0 2 0 C2 0.66 2 1.32 2 2 C3.65 1.34 5.3 0.68 7 0 C7 0.99 7 1.98 7 3 C3.24621603 6.05540556 0.83543385 7.40295282 -4 7 C-4.99 7.495 -4.99 7.495 -6 8 C-6 7.34 -6 6.68 -6 6 C-6.66 5.34 -7.32 4.68 -8 4 C-4.535 3.505 -4.535 3.505 -1 3 C-0.67 2.01 -0.34 1.02 0 0 Z " fill="#172740" transform="translate(263,251)"/>
<path d="M0 0 C0.33 0 0.66 0 1 0 C1.33 4.62 1.66 9.24 2 14 C2.33 14 2.66 14 3 14 C3.33 16.64 3.66 19.28 4 22 C1.37886292 22 -0.50935112 21.68707555 -3 21 C-2.52433594 19.75863281 -2.52433594 19.75863281 -2.0390625 18.4921875 C-0.90524027 14.68152181 -0.55838311 11.06773688 -0.375 7.125 C-0.33632813 6.43664062 -0.29765625 5.74828125 -0.2578125 5.0390625 C-0.16451834 3.35976754 -0.08121762 1.67992233 0 0 Z " fill="#424E67" transform="translate(524,331)"/>
<path d="M0 0 C0.33 0.99 0.66 1.98 1 3 C1.99 2.01 2.98 1.02 4 0 C4.66 0.33 5.32 0.66 6 1 C6 1.99 6 2.98 6 4 C5.01 4.495 5.01 4.495 4 5 C3.01 6.485 3.01 6.485 2 8 C2 7.34 2 6.68 2 6 C1.34 6 0.68 6 0 6 C0.33 6.99 0.66 7.98 1 9 C0.01 9 -0.98 9 -2 9 C-3.35439668 6.29120665 -3.06501451 3.99066732 -3 1 C-2.01 0.67 -1.02 0.34 0 0 Z " fill="#152943" transform="translate(659,293)"/>
<path d="M0 0 C-3.75 1.125 -3.75 1.125 -6 0 C-6 0.66 -6 1.32 -6 2 C-5.34 2 -4.68 2 -4 2 C-4 3.32 -4 4.64 -4 6 C-4.99 6.33 -5.98 6.66 -7 7 C-6.01 7.66 -5.02 8.32 -4 9 C-6.97 8.505 -6.97 8.505 -10 8 C-10.93423645 4.98968256 -11.04449911 4.13349732 -10 1 C-6.1496895 -1.56687367 -4.41430237 -0.83288724 0 0 Z " fill="#0A1E38" transform="translate(364,357)"/>
<path d="M0 0 C0.99 0 1.98 0 3 0 C3.66 0.99 4.32 1.98 5 3 C5.66 3 6.32 3 7 3 C7 4.65 7 6.3 7 8 C5.68 8 4.36 8 3 8 C3 6.68 3 5.36 3 4 C2.34 4 1.68 4 1 4 C0.67 5.32 0.34 6.64 0 8 C-0.33 7.67 -0.66 7.34 -1 7 C-1.66 7.66 -2.32 8.32 -3 9 C-3.33 8.01 -3.66 7.02 -4 6 C-3.525625 5.566875 -3.05125 5.13375 -2.5625 4.6875 C-0.76313043 2.97690387 -0.76313043 2.97690387 0 0 Z " fill="#0D1E3D" transform="translate(323,343)"/>
<path d="M0 0 C0 0.99 0 1.98 0 3 C-0.66 3 -1.32 3 -2 3 C-2.0825 3.61875 -2.165 4.2375 -2.25 4.875 C-3 7 -3 7 -5.0625 8.25 C-5.701875 8.4975 -6.34125 8.745 -7 9 C-7 8.34 -7 7.68 -7 7 C-7.99 7.33 -8.98 7.66 -10 8 C-10.66 7.34 -11.32 6.68 -12 6 C-11.34 6 -10.68 6 -10 6 C-9.34 4.68 -8.68 3.36 -8 2 C-7.01 2 -6.02 2 -5 2 C-5 2.99 -5 3.98 -5 5 C-4.34 5 -3.68 5 -3 5 C-2.87625 4.360625 -2.7525 3.72125 -2.625 3.0625 C-2.41875 2.381875 -2.2125 1.70125 -2 1 C-1.34 0.67 -0.68 0.34 0 0 Z " fill="#2C3E55" transform="translate(386,353)"/>
<path d="M0 0 C0.33 0.99 0.66 1.98 1 3 C1.66 2.34 2.32 1.68 3 1 C6.625 0.875 6.625 0.875 10 1 C7.98928293 2.57984913 6.11803264 3.94266986 3.8125 5.0625 C1.82107843 5.86702161 1.82107843 5.86702161 1 8 C0.34 8 -0.32 8 -1 8 C-1.66 7.01 -2.32 6.02 -3 5 C-3.99 5 -4.98 5 -6 5 C-4.68 4.34 -3.36 3.68 -2 3 C-2 2.34 -2 1.68 -2 1 C-1.34 0.67 -0.68 0.34 0 0 Z " fill="#223752" transform="translate(266,240)"/>
<path d="M0 0 C4.92980953 2.00844092 8.09403383 5.64105074 11 10 C11.125 12.6875 11.125 12.6875 11 15 C10.34 15 9.68 15 9 15 C7.50178941 11.62902617 7 9.79557881 7 6 C6.01 6.33 5.02 6.66 4 7 C2.02 3.535 2.02 3.535 0 0 Z " fill="#334257" transform="translate(717,313)"/>
<path d="M0 0 C2.475 0.99 2.475 0.99 5 2 C5 3.98 5 5.96 5 8 C4.01 7.67 3.02 7.34 2 7 C1.67 7.66 1.34 8.32 1 9 C0.484375 8.690625 -0.03125 8.38125 -0.5625 8.0625 C-3.66665423 6.70940713 -6.65115007 6.38640576 -10 6 C-10 5.67 -10 5.34 -10 5 C-4.555 4.505 -4.555 4.505 1 4 C0.67 2.68 0.34 1.36 0 0 Z " fill="#344861" transform="translate(712,316)"/>
<path d="M0 0 C2 3 2 3 2.5 5.0625 C2.88197631 7.22063299 2.88197631 7.22063299 5 9 C3.06745228 11.0245738 1.36841312 12.42105792 -1 14 C-1.02694851 12.04174127 -1.04637218 10.08337774 -1.0625 8.125 C-1.07410156 7.03445313 -1.08570313 5.94390625 -1.09765625 4.8203125 C-1 2 -1 2 0 0 Z " fill="#2E3B54" transform="translate(217,284)"/>
<path d="M0 0 C3.8063457 0.67170806 7.35206816 1.72746564 11 3 C8 5 8 5 5 6 C5 6.66 5 7.32 5 8 C3.68 7.67 2.36 7.34 1 7 C1.33 6.34 1.66 5.68 2 5 C1.34 4.67 0.68 4.34 0 4 C0.66 3.01 1.32 2.02 2 1 C1.34 0.67 0.68 0.34 0 0 Z " fill="#0F213C" transform="translate(696,354)"/>
<path d="M0 0 C1.24546405 2.49092811 0.7767578 3.41080733 0 6 C0.66 6 1.32 6 2 6 C1.42655063 8.86724686 1.1385485 9.8614515 -1 12 C-1.46006346 14.20250992 -1.46006346 14.20250992 -1.625 16.625 C-1.69976563 17.44226563 -1.77453125 18.25953125 -1.8515625 19.1015625 C-1.92503906 20.04128906 -1.92503906 20.04128906 -2 21 C-2.33 21 -2.66 21 -3 21 C-3.31806054 13.2723068 -3.32270836 7.06075526 0 0 Z " fill="#39475B" transform="translate(682,323)"/>
<path d="M0 0 C0.99 0.33 1.98 0.66 3 1 C3 1.66 3 2.32 3 3 C4.32 3.33 5.64 3.66 7 4 C6.67 4.66 6.34 5.32 6 6 C7.32 6.33 8.64 6.66 10 7 C8 8 8 8 5.72265625 7.328125 C4.84480469 6.97234375 3.96695313 6.6165625 3.0625 6.25 C1.74958984 5.73179687 1.74958984 5.73179687 0.41015625 5.203125 C-1.91270902 4.04357475 -3.30910739 2.94201527 -5 1 C-3.68 1 -2.36 1 -1 1 C-1 1.66 -1 2.32 -1 3 C-0.34 3 0.32 3 1 3 C0.67 2.01 0.34 1.02 0 0 Z " fill="#35455A" transform="translate(741,336)"/>
<path d="M0 0 C3.96 0 7.92 0 12 0 C12 2.64 12 5.28 12 8 C11.34 8 10.68 8 10 8 C10 6.35 10 4.7 10 3 C8.72125 2.979375 7.4425 2.95875 6.125 2.9375 C5.40570312 2.92589844 4.68640625 2.91429687 3.9453125 2.90234375 C1.91814596 2.87350758 1.91814596 2.87350758 0 4 C0 2.68 0 1.36 0 0 Z " fill="#1E2D41" transform="translate(600,312)"/>
<path d="M0 0 C0.99 0 1.98 0 3 0 C3 0.99 3 1.98 3 3 C3.99 3.33 4.98 3.66 6 4 C6 5.32 6 6.64 6 8 C6.66 8 7.32 8 8 8 C7.67 8.66 7.34 9.32 7 10 C6.34 9.67 5.68 9.34 5 9 C5 8.34 5 7.68 5 7 C3.35 7 1.7 7 0 7 C0 4.69 0 2.38 0 0 Z " fill="#0C1D38" transform="translate(606,388)"/>
<path d="M0 0 C0.33 0 0.66 0 1 0 C1.16947579 1.41633336 1.33545507 2.83308533 1.5 4.25 C1.5928125 5.03890625 1.685625 5.8278125 1.78125 6.640625 C2.00949995 9.1024638 2 11.52637945 2 14 C0.35 14 -1.3 14 -3 14 C-3 13.34 -3 12.68 -3 12 C-2.34 12 -1.68 12 -1 12 C-1 11.01 -1 10.02 -1 9 C-1.66 9 -2.32 9 -3 9 C-2.44271087 5.65626525 -1.64826111 2.96687001 0 0 Z " fill="#0B1F3B" transform="translate(554,347)"/>
<path d="M0 0 C0.99 0.33 1.98 0.66 3 1 C3 1.99 3 2.98 3 4 C1.35 4 -0.3 4 -2 4 C-2 3.34 -2 2.68 -2 2 C-8.93 2 -15.86 2 -23 2 C-23 1.67 -23 1.34 -23 1 C-22.3387915 1.00523682 -21.67758301 1.01047363 -20.99633789 1.01586914 C-18.01840149 1.03657656 -15.04048018 1.04964012 -12.0625 1.0625 C-11.02158203 1.07087891 -9.98066406 1.07925781 -8.90820312 1.08789062 C-7.91884766 1.09111328 -6.92949219 1.09433594 -5.91015625 1.09765625 C-4.99371338 1.10289307 -4.07727051 1.10812988 -3.13305664 1.11352539 C-1.01636977 1.23921211 -1.01636977 1.23921211 0 0 Z " fill="#192C48" transform="translate(253,298)"/>
<path d="M0 0 C3.96 0 7.92 0 12 0 C12 0.66 12 1.32 12 2 C7.545 2.495 7.545 2.495 3 3 C2.67 4.32 2.34 5.64 2 7 C1.34 7 0.68 7 0 7 C0 4.69 0 2.38 0 0 Z " fill="#13203A" transform="translate(656,387)"/>
<path d="M0 0 C0.66 0 1.32 0 2 0 C2.05422947 1.4370809 2.09289723 2.87475462 2.125 4.3125 C2.14820313 5.11300781 2.17140625 5.91351563 2.1953125 6.73828125 C2 9 2 9 0 12 C-1.32 12 -2.64 12 -4 12 C-4 11.34 -4 10.68 -4 10 C-5.98 10 -7.96 10 -10 10 C-10 9.67 -10 9.34 -10 9 C-6.7 8.34 -3.4 7.68 0 7 C0 4.69 0 2.38 0 0 Z " fill="#3A495E" transform="translate(760,347)"/>
<path d="M0 0 C0.66 0.99 1.32 1.98 2 3 C0.96692156 7.47667325 -1.33716727 9.39746095 -5 12 C-7 11 -7 11 -8 9 C-6.35 9 -4.7 9 -3 9 C-2.814375 7.88625 -2.814375 7.88625 -2.625 6.75 C-2.04513299 4.19858515 -1.26291261 2.2732427 0 0 Z " fill="#233148" transform="translate(771,353)"/>
<path d="M0 0 C4.56454251 0.54339792 7.9728176 1.79463821 12 4 C12 4.33 12 4.66 12 5 C10.35 5 8.7 5 7 5 C6.67 5.66 6.34 6.32 6 7 C5.67 5.35 5.34 3.7 5 2 C4.01 2.495 4.01 2.495 3 3 C2.67 3.99 2.34 4.98 2 6 C1.01 6 0.02 6 -1 6 C-0.67 4.02 -0.34 2.04 0 0 Z " fill="#4A556B" transform="translate(321,341)"/>
<path d="M0 0 C-0.99 0.495 -0.99 0.495 -2 1 C-2 1.66 -2 2.32 -2 3 C-2.61875 3.28875 -3.2375 3.5775 -3.875 3.875 C-6.13325765 4.93720042 -6.13325765 4.93720042 -8 7 C-8.33 6.01 -8.66 5.02 -9 4 C-9.66 4 -10.32 4 -11 4 C-10.67 3.01 -10.34 2.02 -10 1 C-6.78548731 -0.60725635 -3.56387464 -0.05748185 0 0 Z " fill="#25324B" transform="translate(668,290)"/>
<path d="M0 0 C0.66 0.33 1.32 0.66 2 1 C1.0919838 2.13199353 0.17316174 3.25532363 -0.75 4.375 C-1.26046875 5.00148437 -1.7709375 5.62796875 -2.296875 6.2734375 C-4 8 -4 8 -6.140625 9.0390625 C-8.35790369 9.91104318 -8.35790369 9.91104318 -9 13 C-10.65 13.33 -12.3 13.66 -14 14 C-14 13.34 -14 12.68 -14 12 C-12.28048026 10.46148234 -10.49812503 8.99268241 -8.6875 7.5625 C-4.15615016 3.98901832 -4.15615016 3.98901832 0 0 Z " fill="#465165" transform="translate(300,210)"/>
<path d="M0 0 C3.86107457 2.57404971 3.94319692 4.61020259 5 9 C4.34 9 3.68 9 3 9 C3 9.66 3 10.32 3 11 C3.66 11 4.32 11 5 11 C4.67 11.99 4.34 12.98 4 14 C4 13.34 4 12.68 4 12 C3.34 12 2.68 12 2 12 C1.01 9.69 0.02 7.38 -1 5 C-0.67 4.67 -0.34 4.34 0 4 C0 2.68 0 1.36 0 0 Z " fill="#344459" transform="translate(612,392)"/>
<path d="M0 0 C0.5625 1.9375 0.5625 1.9375 1 4 C0.67 4.33 0.34 4.66 0 5 C-0.07179964 6.51928038 -0.08392007 8.04167482 -0.0625 9.5625 C-0.05347656 10.38878906 -0.04445313 11.21507812 -0.03515625 12.06640625 C-0.02355469 12.70449219 -0.01195312 13.34257812 0 14 C0.99 14 1.98 14 3 14 C3 14.99 3 15.98 3 17 C2.34 17 1.68 17 1 17 C0.67 17.66 0.34 18.32 0 19 C-2.38081145 15.42878282 -2.26906871 13.73325367 -2.25 9.5 C-2.25773438 7.78296875 -2.25773438 7.78296875 -2.265625 6.03125 C-2 3 -2 3 0 0 Z " fill="#39465D" transform="translate(545,341)"/>
<path d="M0 0 C0.99 0.33 1.98 0.66 3 1 C2.67 3.64 2.34 6.28 2 9 C1.67 9 1.34 9 1 9 C0.67 10.98 0.34 12.96 0 15 C-0.33 15 -0.66 15 -1 15 C-1.02685412 12.68756208 -1.04632841 10.3750373 -1.0625 8.0625 C-1.07410156 6.77472656 -1.08570313 5.48695313 -1.09765625 4.16015625 C-1 1 -1 1 0 0 Z " fill="#0C203E" transform="translate(347,329)"/>
<path d="M0 0 C1.8871875 0.0309375 1.8871875 0.0309375 3.8125 0.0625 C2.8225 1.5475 2.8225 1.5475 1.8125 3.0625 C1.8125 4.0525 1.8125 5.0425 1.8125 6.0625 C-2.05882028 5.48897107 -4.26922796 3.57545648 -7.1875 1.0625 C-4.43671116 0.14557039 -2.82801087 -0.04636083 0 0 Z " fill="#0B203A" transform="translate(765.1875,318.9375)"/>
<path d="M0 0 C2.97 0.495 2.97 0.495 6 1 C6 2.32 6 3.64 6 5 C5.34 5 4.68 5 4 5 C3.67 5.99 3.34 6.98 3 8 C1.68 8 0.36 8 -1 8 C-0.649375 7.05125 -0.29875 6.1025 0.0625 5.125 C1.35026777 2.12939828 1.35026777 2.12939828 0 0 Z " fill="#162940" transform="translate(410,253)"/>
<path d="M0 0 C3.465 1.98 3.465 1.98 7 4 C7 4.66 7 5.32 7 6 C7.61875 6.2475 8.2375 6.495 8.875 6.75 C11.35068687 8.20628639 11.95125002 9.37812506 13 12 C9.08158173 10.69386058 6.67359191 9.16870152 4 6 C4 5.34 4 4.68 4 4 C3.01 4 2.02 4 1 4 C0.67 2.68 0.34 1.36 0 0 Z " fill="#3C495E" transform="translate(403,242)"/>
<path d="M0 0 C0 0.33 0 0.66 0 1 C-1.65 1 -3.3 1 -5 1 C-5 1.66 -5 2.32 -5 3 C-3.68 3.33 -2.36 3.66 -1 4 C-1 4.33 -1 4.66 -1 5 C-3.31 5.33 -5.62 5.66 -8 6 C-7.67 4.68 -7.34 3.36 -7 2 C-9.475 3.485 -9.475 3.485 -12 5 C-9.28085049 -1.02097391 -6.0998139 -0.0983841 0 0 Z " fill="#6D768A" transform="translate(568,386)"/>
<path d="M0 0 C1.32 0 2.64 0 4 0 C4 0.99 4 1.98 4 3 C3.01 3.495 3.01 3.495 2 4 C1.67 4.99 1.34 5.98 1 7 C0.34 7 -0.32 7 -1 7 C-1 7.66 -1 8.32 -1 9 C-2.65 9 -4.3 9 -6 9 C-5.67 8.34 -5.34 7.68 -5 7 C-4.01 7.33 -3.02 7.66 -2 8 C-2.33 6.68 -2.66 5.36 -3 4 C-2.01 3.67 -1.02 3.34 0 3 C0 2.01 0 1.02 0 0 Z " fill="#3C485C" transform="translate(769,317)"/>
<path d="M0 0 C3.96 0 7.92 0 12 0 C10.68 0.33 9.36 0.66 8 1 C8 1.66 8 2.32 8 3 C8.99 3.33 9.98 3.66 11 4 C10.34 4 9.68 4 9 4 C9 4.66 9 5.32 9 6 C7.68 5.67 6.36 5.34 5 5 C5.33 4.01 5.66 3.02 6 2 C3.03 1.505 3.03 1.505 0 1 C0 0.67 0 0.34 0 0 Z " fill="#0B1C38" transform="translate(506,356)"/>
<path d="M0 0 C0 0.99 0 1.98 0 3 C0.66 3.66 1.32 4.32 2 5 C0.68 5.33 -0.64 5.66 -2 6 C-2 5.34 -2 4.68 -2 4 C-6.29 4 -10.58 4 -15 4 C-15.33 3.01 -15.66 2.02 -16 1 C-15.15115234 1.24169922 -15.15115234 1.24169922 -14.28515625 1.48828125 C-11.93807777 2.01386635 -9.8398366 2.16717566 -7.4375 2.1875 C-6.29087891 2.20876953 -6.29087891 2.20876953 -5.12109375 2.23046875 C-2.69846497 2.1323375 -2.69846497 2.1323375 0 0 Z " fill="#48566F" transform="translate(520,352)"/>
<path d="M0 0 C0.36625971 4.51720311 0.36625971 4.51720311 -1.375 6.8125 C-3 8 -3 8 -5 8 C-5 7.34 -5 6.68 -5 6 C-5.66 6 -6.32 6 -7 6 C-5.96557526 2.89672578 -3.70631018 0 0 0 Z " fill="#172946" transform="translate(416,316)"/>
<path d="M0 0 C1.89492188 0.01353516 1.89492188 0.01353516 3.828125 0.02734375 C4.79234375 0.03894531 5.7565625 0.05054688 6.75 0.0625 C6.75 0.3925 6.75 0.7225 6.75 1.0625 C5.96753906 1.12308594 5.18507813 1.18367188 4.37890625 1.24609375 C2.86103516 1.37177734 2.86103516 1.37177734 1.3125 1.5 C0.30316406 1.58121094 -0.70617187 1.66242188 -1.74609375 1.74609375 C-4.18640779 1.79461468 -4.18640779 1.79461468 -5.25 3.0625 C-6.76469448 3.29442865 -8.28754562 3.47465238 -9.8125 3.625 C-11.05193359 3.75068359 -11.05193359 3.75068359 -12.31640625 3.87890625 C-13.27353516 3.96978516 -13.27353516 3.96978516 -14.25 4.0625 C-10.18042772 -0.61750812 -5.9432755 -0.05503033 0 0 Z " fill="#435262" transform="translate(705.25,310.9375)"/>
<path d="M0 0 C0.78375 0.04125 1.5675 0.0825 2.375 0.125 C2.045 1.115 1.715 2.105 1.375 3.125 C0.055 3.125 -1.265 3.125 -2.625 3.125 C-2.955 4.445 -3.285 5.765 -3.625 7.125 C-2.965 7.455 -2.305 7.785 -1.625 8.125 C-2.615 8.125 -3.605 8.125 -4.625 8.125 C-4.955 8.785 -5.285 9.445 -5.625 10.125 C-5.625 9.465 -5.625 8.805 -5.625 8.125 C-6.285 7.795 -6.945 7.465 -7.625 7.125 C-6.965 7.125 -6.305 7.125 -5.625 7.125 C-5.50125 6.34125 -5.3775 5.5575 -5.25 4.75 C-4.40872422 1.21664174 -3.69833563 0.17611122 0 0 Z " fill="#0A1F3E" transform="translate(238.625,272.875)"/>
<path d="M0 0 C2.97 0.495 2.97 0.495 6 1 C6 1.66 6 2.32 6 3 C7.32 3.33 8.64 3.66 10 4 C9.67 5.65 9.34 7.3 9 9 C5.125 5.25 5.125 5.25 4 3 C3.01 3.33 2.02 3.66 1 4 C0.67 2.68 0.34 1.36 0 0 Z " fill="#344158" transform="translate(718,349)"/>
<path d="M0 0 C0.91058531 3.07322544 1.08886184 5.80097361 1 9 C1.66 9 2.32 9 3 9 C3 9.66 3 10.32 3 11 C3.66 11 4.32 11 5 11 C5 11.66 5 12.32 5 13 C3.68 13 2.36 13 1 13 C-1.11295256 9.83057116 -1.25250929 9.00370047 -1.1875 5.375 C-1.17783203 4.18003906 -1.17783203 4.18003906 -1.16796875 2.9609375 C-1 1 -1 1 0 0 Z " fill="#1C273A" transform="translate(556,393)"/>
<path d="M0 0 C0 0.99 0 1.98 0 3 C4.95 3 9.9 3 15 3 C15 3.33 15 3.66 15 4 C12.43721301 4.05420701 9.87558517 4.09377007 7.3125 4.125 C6.59126953 4.14175781 5.87003906 4.15851563 5.12695312 4.17578125 C0.95123219 4.21391569 -2.2494138 3.8789919 -6 2 C-2.25 0 -2.25 0 0 0 Z " fill="#303E53" transform="translate(229,305)"/>
<path d="M0 0 C1.32 0 2.64 0 4 0 C6 3 6 3 6 6 C4.35 6 2.7 6 1 6 C0.67 4.02 0.34 2.04 0 0 Z " fill="#313A4D" transform="translate(687,402)"/>
<path d="M0 0 C0.79664063 0.96679688 0.79664063 0.96679688 1.609375 1.953125 C4.60478476 4.51782225 6.35682203 4.58073139 10.25 4.75 C11.32765625 4.80671875 12.4053125 4.8634375 13.515625 4.921875 C14.33546875 4.94765625 15.1553125 4.9734375 16 5 C16 5.33 16 5.66 16 6 C2.3667426 6.55353075 2.3667426 6.55353075 -4 3 C-3.34 2.67 -2.68 2.34 -2 2 C-1.34 2.33 -0.68 2.66 0 3 C0 2.01 0 1.02 0 0 Z " fill="#4D5A6A" transform="translate(352,361)"/>
<path d="M0 0 C1.49080078 0.16628906 1.49080078 0.16628906 3.01171875 0.3359375 C3.77097656 0.43132812 4.53023438 0.52671875 5.3125 0.625 C5.3125 2.605 5.3125 4.585 5.3125 6.625 C4.4875 5.985625 3.6625 5.34625 2.8125 4.6875 C-0.91941406 2.16086919 -4.24473303 1.93139772 -8.6875 1.625 C-5.1388865 -0.74074234 -4.1110475 -0.48365265 0 0 Z " fill="#091E3B" transform="translate(458.6875,319.375)"/>
<path d="M0 0 C0.99 0.33 1.98 0.66 3 1 C3.33 2.65 3.66 4.3 4 6 C3.34 6 2.68 6 2 6 C1.67 6.99 1.34 7.98 1 9 C0.896875 8.360625 0.79375 7.72125 0.6875 7.0625 C0.460625 6.381875 0.23375 5.70125 0 5 C-0.99 4.67 -1.98 4.34 -3 4 C-1.68 4 -0.36 4 1 4 C1 3.34 1 2.68 1 2 C0.01 1.67 -0.98 1.34 -2 1 C-1.34 0.67 -0.68 0.34 0 0 Z " fill="#223652" transform="translate(632,319)"/>
<path d="M0 0 C0.66 0.33 1.32 0.66 2 1 C0.9375 3.9375 0.9375 3.9375 -1 7 C-4.6875 7.875 -4.6875 7.875 -8 8 C-5.33333333 5.33333333 -2.66666667 2.66666667 0 0 Z " fill="#3F4D60" transform="translate(234,267)"/>
<path d="M0 0 C3.63 0 7.26 0 11 0 C10.01 0.495 10.01 0.495 9 1 C9 1.66 9 2.32 9 3 C9.66 3.33 10.32 3.66 11 4 C8.125 4.125 8.125 4.125 5 4 C4.34 3.34 3.68 2.68 3 2 C2.01 1.34 1.02 0.68 0 0 Z " fill="#384861" transform="translate(701,355)"/>
<path d="M0 0 C0 0.99 0 1.98 0 3 C0.99 3.33 1.98 3.66 3 4 C3 4.99 3 5.98 3 7 C0.69 7.33 -1.62 7.66 -4 8 C-4.33 6.68 -4.66 5.36 -5 4 C-3.35 2.68 -1.7 1.36 0 0 Z " fill="#2B3C59" transform="translate(717,350)"/>
<path d="M0 0 C0.66 0.99 1.32 1.98 2 3 C1.01 3.495 1.01 3.495 0 4 C-0.46751788 6.35599235 -0.46751788 6.35599235 -0.625 9.0625 C-0.69976562 9.98160156 -0.77453125 10.90070313 -0.8515625 11.84765625 C-0.90054687 12.55792969 -0.94953125 13.26820313 -1 14 C-1.99 13.34 -2.98 12.68 -4 12 C-3.5317879 7.22423661 -2.75668002 3.95523655 0 0 Z " fill="#3A4860" transform="translate(341,320)"/>
<path d="M0 0 C1.32 0.66 2.64 1.32 4 2 C2.3125 4.0625 2.3125 4.0625 0 6 C-2.75 5.75 -2.75 5.75 -5 5 C-3.35 3.35 -1.7 1.7 0 0 Z " fill="#203049" transform="translate(277,242)"/>
<path d="M0 0 C0.66 0 1.32 0 2 0 C2 0.66 2 1.32 2 2 C2.99 2.33 3.98 2.66 5 3 C5 3.66 5 4.32 5 5 C4.34 5 3.68 5 3 5 C3 5.66 3 6.32 3 7 C1.68 6.34 0.36 5.68 -1 5 C-0.67 3.35 -0.34 1.7 0 0 Z " fill="#3A455F" transform="translate(257,392)"/>
<path d="M0 0 C3.3 0.33 6.6 0.66 10 1 C10.33 1.99 10.66 2.98 11 4 C8.03 4 5.06 4 2 4 C1.34 2.68 0.68 1.36 0 0 Z " fill="#0D1F37" transform="translate(552,362)"/>
<path d="M0 0 C-0.33 0.99 -0.66 1.98 -1 3 C-2.0725 3.12375 -3.145 3.2475 -4.25 3.375 C-7.37863615 3.89643936 -9.33480424 4.40088254 -12 6 C-10.25440596 3.0906766 -9.18653817 2.07772424 -6 0.75 C-3 0 -3 0 0 0 Z M-4 3 C-3.34 3 -2.68 3 -2 3 C-2 3.66 -2 4.32 -2 5 C-2.99 4.67 -3.98 4.34 -5 4 C-4.67 3.67 -4.34 3.34 -4 3 Z " fill="#475669" transform="translate(558,335)"/>
<path d="M0 0 C0 0.33 0 0.66 0 1 C-1.0725 1.12375 -2.145 1.2475 -3.25 1.375 C-6.4780348 1.9130058 -8.24041335 2.43623423 -11 4 C-12.66140763 4.67966676 -14.32700041 5.34938905 -16 6 C-15.375 4.125 -15.375 4.125 -14 2 C-9.28493603 -0.24526856 -5.10467806 -0.17602338 0 0 Z " fill="#0C1F36" transform="translate(755,312)"/>
<path d="M0 0 C1.09570312 0.00902344 2.19140625 0.01804687 3.3203125 0.02734375 C4.16335938 0.03894531 5.00640625 0.05054688 5.875 0.0625 C5.875 0.3925 5.875 0.7225 5.875 1.0625 C4.1734375 1.2790625 4.1734375 1.2790625 2.4375 1.5 C-0.93277201 1.67421478 -0.93277201 1.67421478 -2.125 3.0625 C-4.12458364 3.10330783 -6.12545254 3.10504356 -8.125 3.0625 C-8.125 2.4025 -8.125 1.7425 -8.125 1.0625 C-5.36047967 -0.31976016 -3.0788637 -0.03275387 0 0 Z " fill="#384355" transform="translate(426.125,310.9375)"/>
<path d="M0 0 C3.96 0 7.92 0 12 0 C11.67 0.99 11.34 1.98 11 3 C9.54257537 3.08096803 8.08387193 3.13917774 6.625 3.1875 C5.81289063 3.22230469 5.00078125 3.25710938 4.1640625 3.29296875 C3.44992187 3.19628906 2.73578125 3.09960938 2 3 C1.34 2.01 0.68 1.02 0 0 Z " fill="#2D3A4E" transform="translate(658,302)"/>
<path d="M0 0 C2.97 0.495 2.97 0.495 6 1 C5.360625 1.268125 4.72125 1.53625 4.0625 1.8125 C1.66868314 2.88667752 1.66868314 2.88667752 1 6 C0.34 5.67 -0.32 5.34 -1 5 C-3.09821215 5.39938767 -3.09821215 5.39938767 -5 6 C-3.625 4 -3.625 4 -2 2 C-1.34 2 -0.68 2 0 2 C0 1.34 0 0.68 0 0 Z " fill="#34445E" transform="translate(272,234)"/>
<path d="M0 0 C0.99 0.33 1.98 0.66 3 1 C2.01 1.495 2.01 1.495 1 2 C0.67 2.99 0.34 3.98 0 5 C-0.33 4.34 -0.66 3.68 -1 3 C-0.67 2.01 -0.34 1.02 0 0 Z M-7 1 C-6.34 1 -5.68 1 -5 1 C-3.2856382 2.95927063 -1.61594832 4.95880212 0 7 C-0.763125 6.690625 -1.52625 6.38125 -2.3125 6.0625 C-4.18789677 5.32106407 -6.08684652 4.63771783 -8 4 C-7.67 3.01 -7.34 2.02 -7 1 Z " fill="#182E4D" transform="translate(369,213)"/>
<path d="M0 0 C0 2.97 0 5.94 0 9 C-0.99 9 -1.98 9 -3 9 C-3 6.36 -3 3.72 -3 1 C-1 0 -1 0 0 0 Z " fill="#16253E" transform="translate(682,399)"/>
<path d="M0 0 C3.63 0 7.26 0 11 0 C11 0.33 11 0.66 11 1 C8.36 1.33 5.72 1.66 3 2 C2.896875 2.639375 2.79375 3.27875 2.6875 3.9375 C2.460625 4.618125 2.23375 5.29875 2 6 C1.01 6.33 0.02 6.66 -1 7 C-0.67 4.69 -0.34 2.38 0 0 Z " fill="#0C1934" transform="translate(583,388)"/>
<path d="M0 0 C2.31 0.33 4.62 0.66 7 1 C6.01 2.32 5.02 3.64 4 5 C1.0625 4.625 1.0625 4.625 -2 4 C-2.33 3.34 -2.66 2.68 -3 2 C-1.35 1.67 0.3 1.34 2 1 C1.34 0.67 0.68 0.34 0 0 Z " fill="#314259" transform="translate(739,360)"/>
<path d="M0 0 C0.66 0.99 1.32 1.98 2 3 C4.56282742 3.72965366 4.56282742 3.72965366 7 4 C7.33 5.65 7.66 7.3 8 9 C4.18315774 7.44499019 1.80804268 4.96404505 -1 2 C-0.67 1.34 -0.34 0.68 0 0 Z " fill="#38455E" transform="translate(280,354)"/>
<path d="M0 0 C3.40320742 1.01176437 4.75725331 1.64843582 6.8125 4.625 C7.204375 5.40875 7.59625 6.1925 8 7 C6.68 7.33 5.36 7.66 4 8 C3.34 6.02 2.68 4.04 2 2 C1.34 2 0.68 2 0 2 C0 1.34 0 0.68 0 0 Z " fill="#2D3F56" transform="translate(525,312)"/>
<path d="M0 0 C2.97 0 5.94 0 9 0 C9 0.66 9 1.32 9 2 C4.545 3.485 4.545 3.485 0 5 C0 3.35 0 1.7 0 0 Z " fill="#09223C" transform="translate(368,315)"/>
<path d="M0 0 C0.5625 1.9375 0.5625 1.9375 1 4 C0 5 0 5 -3.5625 5.0625 C-4.696875 5.041875 -5.83125 5.02125 -7 5 C-2.25 0 -2.25 0 0 0 Z " fill="#364458" transform="translate(287,298)"/>
<path d="M0 0 C-0.66 0.66 -1.32 1.32 -2 2 C-2.6425235 4.06874034 -2.6425235 4.06874034 -3 6 C-3.66 5.67 -4.32 5.34 -5 5 C-4.67 4.34 -4.34 3.68 -4 3 C-5.65 3.66 -7.3 4.32 -9 5 C-8 2 -8 2 -5.625 0.25 C-3 -1 -3 -1 0 0 Z " fill="#122645" transform="translate(236,274)"/>
<path d="M0 0 C0.2475 0.61875 0.495 1.2375 0.75 1.875 C2.20628639 4.35068687 3.37812506 4.95125002 6 6 C6 6.33 6 6.66 6 7 C3.69 7.33 1.38 7.66 -1 8 C-1.125 2.25 -1.125 2.25 0 0 Z " fill="#10203C" transform="translate(657,400)"/>
<path d="M0 0 C0.99 0 1.98 0 3 0 C3 2.31 3 4.62 3 7 C1.35 7.33 -0.3 7.66 -2 8 C-2 7.34 -2 6.68 -2 6 C-1.01 6 -0.02 6 1 6 C0.67 4.02 0.34 2.04 0 0 Z " fill="#152238" transform="translate(689,389)"/>
<path d="M0 0 C0.66 0 1.32 0 2 0 C2.33 0.99 2.66 1.98 3 3 C-0.00229182 4.91813089 -2.52846619 6.23596585 -6 7 C-5.04882866 5.8274869 -4.08882991 4.66212985 -3.125 3.5 C-2.59132812 2.8503125 -2.05765625 2.200625 -1.5078125 1.53125 C-0.76144531 0.77328125 -0.76144531 0.77328125 0 0 Z " fill="#3A485C" transform="translate(242,260)"/>
<path d="M0 0 C1.65 0 3.3 0 5 0 C2.45543849 2.96865509 -0.48994665 4.3619751 -4 6 C-3.67 4.68 -3.34 3.36 -3 2 C-2.01 2 -1.02 2 0 2 C0 1.34 0 0.68 0 0 Z " fill="#102039" transform="translate(324,192)"/>
<path d="M0 0 C1.485 0.99 1.485 0.99 3 2 C3.99 1.67 4.98 1.34 6 1 C5.67 4.3 5.34 7.6 5 11 C4.67 11 4.34 11 4 11 C4 8.69 4 6.38 4 4 C3.01 4 2.02 4 1 4 C0.67 2.68 0.34 1.36 0 0 Z " fill="#0A1E37" transform="translate(713,321)"/>
<path d="M0 0 C0.33 1.65 0.66 3.3 1 5 C0.01 5 -0.98 5 -2 5 C-1.67 4.34 -1.34 3.68 -1 3 C-2.32 3.99 -3.64 4.98 -5 6 C-5.66 5.67 -6.32 5.34 -7 5 C-2.25 0 -2.25 0 0 0 Z " fill="#37455C" transform="translate(286,224)"/>
<path d="M0 0 C0.99 0 1.98 0 3 0 C2.67 3.3 2.34 6.6 2 10 C1.34 9.67 0.68 9.34 0 9 C-0.72886734 6.2303041 -1 3.87137415 -1 1 C-0.67 0.67 -0.34 0.34 0 0 Z " fill="#132748" transform="translate(349,199)"/>
<path d="M0 0 C0.99 0 1.98 0 3 0 C3.36923077 4.55384615 3.36923077 4.55384615 1.5 6.8125 C1.005 7.204375 0.51 7.59625 0 8 C-1.125 2.25 -1.125 2.25 0 0 Z " fill="#2A3647" transform="translate(330,346)"/>
<path d="M0 0 C0.33 0.66 0.66 1.32 1 2 C1.99 2 2.98 2 4 2 C3.67 3.32 3.34 4.64 3 6 C1.35 5.67 -0.3 5.34 -2 5 C-2 3.68 -2 2.36 -2 1 C-1.34 0.67 -0.68 0.34 0 0 Z " fill="#0D2341" transform="translate(403,244)"/>
<path d="M0 0 C1.65 0 3.3 0 5 0 C5 1.32 5 2.64 5 4 C3.35 4 1.7 4 0 4 C0 2.68 0 1.36 0 0 Z " fill="#F7FBFB" transform="translate(683,391)"/>
<path d="M0 0 C3.125 -0.1875 3.125 -0.1875 6 0 C6 0.66 6 1.32 6 2 C6.66 2.33 7.32 2.66 8 3 C4.7 3 1.4 3 -2 3 C-1.34 2.01 -0.68 1.02 0 0 Z " fill="#0A1F3E" transform="translate(706,359)"/>
<path d="M0 0 C0.99 0.99 1.98 1.98 3 3 C1.60755361 5.78489278 -0.55991988 7.12301529 -3 9 C-3.66 8.67 -4.32 8.34 -5 8 C-4.360625 7.236875 -3.72125 6.47375 -3.0625 5.6875 C-0.85767219 3.11753287 -0.85767219 3.11753287 0 0 Z " fill="#DCE1E8" transform="translate(728,353)"/>
<path d="M0 0 C0.99 0.33 1.98 0.66 3 1 C3 4 3 7 3 10 C0.3144406 7.3144406 -0.06049974 4.62378672 -1 1 C-0.67 0.67 -0.34 0.34 0 0 Z " fill="#5B6477" transform="translate(545,318)"/>
<path d="M0 0 C0.66 0.33 1.32 0.66 2 1 C1.3125 3.4375 1.3125 3.4375 0 6 C-2.625 6.8125 -2.625 6.8125 -5 7 C-3.70700306 4.11562221 -2.34058637 2.12780579 0 0 Z " fill="#344153" transform="translate(689,315)"/>
<path d="M0 0 C0.66 0.33 1.32 0.66 2 1 C1.34 2.32 0.68 3.64 0 5 C-0.66 5 -1.32 5 -2 5 C-2.33 5.99 -2.66 6.98 -3 8 C-3.66 8 -4.32 8 -5 8 C-3.8141763 4.62496331 -2.72426311 2.35277269 0 0 Z " fill="#3F5163" transform="translate(739,314)"/>
<path d="M0 0 C0 3.30941204 -0.40339294 5.11090151 -2 8 C-4.625 8.8125 -4.625 8.8125 -7 9 C-5.44499019 5.18315774 -2.96404505 2.80804268 0 0 Z " fill="#4A5567" transform="translate(225,275)"/>
<path d="M0 0 C6.0546875 -0.1953125 6.0546875 -0.1953125 8 0 C8.66 0.66 9.32 1.32 10 2 C7.3260876 2.89130413 4.76276177 3.47731534 2 4 C2 3.34 2 2.68 2 2 C1.34 1.34 0.68 0.68 0 0 Z " fill="#0B1F3C" transform="translate(255,255)"/>
<path d="M0 0 C0.33 0 0.66 0 1 0 C1.33 2.31 1.66 4.62 2 7 C1.01 7.33 0.02 7.66 -1 8 C-1.66 6.68 -2.32 5.36 -3 4 C-2.02727325 2.64664105 -1.0260734 1.31337396 0 0 Z " fill="#3E4D61" transform="translate(228,290)"/>
<path d="M0 0 C0.66 0.33 1.32 0.66 2 1 C1.67 2.65 1.34 4.3 1 6 C-2.875 4.25 -2.875 4.25 -4 2 C-2.68 2 -1.36 2 0 2 C0 1.34 0 0.68 0 0 Z " fill="#2F3D56" transform="translate(380,232)"/>
<path d="M0 0 C0.598125 0.185625 1.19625 0.37125 1.8125 0.5625 C4.16408762 1.22093687 4.16408762 1.22093687 7 0 C7.33 1.32 7.66 2.64 8 4 C5.125 3.6875 5.125 3.6875 2 3 C1.34 2.01 0.68 1.02 0 0 Z " fill="#36485D" transform="translate(252,404)"/>
<path d="M0 0 C-0.1875 1.875 -0.1875 1.875 -1 4 C-3.5625 5.25 -3.5625 5.25 -6 6 C-6 5.01 -6 4.02 -6 3 C-5.34 3 -4.68 3 -4 3 C-4 2.34 -4 1.68 -4 1 C-2 0 -2 0 0 0 Z " fill="#1D2E42" transform="translate(328,356)"/>
<path d="M0 0 C2.64 0 5.28 0 8 0 C7.01 0.495 7.01 0.495 6 1 C6 1.66 6 2.32 6 3 C6.66 3.33 7.32 3.66 8 4 C6.68 4 5.36 4 4 4 C4 3.34 4 2.68 4 2 C2.68 1.34 1.36 0.68 0 0 Z " fill="#3F5065" transform="translate(360,355)"/>
<path d="M0 0 C0.99 0.495 0.99 0.495 2 1 C1.67 1.66 1.34 2.32 1 3 C1.99 3.33 2.98 3.66 4 4 C3.67 5.65 3.34 7.3 3 9 C0.23776722 6.23776722 0.42143709 3.79293383 0 0 Z " fill="#203147" transform="translate(680,345)"/>
<path d="M0 0 C-2.64 1.65 -5.28 3.3 -8 5 C-8 4.01 -8 3.02 -8 2 C-3.71900826 -1.23966942 -3.71900826 -1.23966942 0 0 Z " fill="#0A1D32" transform="translate(556,338)"/>
<path d="M0 0 C0.33 0.99 0.66 1.98 1 3 C-0.875 6.1875 -0.875 6.1875 -3 9 C-3.33 9 -3.66 9 -4 9 C-4.25 6.75 -4.25 6.75 -4 4 C-2 1.6875 -2 1.6875 0 0 Z " fill="#0B1C36" transform="translate(446,322)"/>
<path d="M0 0 C0.33 0.66 0.66 1.32 1 2 C0.34 2 -0.32 2 -1 2 C-1 3.32 -1 4.64 -1 6 C-2.98 6.33 -4.96 6.66 -7 7 C-5.625 5 -5.625 5 -4 3 C-3.34 3 -2.68 3 -2 3 C-2 2.34 -2 1.68 -2 1 C-1.34 0.67 -0.68 0.34 0 0 Z " fill="#35445A" transform="translate(316,197)"/>
<path d="M0 0 C-3 2 -3 2 -5 2 C-5.33 2.66 -5.66 3.32 -6 4 C-6 3.34 -6 2.68 -6 2 C-6.66 2 -7.32 2 -8 2 C-8 1.34 -8 0.68 -8 0 C-4.71023192 -1.09658936 -3.28696233 -0.79953138 0 0 Z " fill="#2C3B51" transform="translate(563,342)"/>
<path d="M0 0 C0.33 0 0.66 0 1 0 C1 2.31 1 4.62 1 7 C-0.65 6.67 -2.3 6.34 -4 6 C-3.67 5.34 -3.34 4.68 -3 4 C-2.34 4 -1.68 4 -1 4 C-0.67 2.68 -0.34 1.36 0 0 Z " fill="#0E1F3A" transform="translate(616,317)"/>
<path d="M0 0 C1.65 0 3.3 0 5 0 C5 0.66 5 1.32 5 2 C5.66 2.33 6.32 2.66 7 3 C5.35 3.33 3.7 3.66 2 4 C1.34 2.68 0.68 1.36 0 0 Z " fill="#14233C" transform="translate(759,312)"/>
<path d="M0 0 C1.98 0.495 1.98 0.495 4 1 C4 2.32 4 3.64 4 5 C2.35 4.67 0.7 4.34 -1 4 C-0.67 2.68 -0.34 1.36 0 0 Z " fill="#0C203D" transform="translate(376,229)"/>
<path d="M0 0 C2.31 0 4.62 0 7 0 C6.67 0.99 6.34 1.98 6 3 C3.69 3 1.38 3 -1 3 C-0.67 2.01 -0.34 1.02 0 0 Z " fill="#0B1F3A" transform="translate(292,226)"/>
</svg>
