<?xml version="1.0" standalone="no"?>
<!DOCTYPE svg PUBLIC "-//W3C//DTD SVG 20010904//EN"
 "http://www.w3.org/TR/2001/REC-SVG-20010904/DTD/svg10.dtd">
<svg version="1.0" xmlns="http://www.w3.org/2000/svg"
 width="900.000000pt" height="900.000000pt" viewBox="0 0 900.000000 900.000000"
 preserveAspectRatio="xMidYMid meet">
<metadata>
Created by potrace 1.10, written by Peter Selinger 2001-2011
</metadata>
<g transform="translate(0.000000,900.000000) scale(0.100000,-0.100000)"
fill="#00000090" stroke="none">
<path d="M1985 7821 c-121 -13 -254 -110 -312 -228 l-28 -58 -3 -2858 -2
-2857 32 -66 c33 -67 100 -146 153 -180 71 -45 91 -48 347 -53 135 -4 248 -8
251 -11 2 -3 9 -64 14 -136 11 -141 20 -166 75 -198 41 -25 81 -20 130 17 51
39 55 54 57 204 1 108 2 113 24 118 12 3 814 4 1782 3 l1760 -3 2 -75 c2 -41
8 -108 14 -149 11 -69 15 -75 52 -102 45 -33 81 -36 129 -13 62 30 71 53 76
198 3 81 9 134 16 138 6 4 122 8 257 8 226 0 250 2 290 20 64 30 79 40 130 90
69 67 103 132 119 225 7 44 17 85 22 91 4 6 36 15 70 18 85 10 178 58 250 129
32 31 63 68 68 80 6 12 14 29 19 37 35 58 46 109 46 205 0 120 -3 128 -125
335 -47 80 -89 152 -93 160 -4 8 -16 29 -27 45 -11 17 -24 39 -30 50 -6 11
-19 34 -30 50 -11 17 -24 39 -30 50 -6 11 -16 29 -23 40 -7 11 -34 58 -62 105
l-50 85 -2 2050 c-1 1128 -5 2074 -8 2103 -8 65 -28 112 -78 179 -36 49 -125
123 -147 123 -6 0 -23 8 -37 18 -26 16 -164 17 -2533 18 -1378 1 -2532 -2
-2565 -5z m5053 -305 l37 -34 0 -654 0 -653 -2582 -3 -2583 -2 0 649 0 649 40
41 40 41 2505 0 2505 0 38 -34z m39 -2641 c2 -571 -1 -1026 -6 -1034 -12 -19
-23 -10 -49 41 -13 24 -32 57 -42 73 -11 17 -24 39 -29 51 -8 19 -77 137 -101
174 -42 64 -43 75 -18 116 94 149 137 329 123 514 -6 78 -30 181 -53 227 -5
10 -20 38 -32 63 -89 177 -264 322 -465 388 -140 46 -332 59 -381 27 -33 -21
-30 -44 17 -144 23 -47 62 -129 86 -181 25 -52 59 -124 76 -159 40 -84 39
-113 -7 -181 -63 -92 -59 -90 -152 -90 l-84 0 -75 103 c-41 56 -116 158 -166
227 -113 155 -126 169 -219 239 -90 67 -95 70 -185 114 -225 109 -411 166
-635 193 -255 30 -470 9 -732 -72 -59 -18 -115 -38 -125 -43 -10 -5 -63 -31
-118 -57 -294 -143 -560 -386 -726 -664 -80 -134 -148 -291 -183 -425 -43
-166 -66 -342 -66 -507 0 -109 21 -306 40 -373 6 -22 18 -65 27 -95 25 -91
110 -287 156 -365 106 -176 166 -255 297 -385 129 -130 230 -208 350 -273 19
-11 54 -30 76 -42 111 -62 298 -128 459 -162 110 -24 541 -29 653 -8 121 22
342 89 410 124 9 5 44 22 77 39 108 54 128 66 248 155 149 111 261 223 374
374 49 65 92 125 96 133 4 8 16 29 27 45 18 29 78 149 104 210 18 42 66 185
82 244 6 19 33 -4 51 -44 18 -39 58 -109 94 -163 16 -24 29 -45 29 -48 0 -2
33 -59 73 -127 40 -67 76 -129 80 -137 4 -8 16 -28 27 -45 11 -16 24 -39 30
-50 6 -11 19 -33 30 -50 11 -16 24 -39 30 -50 5 -11 14 -27 20 -35 15 -23 155
-263 163 -280 4 -8 16 -28 26 -45 11 -16 29 -48 41 -70 12 -22 34 -58 49 -80
15 -22 30 -47 34 -55 4 -8 15 -27 25 -42 75 -115 75 -114 70 -215 -4 -95 -4
-96 -41 -129 l-37 -34 -2506 0 -2506 0 -39 39 -39 39 0 2009 c0 1105 3 2013 7
2016 3 4 1165 6 2582 5 l2576 -3 2 -1020z m-2322 470 c210 -49 245 -61 437
-156 59 -29 120 -62 135 -75 l28 -22 -23 -63 c-32 -88 -52 -184 -52 -244 1
-68 26 -238 39 -263 6 -12 11 -30 11 -41 0 -31 49 -143 91 -208 40 -61 44 -79
19 -100 -12 -10 -65 -60 -117 -111 -140 -137 -158 -147 -268 -146 -111 0 -137
13 -249 121 -111 108 -166 143 -258 163 -46 11 -69 11 -120 0 -97 -20 -130
-41 -249 -155 -42 -40 -96 -86 -120 -101 -40 -25 -53 -28 -134 -28 -82 0 -94
3 -135 28 -24 16 -83 68 -130 115 -123 125 -145 135 -300 136 -134 0 -145 -3
-272 -66 -36 -18 -60 -25 -64 -18 -9 15 42 226 72 297 8 18 14 38 14 45 0 21
92 199 144 277 71 108 268 301 393 383 138 91 269 156 378 187 17 4 44 13 60
19 42 14 171 40 225 45 100 9 376 -3 445 -19z m1814 -281 c69 -82 100 -152
121 -265 9 -54 9 -80 -4 -149 -9 -47 -21 -89 -26 -94 -6 -6 -10 -16 -10 -22 0
-7 -17 -41 -37 -75 -80 -132 -83 -138 -83 -208 0 -68 8 -93 61 -176 14 -22 29
-47 32 -55 4 -8 16 -28 27 -45 11 -16 24 -39 30 -50 6 -11 19 -33 30 -50 11
-16 24 -39 30 -50 6 -11 19 -33 30 -50 11 -16 23 -37 27 -45 3 -8 18 -33 32
-55 14 -22 31 -50 37 -62 15 -27 153 -255 176 -291 10 -15 22 -36 28 -47 6
-11 19 -33 30 -50 11 -16 24 -39 30 -50 6 -11 19 -33 30 -50 11 -16 24 -39 30
-50 6 -11 19 -33 30 -50 11 -16 23 -37 27 -45 3 -8 18 -33 32 -55 14 -22 31
-49 37 -61 13 -25 152 -254 176 -292 10 -15 22 -37 27 -49 5 -11 14 -24 19
-27 17 -10 24 -101 12 -144 -7 -29 -23 -52 -54 -77 -39 -32 -48 -35 -108 -35
-63 0 -65 1 -115 48 -38 35 -86 105 -186 272 -73 124 -137 232 -140 240 -4 8
-16 29 -27 45 -11 17 -24 39 -30 50 -5 11 -14 27 -20 35 -5 8 -51 85 -100 170
-50 85 -95 162 -100 170 -6 8 -15 24 -20 35 -6 11 -19 34 -30 50 -11 17 -23
37 -27 45 -4 8 -26 47 -48 85 -23 39 -44 77 -48 85 -4 8 -16 29 -26 45 -11 17
-29 48 -41 70 -12 22 -34 58 -49 80 -15 22 -30 47 -34 55 -9 18 -23 40 -60 97
-15 24 -27 47 -27 52 0 36 -158 141 -250 166 -14 4 -63 26 -109 48 -101 50
-220 161 -264 247 -48 92 -87 246 -87 338 0 78 20 66 110 -68 131 -195 141
-200 404 -203 l191 -2 123 163 122 163 0 94 c0 55 -6 111 -14 132 -20 56 -36
108 -36 117 0 15 77 -49 119 -100z m-3143 -1163 c14 -11 64 -56 112 -101 48
-45 96 -86 107 -91 11 -5 27 -13 35 -17 49 -28 70 -36 129 -48 83 -18 139 -18
222 0 116 24 186 68 334 207 38 37 79 69 90 72 44 13 84 -8 167 -89 85 -83
178 -154 201 -154 7 0 18 -5 24 -11 15 -15 146 -39 208 -39 71 1 162 22 224
53 63 32 87 51 163 123 31 30 82 69 114 85 49 27 69 31 130 32 81 0 85 -2 218
-124 54 -49 56 -53 56 -102 0 -27 -7 -75 -16 -106 -8 -31 -22 -81 -31 -111 -8
-30 -21 -70 -29 -88 -8 -18 -14 -37 -14 -42 0 -12 -66 -146 -90 -185 -11 -16
-23 -37 -27 -45 -17 -38 -135 -183 -208 -256 -82 -84 -202 -179 -290 -230 -27
-16 -59 -34 -70 -41 -11 -7 -27 -15 -35 -19 -8 -4 -38 -17 -66 -30 -55 -25
-128 -53 -159 -60 -11 -3 -42 -11 -70 -19 -181 -51 -449 -62 -620 -26 -164 35
-195 43 -305 86 -373 146 -693 476 -833 860 -36 99 -77 279 -77 335 0 28 8 43
38 71 55 52 170 117 237 133 36 9 106 -4 131 -23z"/>
<path d="M2691 7355 c-18 -8 -39 -15 -47 -15 -28 0 -142 -77 -195 -131 -116
-121 -167 -311 -128 -477 29 -122 116 -244 221 -309 81 -50 119 -64 206 -73
265 -30 472 105 556 364 21 65 21 216 0 282 -57 183 -161 288 -352 358 -55 21
-214 21 -261 1z m203 -272 c48 -18 126 -84 126 -108 0 -7 7 -18 15 -25 23 -19
20 -150 -4 -198 -43 -84 -119 -132 -212 -132 -214 0 -319 248 -168 400 46 46
114 78 169 79 14 1 47 -7 74 -16z"/>
<path d="M6349 7139 c-97 -10 -169 -60 -222 -155 -18 -32 -21 -56 -22 -134 0
-94 0 -96 38 -153 45 -66 81 -95 152 -119 65 -24 121 -23 189 3 74 29 129 78
159 142 36 77 40 117 21 194 -20 80 -61 140 -123 180 -60 38 -113 49 -192 42z
m68 -241 c27 -25 29 -54 6 -80 -22 -24 -52 -23 -80 4 -28 26 -29 38 -2 72 25
32 45 33 76 4z"/>
<path d="M5415 7131 c-71 -18 -155 -96 -184 -170 -25 -64 -25 -159 0 -216 27
-61 112 -145 165 -164 64 -22 147 -25 191 -6 96 42 121 63 171 138 25 37 27
49 27 136 -1 80 -5 103 -23 138 -30 54 -59 84 -113 119 -37 23 -56 28 -124 30
-44 2 -94 0 -110 -5z m122 -233 c13 -12 23 -30 23 -41 0 -28 -29 -57 -56 -57
-52 0 -75 74 -32 104 29 21 37 20 65 -6z"/>
</g>
</svg>
