<?xml version="1.0" standalone="no"?>
<!DOCTYPE svg PUBLIC "-//W3C//DTD SVG 20010904//EN"
 "http://www.w3.org/TR/2001/REC-SVG-20010904/DTD/svg10.dtd">
<svg version="1.0" xmlns="http://www.w3.org/2000/svg"
 width="900.000000pt" height="900.000000pt" viewBox="0 0 900.000000 900.000000"
 preserveAspectRatio="xMidYMid meet">
<metadata>
Created by potrace 1.10, written by Peter Selinger 2001-2011
</metadata>
<g transform="translate(0.000000,900.000000) scale(0.100000,-0.100000)"
fill="#00000090" stroke="none">
<path d="M3485 7624 c-38 -8 -91 -21 -116 -29 -26 -8 -52 -15 -58 -15 -12 0
-198 -89 -236 -113 -133 -84 -251 -193 -736 -679 l-516 -519 -18 -112 c-19
-119 -33 -150 -108 -240 l-39 -48 -135 3 -134 3 -154 -159 c-193 -198 -225
-244 -225 -320 0 -72 20 -105 138 -222 483 -480 627 -619 657 -635 52 -28 166
-26 214 3 51 31 365 343 387 384 16 29 17 39 6 79 -37 139 30 268 160 309 54
17 61 17 114 1 62 -18 96 -36 134 -74 30 -29 96 -60 128 -61 25 0 97 33 107
50 3 5 13 10 21 10 8 0 100 -85 206 -190 l191 -189 -18 -27 c-10 -15 -479
-489 -1043 -1053 -564 -564 -1036 -1044 -1050 -1066 -34 -53 -38 -163 -7 -212
11 -17 139 -154 285 -304 398 -410 547 -564 644 -669 140 -149 153 -160 209
-160 46 0 52 3 120 68 40 38 92 77 117 89 89 40 121 53 138 53 9 0 26 7 36 15
11 8 29 15 40 15 12 0 30 7 40 15 11 8 29 15 40 15 12 1 34 11 50 24 24 20 31
37 42 102 8 44 18 134 23 202 5 73 14 128 22 138 11 13 43 15 236 13 l222 -3
28 26 c31 30 70 158 93 304 5 33 15 78 22 100 12 36 16 39 48 38 19 -1 119 -5
221 -9 l186 -8 28 35 c28 36 63 146 64 203 1 17 9 65 18 108 l18 77 65 0 c36
0 122 -5 191 -12 103 -9 131 -9 156 2 33 15 80 79 89 120 24 121 40 132 97 69
42 -46 328 -347 413 -434 27 -28 89 -93 139 -145 175 -186 553 -576 750 -774
220 -221 259 -249 384 -268 88 -14 198 -5 247 20 84 43 375 318 411 387 34 68
56 173 50 240 -6 59 -21 115 -38 145 -5 8 -13 25 -19 38 -5 12 -56 66 -112
120 -96 92 -431 423 -1047 1037 -149 148 -270 274 -268 280 2 5 18 11 36 13
43 4 48 21 57 191 8 159 13 171 72 171 20 0 70 6 112 14 41 8 102 20 135 26
33 6 93 15 133 20 47 6 83 17 102 30 28 20 30 25 30 93 0 40 -5 162 -12 271
-10 182 -10 200 5 211 12 8 103 14 294 19 273 7 279 8 316 32 60 39 764 749
814 820 12 17 27 59 34 92 16 76 0 177 -38 235 -21 34 -781 798 -1279 1287
-198 195 -238 222 -341 228 -70 5 -121 -9 -180 -49 -23 -16 -261 -251 -529
-522 -690 -696 -1547 -1547 -1559 -1547 -6 0 -95 85 -199 189 l-188 188 15 29
c59 109 68 156 41 217 -18 41 -57 98 -102 146 -122 132 -141 294 -49 428 36
52 138 139 202 173 151 80 189 99 255 127 73 30 114 44 231 77 73 21 264 21
339 1 30 -8 75 -15 99 -15 113 0 181 121 116 206 -24 31 -161 142 -195 157 -8
4 -28 16 -45 27 -16 10 -75 41 -130 68 -181 89 -280 122 -463 157 -106 19
-398 19 -497 -1z m505 -270 c41 -8 95 -22 120 -30 25 -8 53 -14 63 -14 9 0 17
-6 17 -13 0 -13 -90 -47 -123 -47 -9 0 -31 -6 -49 -14 -18 -8 -73 -31 -122
-51 -149 -62 -272 -137 -396 -244 -128 -110 -178 -178 -222 -304 -29 -83 -32
-257 -4 -332 33 -91 80 -172 141 -243 43 -51 48 -44 -217 -303 -138 -134 -256
-248 -264 -252 -9 -5 -35 4 -72 24 -165 91 -313 85 -506 -18 -24 -13 -109
-100 -142 -146 l-20 -29 -167 164 c-92 90 -167 169 -167 177 0 7 22 38 50 68
27 29 56 66 64 81 47 87 74 169 86 261 6 52 10 57 91 133 46 44 264 259 484
477 227 225 438 425 487 463 116 87 260 157 393 191 86 22 375 23 475 1z
m2372 -101 c142 -125 1317 -1293 1335 -1327 8 -15 12 -39 9 -52 -4 -13 -162
-181 -352 -374 l-347 -350 -171 0 c-165 0 -519 -13 -679 -25 l-78 -6 -376 373
c-207 205 -428 424 -491 486 -62 63 -112 115 -110 117 32 35 1108 1111 1145
1146 28 27 57 49 62 49 6 0 30 -17 53 -37z m-1264 -1542 c103 -98 320 -311
483 -473 163 -162 314 -308 335 -324 65 -50 93 -58 209 -64 l110 -5 6 -40 c3
-22 9 -93 12 -157 7 -136 4 -143 -71 -153 -26 -3 -87 -12 -137 -20 -49 -8
-137 -22 -195 -30 -58 -9 -118 -22 -134 -29 l-29 -12 -4 -160 c-4 -180 -6
-185 -76 -177 -40 5 -58 21 -391 359 -202 206 -365 363 -387 375 -25 12 -58
19 -98 19 l-60 0 -206 203 c-113 112 -205 210 -205 219 0 8 86 100 192 204
105 104 248 246 317 315 69 70 130 127 134 128 5 0 92 -79 195 -178z m-1127
-571 c266 -270 485 -499 487 -509 3 -18 -161 -181 -182 -181 -12 0 -988 973
-994 990 -5 15 168 190 188 190 9 0 234 -221 501 -490z m-2414 437 c45 -16
563 -522 563 -549 0 -29 -184 -208 -213 -208 -15 1 -110 88 -312 290 l-289
288 94 96 c52 53 102 96 110 95 8 0 30 -5 47 -12z m2332 -1131 l192 -194 -7
-74 c-6 -65 -4 -80 16 -119 14 -28 118 -140 284 -308 143 -145 269 -271 279
-280 21 -19 22 -50 3 -88 -8 -15 -24 -50 -35 -77 -21 -46 -23 -48 -54 -43 -18
3 -112 11 -210 18 -173 12 -179 12 -205 -8 -45 -33 -63 -92 -82 -269 -9 -81
-24 -134 -40 -144 -4 -3 -94 -1 -199 4 -105 4 -202 5 -215 2 -29 -7 -86 -64
-86 -85 0 -9 -6 -45 -14 -81 -24 -105 -46 -233 -46 -263 0 -20 -7 -30 -26 -37
-14 -6 -126 -10 -249 -10 l-223 0 -30 -28 c-17 -16 -33 -40 -35 -53 -14 -71
-37 -293 -37 -351 0 -65 -1 -67 -34 -87 -18 -12 -42 -21 -53 -21 -10 0 -23 -4
-28 -9 -9 -9 -71 -34 -120 -48 -11 -4 -49 -24 -85 -45 l-64 -39 -56 58 c-30
32 -102 108 -160 168 -57 61 -221 231 -365 379 -143 148 -261 276 -263 285 -4
24 2005 2040 2034 2041 13 0 85 -66 213 -194z m1143 -218 c157 -156 359 -355
449 -443 90 -88 337 -331 549 -540 212 -209 526 -519 698 -689 172 -169 319
-321 327 -336 19 -38 19 -83 -1 -122 -17 -33 -175 -193 -243 -247 -35 -28 -46
-31 -108 -31 -89 0 -98 6 -308 221 -266 272 -928 962 -1030 1075 -33 37 -654
678 -912 942 -65 67 -81 88 -73 101 11 21 350 351 360 351 4 0 136 -127 292
-282z"/>
<path d="M6190 6748 c-48 -18 -80 -46 -240 -207 -257 -258 -279 -286 -298
-397 -14 -83 4 -174 46 -236 17 -25 86 -97 153 -159 67 -63 167 -158 223 -213
152 -148 146 -146 463 -146 374 1 490 29 614 150 81 79 102 131 102 253 0 73
-5 108 -19 140 -26 59 -90 141 -170 216 -38 36 -175 169 -304 296 -129 127
-251 243 -271 258 -48 36 -141 67 -198 66 -25 0 -71 -10 -101 -21z m304 -416
c94 -93 218 -213 275 -268 57 -54 127 -127 157 -162 49 -57 54 -67 54 -111 0
-43 -4 -51 -32 -73 -58 -43 -162 -58 -401 -58 l-212 0 -110 108 c-61 59 -151
143 -200 186 -50 43 -96 90 -104 104 -20 37 -1 69 110 187 197 210 246 255
278 255 8 0 91 -76 185 -168z"/>
</g>
</svg>
