<?xml version="1.0" standalone="no"?>
<!DOCTYPE svg PUBLIC "-//W3C//DTD SVG 20010904//EN"
 "http://www.w3.org/TR/2001/REC-SVG-20010904/DTD/svg10.dtd">
<svg version="1.0" xmlns="http://www.w3.org/2000/svg"
 width="900.000000pt" height="900.000000pt" viewBox="0 0 900.000000 900.000000"
 preserveAspectRatio="xMidYMid meet">
<metadata>
Created by potrace 1.10, written by Peter Selinger 2001-2011
</metadata>
<g transform="translate(0.000000,900.000000) scale(0.100000,-0.100000)"
fill="#00000090" stroke="none">
<path d="M2468 7708 c-23 -13 -41 -34 -51 -59 -15 -38 -17 -39 -64 -38 -26 0
-79 4 -118 8 -110 12 -179 -10 -218 -71 -15 -24 -17 -57 -17 -274 0 -278 2
-286 75 -328 34 -20 59 -25 178 -31 124 -7 139 -10 152 -28 8 -12 15 -29 15
-37 0 -9 15 -31 33 -48 28 -27 41 -32 85 -33 85 -2 85 -16 7 -239 -61 -171
-173 -352 -321 -517 -109 -121 -109 -121 -108 -184 2 -92 51 -139 146 -139 50
0 57 3 103 48 110 105 310 357 355 447 6 11 19 34 29 50 26 40 121 232 121
244 0 5 6 22 14 38 18 37 36 90 45 133 14 62 40 113 55 107 8 -3 32 -9 53 -13
96 -18 179 -108 220 -237 3 -11 -6 -28 -25 -48 -53 -55 -62 -117 -62 -452 l0
-294 -82 -84 c-136 -138 -158 -203 -158 -468 0 -157 -3 -195 -19 -240 -23 -66
-75 -129 -149 -180 -82 -58 -222 -160 -279 -204 -26 -20 -88 -68 -138 -106
-89 -67 -233 -210 -257 -256 -51 -95 -84 -176 -92 -225 -3 -19 -10 -55 -15
-80 -6 -27 -10 -461 -11 -1096 0 -870 2 -1059 14 -1100 8 -27 17 -61 20 -75 7
-32 86 -150 135 -203 69 -74 183 -133 290 -152 114 -20 2072 -19 2151 1 128
32 213 80 295 165 55 58 61 62 94 56 82 -13 203 67 249 165 11 24 41 89 67
144 99 209 160 344 209 460 38 90 47 110 105 238 17 37 31 69 31 72 0 5 42 99
89 200 63 133 136 292 167 363 8 17 20 47 28 65 8 17 28 61 44 97 17 36 42 92
57 125 31 68 51 115 90 200 15 33 36 80 47 105 10 25 26 61 35 80 8 19 21 49
27 65 33 80 89 208 125 283 10 20 51 61 101 100 47 36 87 69 90 72 13 16 250
190 259 190 5 0 11 3 13 8 5 12 66 52 81 52 7 0 17 -4 22 -9 6 -5 86 -41 179
-81 93 -40 177 -76 185 -80 9 -5 59 -28 111 -53 245 -116 251 -117 301 -92 64
32 71 44 174 270 15 33 54 115 86 182 62 129 70 167 42 211 -19 30 -63 71 -77
72 -6 0 -52 20 -103 45 -51 25 -136 65 -188 90 -52 25 -139 66 -193 91 -99 48
-204 96 -257 118 -16 8 -48 21 -70 31 -46 21 -96 43 -140 61 -28 11 -57 24
-137 58 -18 8 -58 24 -88 36 -50 20 -117 49 -195 85 -16 7 -57 25 -90 40 -61
27 -94 42 -200 90 -33 15 -78 35 -100 45 -22 10 -67 30 -100 45 -33 15 -80 36
-105 47 -25 11 -72 33 -105 48 -56 26 -115 53 -225 102 -25 11 -58 26 -75 33
-334 150 -345 153 -406 111 -35 -24 -61 -68 -122 -206 -40 -89 -87 -190 -124
-268 -26 -54 -35 -85 -35 -123 1 -76 18 -90 227 -184 68 -31 115 -51 200 -90
33 -15 78 -35 100 -45 22 -10 67 -30 100 -45 33 -15 80 -36 105 -47 25 -11 52
-23 60 -27 12 -7 15 -34 16 -143 1 -81 7 -165 17 -209 53 -250 57 -306 29
-363 -22 -46 -95 -203 -119 -256 -8 -19 -19 -42 -23 -51 -4 -8 -47 -107 -95
-219 -48 -112 -91 -211 -95 -219 -5 -9 -21 -43 -35 -76 -35 -79 -61 -136 -97
-215 -35 -77 -63 -140 -103 -235 -7 -16 -20 -48 -30 -70 -27 -60 -43 -98 -50
-119 -17 -57 -24 38 -28 409 -4 399 -9 477 -43 655 -8 42 -14 88 -14 103 0 15
-6 53 -14 85 -33 135 -39 159 -47 197 -9 46 -16 73 -74 290 -24 91 -46 167
-58 195 -5 14 -13 39 -17 55 -5 17 -18 55 -30 85 -12 30 -24 64 -27 75 -2 11
-9 29 -14 40 -12 27 -39 104 -49 140 -4 17 -18 55 -30 85 -12 30 -25 69 -30
85 -5 17 -18 55 -30 85 -36 89 -36 96 -1 135 l31 36 0 340 0 340 -44 44 -44
44 44 44 c86 88 97 90 364 95 258 5 270 7 314 65 20 26 26 46 26 83 0 53 -26
156 -60 244 -12 30 -24 63 -27 74 -3 10 -16 37 -29 60 -12 22 -32 59 -44 80
-66 121 -245 309 -365 383 -43 27 -163 80 -215 96 -165 49 -117 47 -1086 47
-908 0 -909 0 -946 -22z m1790 -269 c152 -17 241 -53 369 -149 73 -54 182
-195 226 -290 4 -8 18 -33 31 -55 13 -22 22 -43 19 -47 -2 -5 -50 -8 -106 -8
-192 0 -357 -65 -470 -183 -35 -36 -107 -133 -107 -143 0 -4 -10 -18 -22 -31
l-21 -23 -304 0 c-234 0 -304 3 -307 13 -19 63 -48 150 -55 165 -5 9 -12 24
-15 32 -13 33 -77 122 -116 159 -33 32 -113 82 -175 111 -27 12 -58 27 -68 32
-28 14 -206 39 -332 46 l-110 7 0 180 0 180 680 5 c374 3 704 6 733 8 30 1 97
-3 150 -9z m23 -1219 c17 -10 19 -23 19 -163 0 -84 -4 -157 -8 -163 -8 -12
-798 -29 -827 -18 -13 5 -15 32 -15 163 0 86 4 162 8 168 6 10 82 13 302 16
162 1 341 3 398 5 57 1 112 -3 123 -8z m1076 -411 c38 -16 82 -36 98 -44 17
-7 57 -25 90 -40 145 -65 188 -84 345 -158 41 -19 102 -47 135 -62 33 -15 74
-33 90 -40 132 -60 166 -75 170 -75 3 0 35 -14 72 -31 102 -46 124 -55 173
-74 57 -22 107 -44 143 -61 16 -8 33 -14 38 -14 8 0 36 -12 174 -75 17 -7 57
-25 90 -40 63 -29 149 -68 305 -142 52 -25 122 -58 155 -73 202 -94 225 -106
225 -121 0 -8 -18 -51 -40 -94 -22 -43 -40 -85 -40 -92 0 -15 -23 -17 -48 -4
-50 27 -438 206 -617 286 -106 46 -130 57 -146 65 -8 4 -123 54 -254 110 -131
56 -246 106 -254 111 -28 14 -151 69 -156 69 -3 0 -35 14 -72 31 -38 16 -81
36 -98 43 -28 13 -75 34 -230 106 -36 17 -93 43 -127 59 -35 16 -94 43 -133
61 -38 18 -99 46 -135 62 -110 51 -130 62 -130 73 0 6 14 38 30 70 17 32 30
62 30 67 0 14 31 58 41 58 5 0 39 -14 76 -31z m-1131 -277 c13 -8 42 -71 54
-117 5 -16 18 -55 30 -85 12 -30 25 -66 30 -80 5 -14 18 -50 30 -80 12 -30 24
-64 27 -75 3 -11 11 -33 18 -50 15 -37 34 -90 45 -130 5 -16 14 -46 21 -65 6
-19 17 -51 24 -70 14 -40 35 -107 60 -195 9 -33 23 -80 31 -105 8 -25 14 -56
14 -69 0 -13 6 -47 14 -75 27 -96 58 -262 91 -498 13 -89 15 -271 15 -1123 0
-991 0 -1017 -20 -1053 -32 -60 -52 -79 -117 -111 l-62 -31 -1030 0 c-951 0
-1033 1 -1068 17 -59 27 -118 78 -144 125 l-24 43 0 1100 0 1100 33 60 c43 80
108 149 212 226 47 35 87 66 90 69 3 4 26 21 52 38 25 18 53 38 60 46 13 13
35 29 203 146 43 30 102 77 131 103 50 46 124 154 124 181 0 6 4 16 10 22 20
20 32 116 39 324 6 192 9 219 29 256 26 51 65 88 134 130 l53 32 390 1 c215 0
395 -3 401 -7z m1812 -598 c31 -14 75 -34 97 -44 22 -10 66 -30 98 -44 31 -14
83 -38 115 -52 31 -14 77 -35 102 -46 78 -35 110 -52 110 -60 0 -5 -21 -23
-47 -41 -26 -17 -63 -46 -82 -63 -20 -16 -63 -48 -96 -71 -68 -45 -54 -46
-208 21 -17 7 -54 23 -82 34 -48 20 -50 23 -57 66 -3 25 -9 49 -12 55 -3 5
-10 49 -15 98 -5 48 -13 107 -17 131 -6 39 -5 42 15 42 12 0 48 -12 79 -26z
m18 -679 c28 -18 28 -19 11 -53 -8 -15 -22 -45 -31 -67 -10 -22 -24 -53 -32
-68 -8 -16 -14 -33 -14 -38 0 -5 -14 -39 -31 -76 -30 -66 -60 -130 -101 -223
-11 -25 -27 -61 -36 -80 -8 -19 -21 -48 -28 -65 -6 -16 -20 -48 -30 -70 -9
-22 -23 -53 -30 -70 -30 -71 -61 -138 -121 -265 -121 -253 -193 -407 -193
-415 0 -3 -14 -35 -31 -72 -17 -38 -37 -81 -44 -98 -13 -30 -43 -95 -104 -228
-17 -37 -31 -69 -31 -72 0 -3 -14 -35 -31 -72 -16 -38 -36 -81 -44 -98 -7 -16
-30 -71 -51 -122 -21 -51 -41 -90 -46 -87 -15 9 -10 309 6 341 8 15 21 44 30
63 48 110 73 166 118 260 52 110 72 153 95 207 7 18 20 49 28 68 37 88 64 148
105 240 18 39 38 84 45 100 19 42 67 148 105 230 80 172 106 229 155 340 14
33 32 74 40 90 7 17 22 50 33 75 36 81 73 164 89 200 9 19 22 47 30 62 7 14
13 32 13 40 0 8 9 24 20 35 16 18 25 20 51 13 17 -5 42 -16 55 -25z"/>
<path d="M3486 4175 c-16 -9 -39 -25 -50 -38 -18 -19 -118 -163 -151 -219 -5
-9 -32 -54 -60 -100 -68 -112 -63 -103 -128 -230 -66 -127 -73 -141 -87 -165
-6 -10 -13 -25 -16 -33 -4 -8 -24 -51 -45 -95 -44 -94 -67 -155 -79 -210 -5
-22 -13 -53 -19 -68 -17 -45 -14 -281 5 -346 38 -130 85 -215 171 -304 68 -72
148 -136 193 -153 159 -61 189 -68 315 -67 88 0 130 5 159 17 21 9 45 16 52
16 27 0 149 64 205 106 52 40 158 153 186 199 73 118 113 309 94 452 -25 182
-45 239 -181 513 -150 303 -247 468 -359 615 -61 79 -76 94 -117 111 -42 18
-52 17 -88 -1z m114 -492 c28 -49 55 -95 60 -103 9 -15 31 -55 96 -175 62
-114 134 -269 134 -288 0 -7 4 -17 9 -23 16 -17 51 -172 51 -226 -1 -62 -30
-192 -48 -210 -7 -7 -12 -18 -12 -24 0 -19 -121 -138 -161 -158 -113 -58 -260
-59 -390 -3 -62 27 -135 102 -168 172 -25 51 -32 82 -37 157 -10 158 14 250
118 463 27 55 69 136 94 180 24 44 51 94 60 110 8 17 23 44 34 60 11 17 24 39
30 50 6 11 19 34 30 50 11 17 23 36 26 43 12 23 24 11 74 -75z"/>
</g>
</svg>
