<?xml version="1.0" standalone="no"?>
<!DOCTYPE svg PUBLIC "-//W3C//DTD SVG 20010904//EN"
 "http://www.w3.org/TR/2001/REC-SVG-20010904/DTD/svg10.dtd">
<svg version="1.0" xmlns="http://www.w3.org/2000/svg"
 width="900.000000pt" height="900.000000pt" viewBox="0 0 900.000000 900.000000"
 preserveAspectRatio="xMidYMid meet">
<metadata>
Created by potrace 1.10, written by Peter Selinger 2001-2011
</metadata>
<g transform="translate(0.000000,900.000000) scale(0.100000,-0.100000)"
fill="#00000090" stroke="none">
<path d="M5090 7824 c-38 -8 -102 -55 -125 -94 -19 -34 -20 -53 -25 -630 l-5
-595 -245 -6 c-273 -6 -299 -11 -359 -70 -65 -62 -71 -95 -71 -400 0 -171 4
-286 12 -319 15 -67 70 -130 138 -159 l50 -22 0 -477 c1 -270 5 -497 11 -522
5 -25 13 -67 18 -95 8 -48 15 -71 49 -160 81 -217 267 -440 447 -535 11 -6 40
-22 64 -35 24 -14 50 -25 56 -25 7 0 24 -9 38 -20 l26 -20 3 -283 3 -282 27
-40 c51 -75 67 -79 291 -85 161 -4 200 -8 207 -20 22 -35 4 -366 -26 -470 -15
-53 -37 -108 -55 -140 -4 -8 -18 -35 -30 -59 -26 -51 -153 -182 -220 -227 -25
-17 -71 -43 -103 -58 -131 -62 -88 -59 -971 -66 -858 -6 -823 -4 -930 -51 -49
-22 -140 -95 -181 -146 -59 -73 -77 -106 -115 -213 -26 -74 -27 -233 -1 -272
35 -54 65 -68 139 -68 63 0 71 3 104 33 43 39 69 101 69 165 1 94 63 179 148
201 34 8 255 12 812 14 824 4 751 -1 940 54 79 23 267 115 290 143 3 3 21 17
40 30 53 35 180 168 221 230 32 48 49 77 88 150 78 145 121 364 121 616 0 93
4 135 13 142 7 6 90 12 202 14 211 3 232 9 285 80 l25 33 3 285 c3 274 4 286
24 308 12 12 28 22 35 22 16 0 103 47 183 98 71 46 235 210 284 286 56 85 111
197 134 274 11 37 26 85 33 107 10 30 15 171 19 565 l5 524 30 6 c63 13 116
55 158 122 15 24 17 66 17 361 l0 334 -29 39 c-70 96 -100 104 -408 104 -188
0 -243 3 -243 13 0 6 -1 275 -2 597 -3 566 -4 586 -23 615 -54 80 -92 100
-195 100 -103 0 -141 -20 -195 -100 -19 -29 -20 -49 -23 -615 -1 -322 -2 -591
-2 -597 0 -10 -107 -13 -500 -13 l-499 0 -3 598 c-3 558 -4 600 -21 626 -45
68 -92 96 -170 101 -34 2 -73 1 -87 -1z m2037 -1692 c10 -6 18 -136 14 -220
-1 -10 -257 -12 -1263 -10 l-1263 3 -3 104 c-2 67 1 108 9 117 10 12 203 14
1253 14 682 0 1246 -4 1253 -8z m-172 -1097 c0 -533 0 -536 -51 -638 -8 -16
-14 -32 -14 -37 0 -23 -81 -140 -135 -196 -60 -63 -184 -154 -208 -154 -7 0
-17 -4 -23 -9 -5 -5 -36 -20 -69 -32 -59 -22 -70 -23 -541 -27 -275 -2 -508 1
-545 6 -81 12 -131 31 -247 91 -35 18 -195 178 -213 213 -118 227 -119 233
-119 791 0 256 3 473 6 481 6 15 107 16 1083 14 l1076 -3 0 -500z m-717 -1580
c1 -71 0 -140 -3 -153 l-5 -22 -358 2 -357 3 -3 153 -3 152 363 -2 363 -3 3
-130z"/>
<path d="M3214 6912 c-21 -21 -55 -62 -74 -91 -54 -82 -169 -241 -363 -504
-98 -133 -193 -262 -211 -287 -18 -25 -70 -97 -116 -160 -46 -63 -100 -137
-120 -165 -94 -130 -287 -393 -451 -615 -99 -135 -193 -263 -209 -285 -16 -22
-102 -139 -192 -260 -238 -320 -231 -309 -232 -382 -1 -55 2 -65 28 -92 57
-60 71 -61 598 -61 307 0 478 -4 478 -10 0 -10 -13 -67 -37 -165 -8 -33 -20
-85 -28 -115 -7 -30 -19 -77 -25 -105 -7 -27 -16 -68 -20 -90 -9 -47 -26 -120
-46 -191 -8 -28 -14 -59 -14 -69 0 -10 -6 -41 -14 -69 -8 -28 -22 -82 -31
-121 -9 -38 -22 -95 -30 -125 -7 -30 -19 -77 -25 -105 -7 -27 -16 -68 -20 -90
-4 -22 -13 -62 -20 -90 -6 -27 -18 -75 -25 -105 -8 -30 -20 -82 -28 -115 -8
-33 -21 -82 -27 -110 -7 -27 -16 -70 -20 -95 -5 -25 -14 -58 -20 -75 -7 -16
-13 -69 -13 -117 -2 -78 0 -89 21 -111 47 -50 143 -54 195 -8 17 14 100 126
122 163 6 9 64 96 130 193 66 97 127 187 135 200 8 13 42 63 75 110 33 48 67
97 75 110 8 13 42 62 75 110 33 47 67 97 75 110 16 25 184 273 321 473 46 68
91 134 99 147 8 12 56 82 105 155 50 72 97 142 105 155 8 13 65 97 126 187 61
90 158 233 215 318 58 85 139 205 180 265 86 126 106 183 88 245 -14 46 -60
93 -108 109 -23 7 -174 11 -481 11 -357 0 -450 3 -458 13 -8 10 -8 27 3 63 14
49 33 124 61 239 8 33 21 81 29 106 8 26 15 55 15 64 0 10 7 43 16 74 34 121
63 236 73 286 13 62 32 136 47 180 8 23 14 49 14 59 0 11 7 44 16 75 25 89 55
202 73 281 24 103 47 190 75 291 9 31 16 77 16 102 0 41 -5 52 -40 87 -37 37
-44 40 -93 40 -49 0 -57 -4 -93 -38z m-364 -1153 c-5 -18 -15 -61 -23 -94 -8
-33 -20 -80 -27 -105 -6 -25 -15 -63 -19 -85 -4 -22 -13 -60 -20 -85 -7 -25
-19 -70 -26 -100 -7 -30 -21 -83 -29 -117 -9 -35 -23 -91 -32 -125 -8 -35 -22
-86 -30 -114 -8 -28 -14 -82 -14 -120 0 -63 3 -73 29 -102 17 -18 42 -37 56
-42 16 -6 192 -10 446 -10 333 0 419 -3 419 -13 0 -12 -27 -52 -224 -340 -45
-65 -85 -126 -91 -135 -5 -10 -21 -33 -35 -52 -14 -19 -29 -42 -35 -52 -10
-17 -83 -125 -255 -376 -47 -68 -92 -134 -100 -147 -8 -13 -55 -82 -105 -155
-49 -72 -97 -142 -105 -155 -76 -118 -165 -245 -172 -245 -12 0 -10 47 6 104
18 65 36 140 47 191 4 22 13 60 19 85 16 60 35 139 55 225 9 39 22 95 30 125
29 119 38 156 45 190 12 55 30 130 46 186 28 102 7 182 -59 223 -34 20 -45 21
-465 21 -237 0 -433 3 -436 8 -5 8 70 111 209 286 35 44 255 333 338 444 16
20 37 47 47 59 10 12 121 158 246 325 198 265 262 343 271 334 1 -1 -2 -18 -7
-37z"/>
</g>
</svg>
