<?xml version="1.0" standalone="no"?>
<!DOCTYPE svg PUBLIC "-//W3C//DTD SVG 20010904//EN"
 "http://www.w3.org/TR/2001/REC-SVG-20010904/DTD/svg10.dtd">
<svg version="1.0" xmlns="http://www.w3.org/2000/svg"
 width="900.000000pt" height="900.000000pt" viewBox="0 0 900.000000 900.000000"
 preserveAspectRatio="xMidYMid meet">
<metadata>
Created by potrace 1.10, written by Peter Selinger 2001-2011
</metadata>
<g transform="translate(0.000000,900.000000) scale(0.100000,-0.100000)"
fill="#00000090" stroke="none">
<path d="M7218 7711 c-135 -48 -141 -54 -636 -546 -261 -258 -493 -495 -515
-525 -54 -71 -72 -109 -93 -197 -15 -67 -15 -76 1 -145 9 -40 22 -84 28 -97
11 -22 4 -31 -116 -147 -70 -68 -132 -124 -138 -124 -10 0 -84 56 -239 180
-326 261 -388 308 -444 337 -46 23 -58 25 -160 22 l-111 -4 -7 279 c-4 176 -3
286 3 297 9 18 46 19 735 21 l726 3 34 39 c28 32 34 47 34 85 0 61 -36 116
-81 125 -59 11 -4493 7 -4527 -5 -40 -14 -72 -65 -72 -115 0 -22 -5 -57 -10
-79 -6 -22 -14 -71 -19 -110 -5 -38 -14 -95 -20 -125 -10 -52 -18 -104 -56
-335 -8 -55 -21 -127 -27 -160 -6 -33 -15 -87 -18 -120 -4 -33 -12 -85 -18
-115 -6 -30 -18 -102 -27 -160 -9 -58 -23 -136 -31 -175 -8 -38 -14 -83 -14
-100 0 -16 -6 -61 -14 -100 -8 -38 -22 -115 -31 -170 -9 -55 -23 -134 -31
-175 -8 -42 -14 -90 -14 -107 0 -17 -5 -44 -10 -58 -6 -15 -14 -61 -19 -103
-5 -42 -14 -102 -20 -132 -5 -30 -16 -84 -22 -120 -7 -36 -16 -92 -20 -125 -3
-33 -12 -89 -18 -125 -7 -36 -19 -108 -27 -160 -9 -52 -20 -117 -26 -145 -5
-27 -14 -79 -18 -115 -4 -36 -12 -90 -18 -120 -6 -30 -18 -102 -27 -160 -9
-58 -23 -141 -30 -185 -7 -44 -21 -125 -30 -180 -40 -246 -47 -283 -57 -340
-6 -33 -14 -85 -18 -115 -4 -30 -12 -84 -19 -120 -59 -308 -61 -334 -61 -709
0 -383 2 -401 58 -434 29 -16 216 -17 3546 -17 l3516 0 37 34 37 33 -3 399
c-2 320 -5 410 -17 454 -27 97 -42 154 -59 220 -9 36 -22 88 -30 115 -7 28
-21 79 -30 115 -9 36 -23 88 -30 115 -8 28 -21 79 -30 115 -9 36 -23 88 -30
115 -8 28 -21 79 -30 115 -9 36 -23 88 -30 115 -8 28 -21 79 -30 115 -9 36
-23 88 -30 115 -8 28 -21 79 -30 115 -9 36 -23 89 -31 118 -8 28 -20 76 -28
105 -8 28 -21 79 -29 112 -9 33 -23 89 -33 125 -9 36 -23 90 -31 120 -8 30
-20 78 -28 105 -7 28 -21 79 -30 115 -9 36 -22 86 -30 111 -8 26 -15 54 -15
64 0 10 -7 38 -14 64 -18 55 -39 133 -61 221 -9 36 -22 88 -30 115 -7 28 -21
79 -30 115 -9 36 -22 86 -30 111 -8 26 -15 54 -15 63 0 10 -10 40 -21 67 -17
38 -31 55 -60 70 -48 24 -70 24 -117 0 -62 -32 -86 -93 -61 -158 6 -15 15 -48
19 -73 5 -25 14 -65 20 -90 7 -25 19 -72 27 -105 47 -193 50 -204 88 -340 9
-33 23 -85 31 -115 9 -30 21 -77 29 -105 7 -27 21 -79 30 -115 9 -36 23 -86
31 -113 8 -26 12 -52 9 -57 -4 -6 -93 -10 -226 -10 -242 0 -237 -2 -202 63 26
48 25 217 -2 277 -29 67 -87 140 -158 199 -34 29 -91 81 -127 115 -36 35 -101
94 -146 132 -44 39 -100 89 -124 112 -24 23 -47 42 -51 42 -4 0 -9 10 -12 22
-5 17 10 36 76 98 159 148 231 210 245 210 29 0 128 33 186 62 67 34 128 78
201 147 28 26 115 107 195 181 80 74 176 163 214 199 38 36 74 71 80 76 151
139 340 320 369 353 79 91 137 251 137 377 0 44 -22 151 -42 205 -55 148 -188
271 -357 331 -72 25 -243 25 -313 0z m319 -288 c94 -62 127 -127 128 -253 0
-128 -25 -171 -190 -324 -71 -66 -142 -132 -156 -146 -60 -58 -299 -281 -359
-335 -36 -32 -94 -87 -130 -121 -158 -152 -223 -194 -300 -194 -63 0 -208 117
-269 216 -38 62 -42 132 -11 191 30 58 936 957 985 978 63 28 105 34 180 29
57 -5 78 -11 122 -41z m-4458 -377 c9 -11 9 -77 1 -276 -5 -144 -13 -267 -16
-272 -3 -5 -10 -109 -14 -231 -7 -195 -10 -223 -26 -234 -24 -18 -1279 -19
-1290 -1 -10 17 -6 91 10 188 9 47 22 128 30 180 9 52 22 138 31 190 8 52 22
138 30 190 22 133 46 264 52 273 2 4 269 7 592 7 495 0 590 -2 600 -14z m1419
-4 c16 -16 20 -43 25 -218 4 -109 11 -230 17 -269 5 -38 9 -125 10 -192 l0
-122 -107 -110 -108 -111 -502 0 c-339 0 -504 3 -508 10 -16 26 11 996 28
1018 7 9 133 12 568 12 529 0 560 -1 577 -18z m480 -844 c52 -38 156 -120 167
-132 14 -16 95 -80 205 -166 52 -40 97 -76 100 -79 3 -4 24 -21 48 -40 23 -18
42 -38 42 -45 0 -7 -43 -53 -97 -102 -53 -49 -103 -96 -112 -104 -9 -9 -79
-73 -156 -143 -148 -135 -149 -136 -180 -182 -84 -128 -72 -289 30 -390 57
-58 133 -85 234 -85 126 1 169 26 373 221 90 86 192 182 228 215 36 32 83 75
105 96 21 21 46 38 55 38 8 0 42 -26 75 -58 33 -32 103 -96 155 -142 254 -227
370 -343 370 -372 0 -23 -47 -77 -80 -92 -8 -3 -28 -15 -45 -26 -16 -11 -39
-24 -50 -30 -11 -6 -33 -19 -50 -30 -16 -11 -39 -24 -50 -30 -11 -6 -33 -19
-50 -30 -16 -11 -39 -24 -50 -30 -11 -6 -33 -19 -50 -30 -16 -11 -37 -23 -45
-27 -8 -4 -46 -26 -85 -48 -38 -23 -77 -44 -85 -48 -8 -4 -28 -16 -45 -27 -16
-11 -37 -23 -45 -27 -8 -4 -58 -32 -110 -63 -52 -31 -102 -59 -110 -63 -8 -4
-28 -16 -45 -27 -16 -11 -39 -24 -50 -30 -11 -6 -33 -19 -50 -29 -16 -11 -50
-31 -75 -44 -25 -14 -61 -34 -80 -45 -36 -22 -51 -30 -135 -76 -27 -15 -63
-36 -80 -46 -31 -19 -43 -26 -130 -74 -27 -15 -63 -36 -80 -47 -16 -10 -39
-23 -50 -29 -11 -5 -47 -26 -80 -45 -33 -19 -69 -39 -80 -45 -11 -6 -42 -24
-70 -41 -27 -16 -63 -37 -80 -45 -16 -8 -43 -23 -60 -34 -16 -11 -37 -23 -45
-27 -8 -4 -46 -26 -85 -48 -38 -23 -77 -44 -85 -48 -8 -4 -28 -16 -45 -27 -16
-11 -37 -23 -45 -27 -8 -4 -46 -25 -85 -48 -38 -22 -77 -44 -85 -48 -8 -4 -28
-16 -45 -27 -16 -11 -37 -23 -45 -27 -8 -3 -32 -17 -53 -30 -114 -71 -166 -93
-222 -93 l-55 0 -278 269 c-448 435 -602 594 -602 622 0 13 12 38 27 54 93
101 293 316 328 351 77 79 201 210 365 384 143 153 221 235 320 339 14 14 72
78 130 141 57 63 116 127 130 141 59 61 311 329 365 389 33 36 71 77 85 91 14
14 83 88 155 165 257 275 260 278 323 232z m1246 -272 l31 -38 -50 -45 c-28
-26 -117 -110 -199 -187 -82 -78 -161 -152 -176 -166 -15 -14 -78 -72 -141
-130 -63 -57 -150 -139 -194 -182 -211 -203 -224 -212 -271 -188 -44 24 -31
51 78 151 56 52 113 105 127 119 14 14 67 62 116 107 113 100 180 165 428 410
108 107 202 193 209 191 6 -2 26 -21 42 -42z m-3211 -166 c11 0 8 -331 -3
-430 -6 -47 -14 -204 -20 -350 -9 -253 -16 -369 -26 -417 -11 -55 9 -54 -765
-53 -392 0 -717 4 -722 9 -5 5 -4 35 1 67 6 33 18 104 27 159 8 55 20 125 26
155 6 30 12 73 15 95 3 22 11 76 19 120 8 44 21 127 30 185 9 58 23 137 31
175 8 39 14 84 14 102 0 38 28 164 40 178 6 8 752 11 1333 5z m1062 -10 c4 -6
-6 -25 -20 -43 -23 -26 -241 -259 -335 -356 -14 -14 -99 -105 -190 -201 -276
-293 -282 -298 -292 -267 -4 12 8 203 37 577 9 107 15 216 15 241 0 25 3 49 7
52 11 12 771 8 778 -3z m-1420 -1510 c4 -6 -4 -24 -17 -39 -139 -169 -152
-194 -153 -296 0 -109 23 -145 235 -357 116 -116 180 -188 181 -202 3 -84 -4
-267 -18 -473 l-17 -243 -854 0 -855 0 6 43 c3 23 10 67 16 97 10 52 19 110
56 335 8 55 20 125 26 155 6 30 12 73 15 95 3 22 11 76 19 120 7 44 21 125 30
180 8 55 22 137 30 181 8 45 15 95 15 112 0 17 4 42 10 57 5 14 14 65 20 112
5 47 16 96 25 109 l15 24 605 0 c411 0 606 -3 610 -10z m4685 0 c10 -5 21 -24
25 -42 3 -18 12 -55 20 -83 7 -27 21 -79 30 -115 9 -36 22 -87 30 -115 7 -27
20 -77 28 -110 28 -110 48 -189 63 -242 8 -29 20 -77 28 -105 8 -29 22 -82 31
-118 9 -36 23 -89 31 -117 8 -29 20 -77 28 -105 8 -29 22 -82 31 -118 20 -78
40 -152 60 -222 8 -29 16 -66 17 -83 l3 -30 -990 0 -990 0 -6 95 c-3 52 -11
138 -17 190 -12 98 -30 274 -57 555 -8 88 -20 200 -25 250 -11 104 -9 107 73
149 28 15 59 31 67 37 31 19 166 96 180 102 8 4 31 17 50 28 19 12 55 32 80
46 25 13 59 33 75 43 17 11 44 26 60 35 17 8 59 30 95 50 l64 35 449 0 c277 0
455 -4 467 -10z m-1901 -697 c6 -60 16 -151 22 -203 6 -52 15 -142 19 -200 8
-113 25 -287 40 -414 6 -43 7 -82 4 -87 -3 -5 -511 -9 -1196 -9 l-1191 0 6
193 c7 209 14 266 32 273 6 3 65 -50 131 -116 128 -131 198 -188 254 -207 46
-16 215 -16 260 0 19 7 55 24 80 37 25 14 52 28 60 33 8 4 29 16 45 27 17 11
37 23 45 27 8 4 58 32 110 63 52 31 102 59 110 63 8 4 22 11 30 17 22 14 162
95 180 103 8 4 29 16 45 26 17 11 53 32 80 47 89 49 100 55 130 74 17 11 39
24 51 29 19 8 137 77 174 101 8 6 22 13 30 17 8 4 47 25 85 48 39 22 77 44 85
48 8 4 29 16 45 27 34 21 57 34 133 74 29 16 55 33 59 39 14 23 31 -28 42
-130z m2366 -1195 c2 -7 6 -91 8 -186 5 -144 3 -175 -10 -187 -13 -13 -399
-15 -3341 -13 l-3327 3 -3 198 -2 197 3335 0 c2660 0 3336 -3 3340 -12z"/>
</g>
</svg>
