<?xml version="1.0" standalone="no"?>
<!DOCTYPE svg PUBLIC "-//W3C//DTD SVG 20010904//EN"
 "http://www.w3.org/TR/2001/REC-SVG-20010904/DTD/svg10.dtd">
<svg version="1.0" xmlns="http://www.w3.org/2000/svg"
 width="900.000000pt" height="900.000000pt" viewBox="0 0 900.000000 900.000000"
 preserveAspectRatio="xMidYMid meet">
<metadata>
Created by potrace 1.10, written by Peter Selinger 2001-2011
</metadata>
<g transform="translate(0.000000,900.000000) scale(0.100000,-0.100000)"
fill="#00000090" stroke="none">
<path d="M4152 8101 c-65 -26 -106 -63 -138 -126 -27 -54 -33 -59 -99 -87
-133 -55 -244 -113 -306 -160 -20 -16 -41 -28 -46 -28 -16 0 -187 -155 -255
-231 -77 -85 -151 -182 -194 -254 -37 -60 -124 -239 -124 -254 0 -6 -6 -25
-14 -43 -8 -18 -21 -58 -29 -88 -9 -30 -23 -79 -31 -109 -9 -29 -16 -65 -16
-80 0 -35 -26 -176 -34 -190 -4 -6 -15 -11 -25 -11 -27 0 -79 -61 -97 -114
-30 -87 9 -229 82 -300 31 -31 111 -66 147 -66 15 0 18 -7 15 -52 -3 -47 -6
-54 -32 -66 -44 -22 -102 -85 -125 -138 -76 -170 10 -542 156 -675 34 -32 129
-89 146 -89 24 0 56 -31 66 -63 27 -87 65 -178 129 -302 61 -120 80 -151 125
-204 29 -34 29 -36 23 -117 -14 -167 -56 -228 -203 -298 -43 -20 -91 -43 -106
-51 -16 -8 -36 -15 -45 -15 -9 0 -26 -7 -36 -15 -11 -8 -27 -15 -35 -15 -9 0
-29 -7 -45 -15 -15 -8 -36 -15 -45 -15 -9 0 -22 -5 -28 -11 -6 -6 -26 -14 -44
-19 -19 -5 -59 -18 -89 -30 -30 -12 -70 -25 -89 -30 -18 -5 -38 -13 -44 -19
-6 -6 -19 -11 -29 -11 -9 0 -32 -6 -50 -14 -18 -8 -53 -22 -78 -31 -123 -47
-330 -150 -419 -209 -75 -49 -189 -144 -265 -221 -38 -40 -156 -189 -156 -199
0 -3 -13 -24 -28 -48 -32 -47 -50 -82 -77 -143 -10 -22 -22 -48 -26 -57 -39
-79 -96 -305 -111 -438 -14 -126 -22 -1057 -9 -1100 6 -20 24 -49 41 -65 l31
-30 1364 0 1363 0 27 25 c61 56 74 141 30 185 l-24 25 -855 0 -856 0 -5 23
c-3 12 -5 192 -3 399 l3 377 34 35 c19 20 52 45 73 56 38 20 59 20 1046 20
967 0 1008 1 1035 19 43 28 67 74 67 130 0 87 57 81 -732 81 -383 0 -703 3
-712 6 -14 6 -16 67 -16 589 0 551 1 583 18 598 39 35 73 22 135 -53 115 -139
317 -278 532 -365 115 -47 193 -65 345 -81 128 -13 159 -13 280 0 176 20 251
42 415 121 50 24 107 55 128 69 21 14 40 26 43 26 15 0 142 107 233 197 107
106 128 116 165 88 50 -38 126 -3 167 77 35 68 30 76 -86 152 -169 111 -183
131 -205 276 l-13 86 51 74 c83 125 205 376 239 495 10 33 20 41 84 66 116 46
209 157 258 309 46 142 52 172 53 280 0 93 -3 116 -22 154 -28 59 -103 142
-135 150 -18 5 -26 15 -30 40 -11 56 -4 66 60 88 118 39 186 142 188 284 1 77
-1 83 -31 121 -17 23 -47 48 -66 57 -40 19 -44 29 -56 134 -20 185 -83 387
-171 553 -39 74 -45 85 -74 129 -84 128 -174 233 -295 344 -87 80 -189 150
-305 211 -27 14 -57 30 -65 34 -18 11 -70 33 -130 57 -56 22 -70 32 -70 51 0
17 -52 88 -84 116 -12 9 -41 26 -65 37 -40 19 -65 20 -335 19 -254 0 -297 -2
-334 -18z m589 -243 c17 -22 18 -46 19 -399 l0 -376 23 -20 c50 -46 96 -54
147 -28 60 31 64 53 70 345 6 297 -1 278 82 239 111 -52 239 -141 336 -233 64
-61 194 -222 216 -266 10 -22 30 -56 42 -71 10 -13 62 -134 89 -209 32 -87 74
-259 67 -279 -4 -11 -18 -10 -112 14 -161 40 -442 90 -600 106 -47 5 -116 13
-155 18 -89 13 -835 13 -935 1 -41 -5 -104 -12 -140 -15 -90 -8 -276 -34 -330
-47 -25 -5 -70 -13 -100 -18 -57 -7 -119 -22 -205 -46 -27 -8 -63 -15 -80 -16
-27 -3 -30 0 -33 27 -4 27 2 52 44 205 23 83 80 207 138 305 100 168 289 361
451 462 57 36 186 94 195 88 6 -4 10 -98 10 -272 0 -296 3 -311 69 -339 61
-26 106 -15 148 35 22 26 22 29 23 400 0 334 2 376 17 393 15 16 36 18 250 18
231 0 235 0 254 -22z m259 -1403 c308 -30 525 -71 800 -152 187 -54 235 -92
135 -104 -27 -4 -68 -11 -90 -18 -29 -8 -413 -11 -1355 -11 -1350 0 -1366 0
-1497 36 -37 10 5 35 117 70 30 9 71 22 90 29 42 15 111 33 165 44 38 8 62 14
197 47 32 8 70 14 85 14 16 0 66 6 113 14 303 52 875 66 1240 31z m740 -637
c5 -98 7 -110 30 -132 14 -13 54 -33 89 -43 57 -16 66 -22 73 -48 10 -37 0
-139 -18 -184 -8 -18 -14 -41 -14 -51 0 -31 -47 -124 -76 -151 -34 -30 -103
-59 -142 -59 -29 0 -82 -44 -82 -68 0 -6 -7 -28 -16 -49 -9 -21 -23 -53 -30
-70 -8 -18 -20 -48 -28 -65 -17 -42 -113 -237 -129 -263 -89 -144 -267 -333
-389 -412 -65 -42 -77 -49 -153 -85 -94 -46 -127 -57 -215 -74 -210 -39 -439
5 -625 119 -149 91 -312 253 -422 418 -39 59 -153 292 -153 312 0 9 -4 18 -10
22 -5 3 -14 20 -19 38 -38 124 -74 177 -122 177 -39 0 -112 35 -146 71 -47 48
-75 129 -95 274 -14 109 -7 126 68 149 33 10 71 30 87 44 26 25 27 29 27 127
0 56 3 105 7 108 3 4 567 6 1252 5 l1246 -3 5 -107z m-459 -1755 c11 -27 25
-55 30 -63 5 -8 13 -25 18 -37 6 -11 15 -24 20 -28 28 -17 8 -55 -72 -136 -81
-82 -175 -157 -253 -199 -21 -11 -46 -25 -54 -29 -8 -5 -31 -16 -50 -24 -297
-129 -574 -129 -865 -2 -16 7 -37 16 -45 19 -8 3 -24 12 -35 18 -11 7 -51 33
-90 57 -79 50 -98 66 -196 166 -38 38 -69 77 -69 85 0 8 13 42 28 75 16 33 33
73 38 89 14 46 36 53 69 22 35 -32 143 -105 200 -133 155 -79 290 -117 485
-139 67 -7 267 20 340 46 19 7 51 18 70 25 120 43 246 113 340 189 30 25 58
45 62 45 5 1 17 -20 29 -46z m-2181 -983 l0 -540 -22 -5 c-13 -3 -97 -4 -188
-3 l-165 3 0 480 0 480 25 3 c13 2 33 10 44 18 11 8 29 14 39 14 10 0 31 6 45
14 51 26 103 46 120 46 9 0 26 7 36 15 11 8 30 15 43 15 l23 0 0 -540z m-622
-161 l2 -456 -42 -39 c-53 -48 -108 -117 -108 -135 0 -8 -7 -23 -15 -33 -13
-17 -15 -85 -15 -431 0 -306 -3 -414 -12 -423 -9 -9 -91 -12 -309 -12 -164 0
-304 3 -313 6 -14 5 -16 50 -16 403 0 391 11 574 40 676 6 22 18 65 27 95 19
66 45 134 85 215 75 155 196 299 348 415 107 81 281 181 310 177 13 -2 15 -62
18 -458z"/>
<path d="M6600 4311 c-100 -14 -215 -57 -320 -120 -19 -11 -44 -25 -55 -30
-38 -16 -128 -106 -164 -161 -96 -148 -120 -227 -132 -436 -5 -88 -15 -179
-22 -202 -9 -32 -48 -79 -172 -209 -263 -274 -1031 -1044 -1098 -1100 -212
-177 -272 -278 -265 -445 4 -76 16 -128 39 -168 5 -8 12 -22 16 -30 11 -25 66
-92 103 -127 19 -17 64 -46 100 -64 61 -30 71 -32 175 -32 96 0 117 3 165 25
30 14 78 44 105 66 28 22 345 336 705 697 360 362 666 669 680 683 54 52 71
56 280 57 170 1 204 4 262 23 170 54 285 133 391 267 132 167 189 423 141 639
-33 151 -91 211 -182 191 -32 -7 -51 -23 -268 -238 l-152 -149 -28 15 c-51 27
-244 198 -244 215 1 24 13 39 187 215 87 88 166 172 175 186 25 37 24 125 -2
161 -42 59 -75 70 -226 75 -77 2 -164 0 -194 -4z m80 -248 c0 -4 -52 -60 -116
-124 -96 -97 -120 -126 -136 -170 -42 -119 21 -239 202 -384 53 -42 136 -111
153 -126 27 -24 123 -59 163 -59 57 0 103 32 228 159 66 67 123 121 128 121 4
0 8 -24 8 -53 0 -167 -128 -353 -297 -433 l-78 -37 -210 -8 c-115 -4 -223 -11
-240 -15 -89 -19 -114 -41 -580 -508 -254 -254 -569 -571 -701 -707 -147 -149
-257 -254 -282 -267 -33 -17 -60 -22 -115 -22 -94 0 -133 24 -176 108 -27 52
-28 130 -3 171 10 17 103 112 208 212 171 164 438 432 1050 1051 115 117 219
231 231 253 27 54 41 143 47 307 6 145 13 175 69 287 50 99 153 177 304 231
49 18 143 26 143 13z"/>
<path d="M7371 2725 c-38 -17 -121 -101 -121 -123 0 -8 7 -35 15 -61 56 -180
65 -280 65 -744 0 -351 -2 -396 -16 -401 -9 -3 -149 -6 -313 -6 -218 0 -300 3
-309 12 -9 9 -12 117 -12 423 0 346 -2 414 -15 431 -8 10 -15 25 -15 32 -1 43
-129 162 -174 162 -29 0 -126 -91 -126 -117 0 -9 20 -43 45 -74 l45 -58 -2
-403 -3 -403 -470 -5 c-258 -3 -479 -9 -490 -13 -29 -11 -85 -97 -85 -130 0
-15 12 -40 29 -59 l29 -33 1016 0 1015 0 35 34 c56 54 58 79 53 591 -6 532
-12 595 -62 770 -44 154 -50 169 -73 179 -13 6 -24 11 -25 11 -1 -1 -17 -7
-36 -15z"/>
</g>
</svg>
