<?xml version="1.0" standalone="no"?>
<!DOCTYPE svg PUBLIC "-//W3C//DTD SVG 20010904//EN"
 "http://www.w3.org/TR/2001/REC-SVG-20010904/DTD/svg10.dtd">
<svg version="1.0" xmlns="http://www.w3.org/2000/svg"
 width="900.000000pt" height="900.000000pt" viewBox="0 0 900.000000 900.000000"
 preserveAspectRatio="xMidYMid meet">
<metadata>
Created by potrace 1.10, written by Peter Selinger 2001-2011
</metadata>
<g transform="translate(0.000000,900.000000) scale(0.100000,-0.100000)"
fill="#00000090" stroke="none">
<path d="M2120 7100 c-156 -28 -270 -144 -270 -275 0 -27 7 -86 16 -130 8 -44
21 -114 29 -155 7 -41 19 -104 26 -140 7 -36 15 -85 19 -110 7 -48 23 -133 45
-245 24 -125 38 -199 45 -245 4 -25 12 -74 19 -110 7 -36 19 -101 27 -145 8
-44 21 -107 28 -140 8 -33 11 -63 8 -66 -4 -4 -43 -14 -87 -24 -124 -27 -163
-45 -225 -105 -61 -58 -108 -146 -144 -265 -10 -33 -24 -76 -31 -95 -7 -19
-21 -62 -30 -95 -10 -33 -23 -76 -30 -95 -7 -19 -20 -62 -30 -95 -10 -33 -23
-78 -30 -100 -35 -110 -45 -156 -45 -199 0 -52 23 -146 46 -188 13 -25 12 -29
-21 -79 -61 -92 -129 -244 -145 -324 -5 -22 -14 -53 -21 -70 -17 -42 -17 -396
0 -450 7 -22 16 -56 21 -75 50 -213 251 -496 442 -623 59 -38 210 -119 244
-130 10 -3 51 -17 90 -30 109 -38 287 -53 432 -38 107 12 141 20 270 66 218
78 442 263 569 470 20 33 80 158 96 200 35 93 77 293 77 366 l0 49 178 -2 177
-3 0 -160 0 -160 -65 -5 c-79 -7 -118 -26 -162 -82 -47 -61 -58 -84 -68 -137
-11 -62 -28 -151 -46 -236 -19 -92 -18 -174 3 -227 20 -53 37 -73 88 -107 l40
-26 765 0 c758 0 766 0 830 22 177 59 309 160 355 273 4 8 13 30 21 48 9 20
14 67 14 123 0 80 -3 97 -31 152 -35 71 -90 125 -151 148 -87 33 -144 49 -169
49 -45 0 -49 13 -49 176 0 121 3 153 14 157 8 3 154 7 326 8 243 2 314 -1 320
-11 4 -6 2 -29 -5 -49 -16 -46 -45 -207 -45 -252 0 -42 26 -186 47 -259 39
-132 114 -251 233 -370 117 -118 243 -182 420 -216 241 -45 489 17 690 171
247 190 377 521 329 837 -6 40 -17 87 -24 104 -26 61 -27 98 -6 186 12 47 21
112 21 145 0 32 7 113 15 178 8 66 15 152 15 190 0 39 7 115 14 170 20 143 29
416 17 500 -22 149 -90 323 -176 453 -19 30 -35 56 -35 58 0 3 -28 42 -62 87
-102 135 -218 238 -363 324 -115 67 -322 155 -413 174 -23 5 -51 13 -61 19
-11 5 -30 10 -44 10 -13 0 -43 6 -68 14 -42 13 -98 26 -259 62 -81 17 -157 35
-235 54 -27 7 -70 16 -95 20 -48 8 -114 23 -196 46 -28 8 -59 14 -69 14 -10 0
-41 6 -69 14 -84 24 -199 46 -231 45 -49 -1 -134 -33 -165 -62 -16 -16 -39
-46 -51 -68 -13 -21 -26 -39 -31 -39 -8 0 -288 561 -288 578 0 10 154 119 187
132 7 3 35 27 62 53 40 39 51 57 57 92 9 60 -2 97 -37 131 -25 24 -39 29 -82
29 -44 0 -61 -6 -110 -40 -32 -22 -69 -47 -82 -55 -13 -8 -83 -55 -155 -105
-72 -49 -138 -94 -147 -100 -9 -5 -86 -56 -171 -112 -85 -57 -158 -103 -162
-103 -18 0 -52 -52 -57 -88 -10 -75 37 -152 104 -168 26 -7 98 11 123 31 8 7
20 14 25 16 6 2 49 30 97 62 48 31 91 57 96 57 12 0 372 -722 372 -746 0 -11
-4 -24 -9 -29 -4 -6 -25 -40 -45 -77 l-36 -67 0 -424 c0 -328 -3 -427 -12
-435 -8 -6 -203 -12 -499 -17 l-486 -7 -34 29 c-176 149 -228 197 -223 204 3
5 57 9 121 9 117 0 143 7 197 50 25 20 62 79 68 110 3 14 11 39 16 55 6 17 17
55 26 85 8 30 22 80 30 111 37 132 10 288 -65 373 -45 51 -76 69 -169 98 -63
20 -79 20 -492 13 l-427 -7 -15 53 c-9 29 -16 65 -16 81 0 15 -6 60 -14 100
-8 40 -22 116 -31 168 -18 108 -38 218 -55 305 -7 33 -16 83 -20 110 -8 59
-26 154 -46 245 -8 36 -14 72 -14 81 0 63 -93 185 -173 225 -46 23 -66 26
-172 29 -66 2 -140 0 -165 -5z m196 -298 c12 -8 56 -215 74 -347 4 -27 12 -79
19 -115 16 -81 38 -202 56 -300 7 -41 19 -102 25 -135 6 -33 15 -87 20 -120
30 -208 71 -291 173 -347 l42 -23 487 3 487 3 15 -30 c16 -31 12 -64 -23 -166
-5 -16 -14 -46 -18 -65 l-9 -35 -239 -7 c-263 -8 -264 -8 -350 57 -17 14 -60
39 -96 58 -124 64 -240 87 -433 87 l-127 0 -15 35 c-7 19 -14 48 -14 65 0 17
-6 59 -14 93 -8 34 -22 107 -31 162 -9 55 -22 134 -30 175 -7 41 -21 120 -30
175 -28 168 -43 257 -56 325 -7 36 -15 90 -19 120 -4 30 -13 82 -19 115 -6 33
-16 86 -22 118 -5 32 -12 64 -16 72 -3 9 4 18 18 24 29 12 130 14 145 3z
m3129 -990 c28 -5 68 -14 90 -19 22 -6 76 -19 120 -28 178 -37 222 -47 271
-61 28 -8 61 -14 74 -14 13 0 46 -6 74 -14 82 -23 148 -38 196 -46 25 -4 68
-13 95 -20 28 -6 77 -19 110 -27 206 -50 307 -92 456 -189 74 -48 225 -190
267 -251 45 -66 82 -134 82 -153 0 -20 -10 -20 -392 -20 -442 -1 -581 -6 -620
-26 -47 -24 -68 -65 -68 -134 0 -76 11 -97 63 -121 40 -17 74 -19 591 -19
l549 0 -6 -102 c-8 -154 -26 -358 -42 -493 -9 -66 -15 -149 -15 -185 0 -98 -6
-102 -87 -49 -220 143 -476 184 -722 115 -119 -34 -296 -137 -372 -217 l-27
-28 -1305 -2 c-718 0 -1310 2 -1316 5 -6 4 -11 13 -11 20 0 14 -35 97 -76 181
-122 249 -401 484 -664 559 -218 62 -443 59 -640 -8 -74 -25 -129 -45 -148
-55 -89 -45 -113 -58 -154 -88 -31 -23 -49 -30 -53 -22 -7 10 8 67 40 159 7
19 20 62 30 95 9 33 23 75 31 93 8 18 14 41 14 52 0 11 6 34 14 52 7 18 21 60
31 93 35 121 48 144 88 165 35 19 58 20 350 20 172 0 328 -5 347 -10 19 -5 51
-13 71 -18 75 -19 186 -89 294 -183 83 -72 154 -135 190 -168 22 -20 76 -67
121 -106 44 -38 114 -99 155 -135 132 -117 46 -105 744 -104 566 0 613 2 645
18 48 25 88 64 113 111 21 39 22 53 27 490 l5 450 29 55 c59 111 155 297 181
349 l27 53 41 -6 c23 -3 65 -10 92 -14z m-2848 -1908 c85 -36 111 -50 166 -92
194 -147 264 -396 176 -632 -32 -84 -124 -203 -194 -248 -113 -74 -173 -92
-312 -92 -144 0 -211 22 -332 112 -168 125 -247 336 -203 543 8 33 20 73 28
88 8 16 14 33 14 37 0 11 57 97 84 128 54 60 141 116 236 153 63 24 283 26
337 3z m4243 -423 c82 -24 116 -42 161 -83 54 -49 85 -96 108 -163 26 -74 26
-125 2 -203 -53 -166 -190 -270 -356 -271 -287 -2 -462 316 -307 557 53 82
124 134 222 164 72 22 93 22 170 -1z m-1852 -69 c9 -6 12 -47 10 -168 l-3
-159 -381 -3 c-298 -2 -384 1 -391 10 -6 7 -13 80 -16 161 -5 138 -4 149 14
155 28 11 752 14 767 4z m-323 -629 c667 -2 711 -3 723 -20 21 -28 7 -82 -28
-114 -16 -16 -53 -39 -81 -53 l-50 -26 -681 0 c-374 0 -683 2 -686 5 -3 3 0
31 7 63 7 31 16 77 21 101 8 46 26 65 50 54 8 -4 334 -8 725 -10z"/>
</g>
</svg>
