<?xml version="1.0" standalone="no"?>
<!DOCTYPE svg PUBLIC "-//W3C//DTD SVG 20010904//EN"
 "http://www.w3.org/TR/2001/REC-SVG-20010904/DTD/svg10.dtd">
<svg version="1.0" xmlns="http://www.w3.org/2000/svg"
 width="300.000000pt" height="300.000000pt" viewBox="0 0 300.000000 300.000000"
 preserveAspectRatio="xMidYMid meet">
<metadata>
Created by potrace 1.10, written by Peter Selinger 2001-2011
</metadata>
<g transform="translate(0.000000,300.000000) scale(0.100000,-0.100000)"
fill="#000000" stroke="none">
<path d="M663 2350 c-18 -11 -35 -31 -39 -44 -5 -20 63 -443 82 -507 3 -12 -6
-19 -40 -28 -65 -16 -89 -52 -136 -199 -43 -136 -46 -156 -30 -197 8 -21 6
-32 -9 -54 -60 -84 -68 -250 -17 -349 78 -152 244 -241 397 -212 163 31 280
149 310 314 l12 66 58 0 57 0 4 -55 c3 -54 3 -55 -25 -55 -44 0 -72 -39 -86
-119 -15 -94 -14 -108 9 -131 19 -19 33 -20 288 -20 258 1 268 1 312 24 83 42
113 124 70 193 -17 28 -65 53 -105 53 -6 0 -10 25 -9 55 l0 56 113 3 112 4 -8
-32 c-26 -102 9 -219 87 -290 59 -53 103 -69 185 -70 119 0 212 61 263 173 29
62 36 168 14 208 -8 14 -9 30 -2 50 10 32 30 265 30 354 0 192 -154 359 -385
418 -131 33 -397 91 -418 91 -10 0 -31 -13 -46 -29 l-28 -29 -49 100 c-32 66
-45 102 -37 105 6 2 30 17 52 34 32 23 41 36 41 59 0 19 -7 33 -20 40 -18 10
-40 -2 -158 -81 -152 -101 -162 -111 -155 -140 11 -40 41 -43 95 -10 27 17 51
31 54 31 2 0 31 -55 65 -122 61 -121 61 -122 45 -155 -12 -26 -16 -66 -16
-178 l0 -145 -166 0 -166 0 -50 40 -51 40 47 0 c69 0 83 12 106 86 34 111 23
165 -40 197 -30 15 -58 17 -184 16 l-149 -2 -29 169 c-36 212 -44 241 -73 270
-20 20 -34 24 -87 24 -45 0 -72 -6 -95 -20z m149 -39 c22 -18 29 -41 59 -208
39 -213 48 -232 120 -243 l44 -7 -56 -2 c-42 -1 -60 3 -71 17 -13 14 -47 169
-74 337 -18 108 -90 146 -139 71 -12 -18 -13 -33 -5 -76 5 -29 10 -64 9 -79 0
-14 -9 14 -18 63 -10 49 -16 97 -14 107 11 39 104 52 145 20z m4 -237 c18
-104 34 -194 34 -200 0 -6 11 -23 25 -38 l24 -26 170 0 c93 0 172 -3 175 -8 2
-4 -1 -27 -7 -50 l-11 -42 -82 0 c-71 0 -89 4 -140 30 -45 23 -75 31 -129 34
l-70 3 -37 214 c-20 118 -39 228 -43 246 -5 27 -3 32 17 35 13 2 27 1 31 -3 5
-4 24 -92 43 -195z m761 148 c-10 -10 -17 -32 -17 -48 0 -39 69 -173 102 -197
26 -20 26 -20 56 2 18 12 44 21 64 20 21 -1 26 -3 13 -6 -33 -8 -64 -43 -106
-119 l-39 -71 0 -151 c0 -139 -2 -152 -19 -162 -36 -19 -42 -10 -17 23 25 32
26 40 26 159 0 85 5 139 15 167 13 39 13 46 -6 94 -11 29 -39 87 -61 130 -42
80 -73 108 -113 99 -18 -4 18 26 85 70 31 19 39 15 17 -10z m423 -321 c121
-27 240 -59 264 -71 56 -27 128 -90 155 -135 l20 -35 -165 0 c-95 0 -174 -4
-185 -10 -22 -12 -26 -59 -7 -78 8 -8 67 -12 201 -12 l190 0 -7 -75 c-20 -245
-17 -227 -35 -211 -36 33 -106 56 -171 56 -70 0 -128 -21 -187 -66 l-32 -24
-434 0 -434 0 -18 46 c-26 68 -112 155 -186 189 -115 51 -257 41 -349 -26 -22
-16 -40 -28 -39 -27 0 2 19 59 42 128 l42 125 124 3 c154 3 165 -1 319 -138
l113 -100 211 0 c276 0 258 -13 258 194 l0 151 42 82 c24 46 44 83 45 83 1 0
101 -22 223 -49z m-733 -49 c6 -4 17 -21 23 -37 l11 -30 -33 32 c-18 17 -46
33 -63 36 -25 3 -24 4 10 5 22 1 45 -2 52 -6z m1150 -76 c52 -59 91 -132 99
-187 l7 -44 -29 26 c-16 15 -45 30 -64 34 -20 5 -29 10 -20 13 76 24 62 106
-33 188 -23 20 -32 31 -21 25 12 -6 39 -30 61 -55z m-1612 -32 c8 -4 12 -10 9
-15 -6 -10 -97 -12 -107 -3 -4 4 5 20 18 36 14 16 25 35 25 41 0 7 9 -3 20
-21 11 -18 27 -35 35 -38z m475 -34 c0 -27 -35 -60 -63 -60 -13 0 -34 -11 -46
-24 -28 -29 -21 -45 39 -100 23 -21 40 -40 37 -42 -5 -5 -109 81 -212 174 -46
41 -47 43 -15 27 26 -14 56 -19 120 -18 81 1 85 2 110 31 30 37 30 37 30 12z
m-701 -294 c17 -15 23 -14 92 15 95 41 195 45 276 10 59 -26 139 -105 172
-169 12 -23 35 -51 51 -64 l30 -22 -24 -25 c-14 -16 -28 -50 -36 -88 -16 -79
-58 -152 -112 -196 -71 -58 -105 -70 -200 -75 -80 -4 -92 -2 -151 26 -124 57
-187 152 -195 288 -4 71 -1 87 24 145 18 41 28 84 29 119 1 30 6 71 11 90 l9
35 3 -36 c2 -20 11 -44 21 -53z m1798 -155 c54 -27 67 -27 96 4 l23 26 1 -160
2 -159 -32 -53 c-37 -61 -111 -113 -176 -122 -99 -13 -196 35 -245 123 -29 51
-31 62 -29 142 1 73 -1 89 -17 103 -25 22 -17 35 21 35 18 0 48 13 73 31 24
17 61 37 82 45 53 19 148 12 201 -15z m-974 -67 c4 -4 -5 -21 -19 -37 -37 -43
-30 -109 15 -149 33 -30 29 -34 -33 -29 -48 4 -76 -8 -96 -42 -19 -30 -20 -31
-20 -8 0 25 25 61 43 61 6 0 21 10 34 22 33 31 32 105 -2 146 -18 22 -22 32
-13 35 19 8 84 8 91 1z m360 0 c4 -4 -5 -21 -19 -37 -34 -41 -29 -105 10 -146
23 -24 25 -29 11 -35 -22 -8 -84 -6 -115 4 -23 7 -23 8 -3 9 60 3 87 125 38
171 -13 12 -22 27 -19 31 6 10 88 12 97 3z m-93 -104 l0 -60 -132 0 -133 0 -2
55 -2 54 132 4 c73 1 133 4 135 5 1 1 2 -25 2 -58z m182 -155 c19 -43 -14 -96
-75 -118 -9 -4 1 11 23 32 46 43 49 61 18 103 l-21 30 22 -11 c12 -7 27 -23
33 -36z m-47 -16 c6 -6 1 -17 -13 -32 -22 -21 -31 -22 -262 -27 -174 -4 -240
-2 -240 6 0 6 3 24 6 40 l5 29 247 -3 c138 -2 251 -7 257 -13z m-527 -82 c24
-23 37 -26 112 -30 81 -3 79 -3 -26 -5 -129 -2 -140 3 -127 65 5 26 8 31 11
17 2 -12 15 -33 30 -47z"/>
<path d="M724 1332 c-94 -44 -151 -161 -124 -256 26 -94 120 -166 216 -166
124 1 214 96 214 228 0 71 -37 136 -101 179 -55 36 -145 43 -205 15z m176 -42
c73 -37 111 -123 90 -202 -24 -87 -88 -138 -175 -138 -77 0 -140 41 -170 113
-49 118 38 247 168 247 28 0 64 -8 87 -20z"/>
<path d="M2194 1192 c-110 -52 -131 -180 -43 -264 84 -80 202 -52 251 59 57
128 -81 263 -208 205z m117 -37 c16 -9 39 -30 49 -48 74 -121 -91 -248 -191
-148 -58 58 -42 157 31 193 43 22 72 23 111 3z"/>
</g>
</svg>
