<?xml version="1.0" standalone="no"?>
<!DOCTYPE svg PUBLIC "-//W3C//DTD SVG 20010904//EN"
 "http://www.w3.org/TR/2001/REC-SVG-20010904/DTD/svg10.dtd">
<svg version="1.0" xmlns="http://www.w3.org/2000/svg"
 width="900.000000pt" height="900.000000pt" viewBox="0 0 900.000000 900.000000"
 preserveAspectRatio="xMidYMid meet">
<metadata>
Created by potrace 1.10, written by Peter Selinger 2001-2011
</metadata>
<g transform="translate(0.000000,900.000000) scale(0.100000,-0.100000)"
fill="#00000090" stroke="none">
<path d="M6032 7760 c-18 -11 -37 -31 -42 -45 -5 -13 -10 -107 -11 -209 -1
-120 -5 -191 -13 -201 -10 -13 -78 -16 -566 -18 -503 -2 -557 -4 -579 -19 -60
-43 -77 -114 -41 -173 42 -68 20 -66 722 -63 l633 3 32 24 c45 34 64 89 63
180 -2 105 -1 111 11 111 5 0 45 -30 88 -67 43 -38 124 -106 181 -153 249
-206 260 -216 260 -232 0 -14 -15 -27 -225 -203 -71 -60 -132 -111 -135 -114
-3 -3 -34 -30 -70 -60 -36 -30 -73 -61 -83 -70 -28 -24 -37 0 -37 102 0 96
-12 131 -56 166 -26 21 -32 21 -678 21 -600 -1 -653 -2 -671 -18 -64 -55 -73
-129 -22 -184 17 -20 46 -40 62 -45 17 -6 260 -9 563 -8 503 2 533 1 542 -16
6 -10 10 -92 10 -183 0 -171 6 -202 45 -242 23 -25 78 -37 117 -26 22 5 126
84 194 147 6 5 33 29 60 51 27 23 101 85 164 139 63 53 129 109 146 124 17 14
53 44 79 66 27 22 82 69 124 105 42 36 89 76 106 90 16 14 51 46 78 71 40 40
47 52 47 86 0 31 -7 48 -32 76 -18 19 -199 174 -403 343 -203 169 -403 337
-443 373 -41 36 -84 71 -95 78 -33 18 -88 15 -125 -7z"/>
<path d="M1722 7518 c-52 -25 -104 -88 -120 -144 -9 -30 -12 -293 -12 -988 0
-930 0 -947 20 -986 12 -23 39 -52 63 -68 l42 -27 1083 -3 c1060 -2 1083 -2
1121 17 49 25 89 72 96 114 3 18 5 467 3 998 -3 904 -4 968 -20 986 -10 11
-18 24 -18 30 0 14 -65 65 -103 81 -21 9 -278 12 -1070 12 -1034 -1 -1042 -1
-1085 -22z m698 -536 l5 -293 34 -34 34 -35 309 0 c298 0 311 1 336 21 57 45
61 68 62 367 l0 272 288 -2 287 -3 2 -838 c1 -490 -2 -849 -7 -863 l-10 -24
-948 0 c-724 0 -951 3 -960 12 -9 9 -12 213 -12 858 0 466 3 850 7 853 4 4
133 6 287 5 l281 -3 5 -293z m521 98 c-1 -107 -5 -198 -7 -202 -3 -4 -63 -8
-134 -8 -107 0 -129 3 -134 16 -8 22 -8 379 1 388 4 3 67 5 142 4 l134 -3 -2
-195z"/>
<path d="M5553 6202 c-19 -6 -180 -134 -249 -197 -13 -12 -44 -39 -70 -60 -26
-22 -97 -83 -159 -135 -62 -52 -134 -113 -160 -135 -27 -22 -53 -45 -59 -51
-6 -6 -58 -50 -115 -97 -116 -97 -125 -108 -138 -158 -20 -74 13 -134 123
-223 28 -22 199 -165 380 -316 466 -390 440 -370 500 -370 43 0 99 37 117 78
7 16 14 103 17 212 l5 185 577 5 576 5 39 31 c35 29 38 36 41 88 2 45 -1 62
-18 83 -42 54 -35 54 -704 53 -718 0 -699 2 -752 -82 -21 -33 -24 -50 -24
-136 0 -54 -3 -101 -6 -105 -6 -5 -55 30 -124 90 -45 38 -115 96 -268 223 -84
69 -152 132 -152 142 0 9 53 60 118 115 198 166 397 337 400 345 2 5 10 8 18
8 11 0 14 -22 14 -111 0 -96 3 -116 21 -145 42 -68 -5 -64 736 -64 l672 0 36
31 c32 29 35 35 35 88 0 52 -3 60 -36 92 l-35 34 -582 5 -582 5 -5 200 c-5
219 -12 245 -66 265 -28 11 -87 12 -121 2z"/>
<path d="M1530 4861 c-29 -12 -55 -32 -72 -57 l-27 -39 -1 -1233 0 -1232 -21
-18 c-43 -35 -59 -95 -59 -221 0 -223 31 -308 135 -368 26 -15 68 -18 305 -23
l275 -5 15 -30 c80 -159 204 -283 340 -339 25 -10 63 -26 85 -35 30 -12 73
-16 190 -16 128 0 159 3 211 22 121 43 243 125 305 205 19 24 36 45 39 48 4 3
10 12 13 20 4 8 16 29 27 45 21 32 25 39 34 68 5 16 68 17 1135 17 l1130 0 25
-52 c35 -71 44 -84 95 -146 71 -87 181 -160 305 -205 52 -19 82 -22 206 -22
124 0 154 3 205 22 194 70 312 174 417 368 l17 30 213 5 c193 5 217 7 253 26
80 43 120 99 141 199 18 82 18 825 1 905 -32 141 -113 220 -304 294 -24 9 -61
23 -83 31 -205 77 -272 108 -304 143 -14 15 -88 110 -166 212 -77 102 -217
286 -311 410 -207 272 -243 303 -384 332 -54 11 -395 12 -811 2 -187 -5 -266
-3 -282 5 -21 11 -21 17 -24 280 -3 306 -3 305 -89 348 l-44 22 -1545 0
c-1467 0 -1547 -1 -1590 -18z m3018 -1398 l2 -1153 -649 0 -648 0 -45 50
c-164 183 -406 268 -628 221 -166 -35 -243 -75 -364 -192 l-83 -79 -225 0
c-197 0 -227 2 -232 16 -3 9 -6 523 -6 1143 0 865 3 1130 12 1139 9 9 337 11
1438 10 l1425 -3 3 -1152z m1361 495 c20 -11 58 -49 83 -82 80 -105 120 -95
-374 -98 l-434 -3 -29 -23 c-51 -40 -53 -57 -54 -457 l-1 -371 27 -41 c15 -23
36 -45 47 -50 12 -4 465 -10 1008 -13 l986 -5 26 -24 26 -24 0 -413 c0 -398
-1 -414 -19 -424 -23 -12 -270 -13 -289 -1 -7 4 -15 36 -19 72 -7 82 -40 183
-88 268 -45 80 -188 212 -272 251 -87 41 -113 49 -214 66 -105 18 -108 18
-212 -3 -151 -31 -248 -80 -353 -180 -104 -98 -166 -214 -198 -373 l-22 -105
-351 -3 c-310 -2 -353 0 -367 14 -14 14 -16 116 -16 1012 0 548 4 1003 8 1009
6 10 114 13 463 16 249 1 487 3 527 5 59 2 80 -2 111 -20z m414 -523 c121
-159 212 -276 224 -290 7 -8 14 -24 15 -37 l3 -23 -605 0 -605 0 -3 196 c-1
114 2 208 8 223 l10 26 442 -2 443 -3 68 -90z m-3499 -1125 c105 -36 201 -120
249 -220 30 -61 32 -72 32 -175 0 -104 -2 -114 -32 -175 -64 -129 -161 -202
-305 -230 -76 -15 -165 -4 -245 32 -63 28 -154 117 -193 190 -33 61 -34 67
-35 178 0 132 11 168 81 261 103 135 290 194 448 139z m3521 3 c108 -37 198
-114 251 -214 27 -51 29 -61 28 -179 0 -102 -4 -132 -20 -165 -65 -136 -170
-218 -313 -245 -176 -33 -359 61 -442 228 -30 59 -34 79 -37 159 -4 92 10 153
50 225 20 36 89 107 134 138 96 67 243 89 349 53z m-4317 -307 c2 -22 1 -50
-3 -63 l-5 -23 -203 2 -202 3 -3 49 c-5 81 -17 77 210 74 l203 -3 3 -39z
m2517 -21 l0 -60 -580 0 -580 0 -9 53 c-7 43 -6 56 5 63 8 5 263 8 589 6 l575
-2 0 -60z"/>
</g>
</svg>
