<?xml version="1.0" standalone="no"?>
<!DOCTYPE svg PUBLIC "-//W3C//DTD SVG 20010904//EN"
 "http://www.w3.org/TR/2001/REC-SVG-20010904/DTD/svg10.dtd">
<svg version="1.0" xmlns="http://www.w3.org/2000/svg"
 width="900.000000pt" height="900.000000pt" viewBox="0 0 900.000000 900.000000"
 preserveAspectRatio="xMidYMid meet">
<metadata>
Created by potrace 1.10, written by Peter Selinger 2001-2011
</metadata>
<g transform="translate(0.000000,900.000000) scale(0.100000,-0.100000)"
fill="#00000090" stroke="none">
<path d="M3229 7786 c-52 -16 -86 -42 -112 -84 -48 -76 -51 -117 -43 -590 7
-400 6 -441 -9 -456 -15 -15 -83 -16 -748 -16 l-731 0 -28 -27 c-26 -25 -28
-32 -28 -109 0 -50 6 -95 15 -117 8 -20 15 -56 15 -80 0 -24 4 -47 10 -53 5
-5 13 -39 16 -74 3 -36 12 -84 20 -108 8 -23 14 -68 14 -98 0 -30 6 -65 13
-77 9 -17 13 -207 18 -812 6 -899 2 -856 93 -1010 32 -54 174 -205 193 -205 6
0 18 -6 25 -13 30 -28 167 -77 215 -77 16 0 38 -7 49 -15 10 -8 26 -15 34 -15
16 0 114 -64 140 -91 33 -34 60 -79 60 -102 0 -12 5 -28 11 -34 12 -12 10 -84
-10 -339 -5 -77 -15 -153 -21 -168 -5 -15 -10 -53 -11 -84 0 -31 -5 -82 -10
-112 -5 -30 -13 -106 -19 -169 -6 -62 -15 -122 -20 -132 -6 -10 -10 -46 -10
-81 0 -35 -7 -92 -16 -128 -22 -93 -22 -400 0 -452 9 -21 16 -48 16 -60 0 -13
7 -32 15 -42 8 -11 15 -26 15 -33 0 -40 107 -217 169 -282 45 -46 146 -121
164 -121 7 0 19 -6 25 -12 14 -14 104 -37 176 -45 100 -11 256 59 356 160 69
68 131 153 144 195 4 12 12 22 17 22 5 0 9 8 9 18 0 10 7 27 15 38 8 10 15 26
15 34 0 8 6 27 14 41 7 14 16 43 20 65 5 21 13 45 19 52 15 19 13 381 -2 410
-6 11 -13 60 -17 109 -3 48 -12 120 -20 160 -8 40 -14 101 -14 137 0 36 -5 77
-11 93 -6 15 -13 69 -16 118 -2 50 -11 122 -19 162 -8 40 -14 109 -14 153 0
45 -5 113 -12 151 -13 83 -1 163 36 227 20 35 68 82 83 82 7 0 13 4 13 9 0 5
21 19 48 32 26 12 59 28 74 35 14 8 34 14 45 14 21 1 108 30 140 48 12 7 26
12 32 12 18 0 104 63 151 110 51 51 110 134 110 154 0 7 7 19 15 26 8 7 15 22
15 34 0 11 8 35 17 51 16 28 18 92 21 785 3 893 -3 1027 -55 1147 -25 60 -48
108 -53 113 -3 3 -18 24 -33 47 -36 52 -139 151 -192 185 -70 44 -157 88 -174
88 -10 0 -26 7 -37 15 -10 8 -33 15 -50 15 -17 0 -51 7 -74 15 -25 9 -78 15
-129 15 -54 0 -92 5 -99 12 -17 17 -16 199 1 221 11 14 28 15 165 6 167 -11
184 -17 263 -88 41 -38 145 -101 166 -101 8 0 30 -7 48 -16 62 -29 308 -5 347
34 7 7 18 12 26 12 14 0 107 68 164 121 30 26 39 29 104 29 68 0 75 -2 103
-31 l31 -31 0 -161 c1 -122 4 -168 15 -187 8 -14 14 -35 15 -47 0 -13 3 -23 8
-23 4 0 18 -21 31 -46 25 -47 144 -164 167 -164 7 0 19 -6 26 -13 26 -25 104
-41 203 -41 111 0 169 14 233 56 24 15 45 28 47 28 5 0 75 69 75 75 0 2 18 31
40 64 l40 60 723 3 723 3 29 23 c62 49 65 62 65 290 0 114 3 217 6 230 6 20
12 22 78 22 59 0 76 -4 94 -20 22 -21 22 -23 22 -396 0 -365 -1 -377 -21 -402
-29 -37 -69 -62 -101 -62 -15 0 -29 -4 -33 -9 -3 -6 -27 -13 -53 -16 -26 -4
-61 -13 -79 -21 -17 -8 -42 -14 -56 -14 -13 0 -41 -7 -60 -15 -20 -8 -50 -15
-66 -15 -16 0 -32 -4 -36 -9 -3 -6 -27 -13 -53 -17 -26 -4 -59 -13 -74 -20
-15 -8 -40 -14 -56 -14 -17 0 -43 -7 -58 -15 -16 -8 -42 -15 -57 -15 -16 0
-38 -5 -50 -12 -12 -6 -40 -15 -62 -19 -50 -10 -117 -27 -175 -45 -25 -8 -55
-14 -66 -14 -12 0 -35 -7 -50 -15 -16 -8 -41 -15 -55 -15 -15 0 -40 -7 -55
-15 -16 -8 -41 -15 -55 -15 -15 0 -43 -7 -62 -15 -20 -8 -47 -15 -61 -15 -13
0 -37 -7 -52 -15 -16 -8 -41 -15 -55 -15 -15 0 -40 -7 -55 -15 -16 -8 -41 -15
-55 -15 -15 0 -40 -7 -55 -15 -16 -8 -45 -15 -65 -15 -19 0 -40 -5 -47 -12 -6
-6 -30 -15 -54 -19 -60 -11 -218 -52 -273 -71 -16 -6 -43 -13 -60 -15 -44 -7
-105 -52 -140 -103 l-30 -45 -1 -354 c-2 -285 -5 -355 -15 -362 -8 -5 -65 -9
-127 -9 -127 0 -148 -8 -188 -72 -23 -36 -24 -45 -25 -225 0 -104 -5 -244 -9
-313 -5 -69 -14 -246 -20 -394 -5 -149 -15 -286 -20 -305 -5 -20 -10 -94 -10
-164 0 -71 -6 -183 -12 -250 -26 -249 -13 -338 69 -491 19 -36 131 -149 166
-167 115 -61 173 -80 272 -86 73 -5 201 18 240 44 11 7 27 13 36 13 10 0 19 3
21 8 3 8 64 52 72 52 22 0 166 176 166 203 0 7 6 21 13 32 31 46 41 158 29
313 -7 81 -12 188 -12 237 0 50 -5 106 -10 125 -6 19 -14 153 -20 298 -5 145
-12 267 -15 273 -4 5 -11 143 -16 307 -5 163 -13 342 -18 397 -8 99 -9 100
-46 132 l-38 33 -117 0 c-77 0 -120 4 -128 12 -13 13 -18 594 -4 614 10 15 96
54 120 54 11 0 36 7 55 15 20 8 47 15 61 15 13 0 37 7 52 15 16 8 41 15 55 15
15 0 40 7 55 15 16 8 40 15 53 15 13 0 46 7 75 16 28 9 71 22 96 30 25 8 55
14 66 14 12 0 38 7 57 15 20 8 47 15 61 15 13 0 37 7 52 15 16 8 41 15 55 15
15 0 43 7 62 15 20 8 49 15 64 15 15 0 37 7 47 15 11 8 33 15 49 15 15 0 38 5
50 12 12 6 40 15 62 19 50 10 117 27 175 45 25 8 56 14 70 14 15 0 31 5 36 10
6 6 33 15 60 20 59 11 123 27 184 46 25 8 55 14 66 14 12 0 38 7 57 15 20 8
47 15 61 15 13 0 37 7 52 15 16 8 41 15 55 15 15 0 40 7 55 15 16 8 36 15 45
15 23 0 129 58 163 89 16 14 45 51 65 81 l36 55 0 460 0 460 -24 48 c-46 95
-133 137 -281 137 -61 0 -100 4 -108 12 -9 9 -12 69 -12 210 0 178 -2 203 -20
237 -26 53 -89 104 -144 119 -64 17 -3733 16 -3787 -2z m3707 -234 c8 -5 13
-143 18 -443 7 -397 6 -438 -9 -453 -15 -14 -75 -16 -630 -16 -480 0 -616 3
-622 13 -4 6 -8 48 -8 92 0 96 -16 124 -86 148 -44 16 -49 16 -88 -1 -73 -33
-81 -53 -81 -194 -1 -81 -6 -137 -15 -163 -8 -22 -15 -47 -15 -55 0 -55 -118
-138 -197 -139 -70 -2 -194 92 -210 159 -3 14 -11 31 -17 39 -7 9 -11 74 -11
180 l-1 166 -34 55 c-30 50 -105 120 -128 120 -5 0 -15 7 -22 15 -7 8 -22 15
-33 15 -11 0 -44 8 -74 17 -47 15 -60 15 -101 3 -26 -7 -62 -15 -80 -18 -41
-5 -130 -52 -168 -87 -15 -14 -54 -42 -86 -61 -54 -33 -64 -35 -142 -36 -79
-1 -87 1 -143 35 -32 20 -70 47 -85 62 -15 14 -29 25 -32 25 -3 0 -25 14 -49
30 -25 17 -54 30 -64 30 -11 0 -28 7 -39 15 -15 11 -56 14 -190 15 -147 0
-173 2 -178 16 -8 21 -8 409 1 417 9 9 3605 9 3619 -1z m-3417 -1151 c11 -6
30 -11 43 -11 13 0 33 -7 44 -15 10 -8 29 -15 40 -15 12 0 27 -7 34 -15 7 -8
19 -15 27 -15 22 0 107 -71 161 -134 35 -41 92 -152 92 -179 0 -12 6 -29 13
-35 9 -10 12 -133 12 -545 l0 -532 -1040 0 -1040 0 -6 285 c-7 363 -27 716
-45 802 -8 37 -14 88 -14 113 0 26 -4 55 -10 65 -5 10 -12 44 -16 76 -3 33
-12 73 -19 90 -8 16 -12 40 -8 52 5 22 8 22 203 22 l197 0 12 -37 c7 -21 16
-78 21 -128 5 -49 13 -110 19 -135 5 -25 10 -70 11 -100 0 -30 7 -90 15 -133
8 -43 15 -106 15 -139 0 -50 5 -67 26 -95 24 -32 28 -33 93 -33 59 0 70 3 91
25 18 19 23 36 24 77 0 90 -16 260 -30 318 -8 30 -14 78 -14 108 0 29 -4 62
-10 72 -12 22 -29 169 -23 187 8 21 1043 25 1082 4z m469 -1928 l2 -172 -31
-66 c-35 -76 -113 -160 -174 -189 -22 -10 -48 -23 -59 -28 -10 -5 -39 -13 -65
-18 -47 -8 -104 -26 -131 -41 -8 -5 -30 -16 -49 -26 -96 -48 -237 -192 -264
-268 -2 -5 -10 -26 -17 -45 -18 -46 -25 -254 -10 -304 6 -21 16 -100 21 -175
4 -75 13 -167 18 -206 6 -38 10 -101 11 -138 0 -38 5 -77 10 -87 6 -10 13 -68
16 -127 3 -59 10 -128 16 -153 38 -167 38 -524 -1 -563 -6 -6 -11 -22 -11 -35
0 -13 -6 -36 -13 -50 -8 -15 -22 -45 -33 -67 -40 -85 -104 -158 -164 -186 -76
-36 -143 -49 -155 -29 -3 6 -17 10 -31 10 -13 0 -42 11 -63 24 -40 26 -117
108 -132 141 -5 11 -13 27 -18 35 -27 49 -41 80 -41 97 0 10 -5 24 -12 31 -18
18 -32 119 -32 237 1 131 20 349 34 375 6 10 10 47 11 82 0 35 5 88 9 118 5
30 14 111 19 179 6 68 15 138 20 155 5 17 12 83 15 147 3 64 11 129 16 146 15
43 8 299 -9 343 -8 19 -16 40 -17 45 -19 55 -167 221 -219 246 -11 5 -39 20
-63 33 -23 14 -56 27 -72 31 -16 4 -32 11 -35 16 -4 5 -20 9 -37 9 -38 0 -158
39 -158 51 0 5 -5 9 -10 9 -29 0 -150 128 -150 158 0 6 -7 23 -15 38 -12 23
-15 68 -15 205 0 97 3 179 7 182 3 4 473 6 1042 5 l1036 -3 3 -172z m1280 -45
c9 -9 12 -69 12 -208 0 -107 4 -210 10 -229 5 -19 12 -118 15 -220 4 -102 11
-219 17 -260 5 -41 14 -140 19 -220 4 -80 13 -177 19 -216 5 -38 11 -151 12
-250 3 -174 2 -181 -22 -225 -45 -82 -106 -131 -210 -167 -50 -18 -137 -20
-153 -4 -6 6 -19 11 -29 11 -29 0 -101 42 -136 80 -73 78 -101 187 -84 319 7
49 12 137 13 197 0 60 4 141 10 179 5 39 14 153 19 255 5 102 14 207 20 233 5
26 10 143 10 260 0 317 9 465 29 470 9 3 106 5 217 6 143 1 203 -2 212 -11z"/>
<path d="M2870 2242 c-64 -43 -84 -94 -85 -212 0 -111 15 -151 71 -190 47 -31
132 -31 178 1 56 38 71 79 71 188 0 124 -19 170 -87 214 -35 22 -115 22 -148
-1z"/>
</g>
</svg>
