<?xml version="1.0" standalone="no"?>
<!DOCTYPE svg PUBLIC "-//W3C//DTD SVG 20010904//EN"
 "http://www.w3.org/TR/2001/REC-SVG-20010904/DTD/svg10.dtd">
<svg version="1.0" xmlns="http://www.w3.org/2000/svg"
 width="900.000000pt" height="900.000000pt" viewBox="0 0 900.000000 900.000000"
 preserveAspectRatio="xMidYMid meet">
<metadata>
Created by potrace 1.10, written by Peter Selinger 2001-2011
</metadata>
<g transform="translate(0.000000,900.000000) scale(0.100000,-0.100000)"
fill="#00000090" stroke="none">
<path d="M2493 7713 c-36 -20 -69 -59 -74 -88 -4 -18 -10 -19 -54 -15 -28 3
-105 5 -173 5 l-124 0 -34 -37 -34 -38 0 -261 c0 -302 1 -304 84 -340 53 -22
56 -23 301 -6 28 2 30 -1 35 -38 7 -59 33 -90 91 -109 28 -9 64 -16 80 -16 31
0 34 -8 19 -54 -31 -100 -50 -155 -61 -181 -30 -73 -70 -161 -79 -175 -6 -8
-15 -26 -20 -39 -26 -60 -146 -225 -230 -315 -51 -55 -96 -111 -102 -125 -11
-29 -2 -104 15 -133 16 -27 80 -58 117 -58 34 0 94 28 125 58 39 38 101 108
140 157 22 27 46 56 53 64 12 12 70 98 98 146 15 24 140 278 159 320 7 17 20
50 30 75 9 25 23 60 31 78 8 18 14 38 14 45 0 7 8 38 17 69 20 65 26 67 104
44 98 -30 177 -100 222 -199 23 -50 22 -57 -12 -90 -52 -51 -61 -117 -61 -453
l0 -296 -73 -72 c-76 -75 -123 -154 -147 -251 -7 -27 -15 -133 -18 -234 -6
-275 -14 -288 -300 -502 -97 -74 -181 -137 -187 -141 -5 -5 -41 -31 -80 -60
-167 -122 -287 -269 -342 -418 -8 -19 -22 -79 -33 -133 -19 -94 -20 -141 -20
-1117 0 -897 2 -1029 16 -1097 23 -112 66 -191 158 -290 38 -41 146 -113 170
-113 6 0 16 -4 22 -10 5 -5 45 -16 89 -25 69 -13 224 -15 1080 -15 1039 1
1047 1 1155 42 174 65 314 235 346 417 17 94 20 1711 4 1904 -28 342 -65 591
-116 799 -8 32 -14 72 -14 89 0 16 -5 40 -12 52 -6 12 -15 42 -19 67 -4 25
-11 59 -17 75 -6 17 -18 57 -27 90 -10 33 -22 71 -27 85 -6 14 -14 39 -18 55
-9 35 -28 87 -46 130 -7 17 -19 49 -28 73 -9 23 -23 60 -31 82 -47 126 -59
165 -117 375 -14 48 -13 53 11 105 26 55 26 55 29 373 3 316 3 318 -20 350
-12 18 -31 39 -42 48 -19 16 -19 16 2 47 29 40 116 95 175 110 26 7 100 12
165 12 64 0 161 3 216 7 95 6 100 7 132 40 31 30 34 39 34 91 0 53 -10 96 -46
195 -67 183 -153 329 -269 454 -84 92 -238 208 -315 239 -8 3 -27 12 -42 20
-14 8 -33 14 -42 14 -8 0 -30 6 -48 14 -18 8 -71 21 -118 30 -74 14 -197 16
-960 16 -815 0 -878 -1 -907 -17z m1897 -297 c106 -43 189 -88 237 -130 54
-45 163 -165 163 -178 0 -4 12 -24 26 -45 14 -21 30 -47 35 -58 5 -11 20 -39
33 -62 13 -23 21 -44 18 -47 -3 -4 -40 -6 -82 -6 -90 0 -212 -22 -290 -51 -58
-22 -162 -94 -211 -146 -47 -49 -99 -117 -99 -128 0 -3 -9 -18 -21 -34 l-20
-27 -307 1 -306 2 -19 49 c-10 27 -24 63 -32 79 -7 17 -16 37 -19 45 -47 111
-174 233 -307 297 -115 55 -260 83 -427 83 -54 0 -71 3 -76 16 -8 21 -8 328 0
349 6 14 78 16 833 13 774 -3 829 -5 871 -22z m-109 -1196 c18 -10 19 -23 19
-175 0 -152 -1 -165 -19 -175 -27 -14 -785 -14 -812 0 -18 10 -19 23 -19 175
0 146 2 165 18 174 24 14 786 15 813 1z m-45 -659 c10 -1 25 -43 60 -168 9
-32 21 -69 27 -83 5 -14 13 -38 17 -55 5 -16 18 -55 30 -85 12 -30 25 -68 30
-85 5 -16 18 -55 30 -85 12 -30 25 -68 30 -85 11 -39 29 -91 46 -133 8 -18 14
-39 14 -47 0 -8 6 -29 14 -47 15 -35 35 -106 59 -203 8 -33 21 -82 27 -110 7
-27 16 -70 20 -95 4 -25 12 -70 18 -100 11 -60 32 -184 59 -355 16 -99 17
-210 18 -1115 l0 -1005 -28 -46 c-35 -59 -49 -71 -124 -108 l-62 -31 -1025 0
c-949 0 -1028 1 -1063 17 -60 28 -109 70 -140 121 l-28 47 0 1085 c0 1062 0
1087 20 1130 29 67 87 150 137 196 23 23 153 124 287 224 273 204 378 299 425
380 59 105 67 140 72 325 5 193 19 294 48 345 23 42 96 120 111 120 7 0 23 12
36 28 l25 27 399 -2 c220 -1 405 -2 411 -2z"/>
<path d="M3480 4163 c-8 -3 -25 -14 -38 -24 -29 -22 -174 -241 -281 -424 -45
-77 -86 -147 -91 -155 -38 -63 -153 -327 -180 -415 -43 -138 -50 -183 -50
-300 0 -198 56 -341 187 -478 100 -106 165 -147 313 -197 88 -30 270 -33 356
-5 143 45 259 117 348 216 48 54 116 160 116 183 0 7 7 21 15 32 8 10 15 28
15 39 0 11 7 38 15 60 17 48 21 299 4 342 -6 15 -14 46 -19 68 -11 52 -28 102
-74 208 -21 47 -141 290 -188 377 -36 68 -191 306 -235 361 -71 89 -97 110
-148 114 -27 3 -57 2 -65 -2z m133 -510 c56 -86 88 -137 133 -218 65 -112 150
-303 188 -420 33 -101 14 -311 -33 -358 -6 -6 -11 -16 -11 -22 0 -21 -105
-122 -155 -150 -60 -33 -140 -55 -198 -55 -50 0 -160 22 -202 41 -61 27 -165
119 -165 146 0 5 -5 14 -11 20 -29 29 -49 118 -49 219 0 84 4 113 26 170 14
38 29 81 34 95 4 14 12 34 18 45 6 10 34 66 62 124 80 163 113 221 199 349 59
90 76 110 93 111 4 0 36 -44 71 -97z"/>
<path d="M6095 6320 c-104 -12 -300 -61 -319 -80 -5 -5 -16 -10 -23 -10 -18 0
-152 -64 -196 -94 -21 -14 -40 -26 -43 -26 -15 0 -168 -127 -231 -191 -72 -73
-192 -218 -193 -231 0 -4 -19 -35 -42 -70 -135 -199 -198 -425 -198 -703 0
-94 6 -176 15 -220 8 -38 15 -83 15 -100 1 -16 7 -41 15 -55 8 -14 14 -34 15
-45 0 -11 7 -33 15 -49 8 -15 15 -35 15 -43 0 -8 6 -27 14 -41 7 -15 31 -62
52 -105 41 -83 43 -87 88 -157 88 -138 319 -355 455 -427 57 -31 99 -52 136
-68 22 -10 49 -23 60 -28 11 -6 33 -14 50 -18 16 -4 44 -12 60 -17 243 -83
554 -94 765 -26 25 8 53 14 62 14 10 0 32 6 50 14 18 8 53 22 78 31 269 104
513 303 668 545 40 63 132 243 132 259 0 6 6 25 14 43 46 108 76 289 76 463 0
186 -20 311 -82 500 -23 72 -96 225 -132 278 -14 21 -26 42 -26 47 0 4 -3 10
-7 12 -5 2 -20 21 -36 43 -76 112 -331 335 -448 394 -24 12 -51 26 -59 30 -67
38 -210 87 -334 116 -81 19 -373 28 -481 15z m310 -291 c44 -6 98 -15 120 -21
22 -6 56 -14 75 -19 121 -26 380 -167 380 -206 0 -8 -45 -61 -99 -117 -55 -55
-130 -134 -167 -173 -37 -40 -73 -73 -79 -73 -6 0 -17 11 -25 24 -11 22 -9 28
26 67 22 23 53 55 71 72 60 55 67 137 17 197 -24 28 -31 30 -92 30 l-65 0 -74
-77 c-41 -43 -82 -97 -92 -119 l-19 -41 -103 3 c-57 2 -106 4 -109 4 -3 0 -11
20 -18 45 -9 35 -28 62 -80 114 -73 73 -101 85 -175 75 -72 -10 -107 -54 -107
-133 0 -33 10 -49 75 -122 41 -46 75 -88 75 -93 0 -5 -22 -35 -48 -65 -52 -61
-112 -154 -112 -174 0 -7 -9 -23 -20 -35 l-20 -21 -79 78 c-61 61 -89 81 -123
89 -101 26 -178 -31 -178 -131 l0 -48 133 -136 c72 -74 142 -139 155 -144 23
-9 22 -29 -2 -29 -41 0 -118 -50 -200 -130 l-91 -88 1 -61 c1 -72 21 -101 88
-126 55 -21 77 -12 162 65 37 33 74 60 83 58 8 -2 20 -15 25 -30 8 -24 3 -32
-75 -105 -46 -44 -101 -95 -122 -113 -21 -18 -59 -59 -83 -92 -25 -32 -48 -58
-53 -58 -10 0 -104 146 -139 217 -79 157 -116 316 -117 498 0 142 27 298 71
403 25 61 46 107 55 122 5 8 13 25 19 37 26 61 113 177 192 256 96 95 176 153
288 207 25 12 53 26 62 31 23 12 118 43 193 62 137 36 267 44 400 26z m807
-476 c214 -309 273 -671 166 -1023 -118 -392 -481 -703 -899 -769 -134 -22
-449 -3 -510 29 -10 6 -25 10 -34 10 -49 0 -375 173 -375 199 0 4 17 17 38 29
56 31 142 108 184 165 20 27 39 52 42 54 3 3 29 -14 58 -38 75 -62 86 -69 193
-112 74 -29 200 -42 288 -30 91 14 147 34 221 84 78 52 98 50 166 -12 75 -69
109 -89 151 -89 82 0 139 51 139 123 0 44 -40 100 -142 198 l-78 75 6 50 c12
82 51 87 119 15 85 -90 143 -100 210 -36 33 30 35 36 35 95 0 55 -4 67 -32
104 -90 115 -168 176 -226 176 -15 0 -34 4 -42 10 -11 7 -9 11 14 19 29 12
134 113 229 221 52 60 57 69 57 113 0 58 -28 102 -77 118 -63 20 -91 6 -193
-96 -52 -53 -101 -94 -109 -93 -7 2 -18 14 -22 27 -8 21 10 43 188 226 109
112 199 203 200 204 1 0 17 -20 35 -46z m-832 -275 c16 -11 31 -29 33 -39 3
-11 14 -22 26 -27 24 -9 73 -71 65 -83 -8 -13 -484 -11 -484 2 0 15 64 96 96
122 73 58 203 70 264 25z m-242 -667 c1 -124 -1 -228 -5 -232 -12 -12 -99 65
-118 104 -38 75 -55 151 -55 254 0 57 4 103 10 105 5 2 45 1 87 -2 l78 -5 3
-224z m430 70 c2 -139 1 -158 -19 -197 -24 -50 -96 -114 -128 -114 -21 0 -21
1 -21 228 0 126 3 232 7 236 4 4 41 5 83 4 l75 -3 3 -154z"/>
</g>
</svg>
