<?xml version="1.0" standalone="no"?>
<!DOCTYPE svg PUBLIC "-//W3C//DTD SVG 20010904//EN"
 "http://www.w3.org/TR/2001/REC-SVG-20010904/DTD/svg10.dtd">
<svg version="1.0" xmlns="http://www.w3.org/2000/svg"
 width="900.000000pt" height="900.000000pt" viewBox="0 0 900.000000 900.000000"
 preserveAspectRatio="xMidYMid meet">
<metadata>
Created by potrace 1.10, written by Peter Selinger 2001-2011
</metadata>
<g transform="translate(0.000000,900.000000) scale(0.100000,-0.100000)"
fill="#00000090" stroke="none">
<path d="M1385 7835 l-45 -44 0 -424 0 -424 39 -44 38 -43 149 -6 149 -5 3
-1096 2 -1097 -95 -4 c-89 -4 -97 -6 -126 -33 -58 -56 -59 -62 -59 -470 0
-388 3 -418 44 -463 33 -37 55 -45 144 -52 45 -4 84 -9 86 -11 3 -2 7 -105 10
-229 9 -340 44 -534 141 -790 34 -89 91 -210 134 -281 11 -19 25 -43 31 -54 5
-11 27 -43 47 -71 178 -242 322 -382 554 -538 232 -156 517 -273 789 -325 378
-72 819 -40 1160 84 116 43 288 123 355 166 17 10 37 22 45 26 24 12 101 64
164 112 192 146 377 351 498 551 51 85 138 262 138 282 0 7 7 22 15 32 8 11
15 28 15 38 0 9 6 32 14 50 28 65 76 255 76 298 0 17 7 46 14 65 13 31 19 35
53 35 67 0 110 18 142 59 l31 39 0 334 0 334 -36 42 c-32 38 -40 42 -80 42
-90 0 -84 -28 -84 388 0 377 7 459 43 542 17 39 87 109 132 133 52 27 158 47
253 47 l91 0 22 -50 c12 -28 35 -62 51 -75 l30 -25 454 0 455 0 42 39 42 40 0
738 0 738 -23 30 c-53 68 -31 65 -517 65 l-440 0 -37 -25 c-20 -13 -45 -44
-57 -68 l-21 -44 -288 -6 c-203 -5 -305 -11 -347 -21 -33 -9 -74 -15 -91 -16
-17 0 -50 -6 -75 -14 -24 -7 -71 -21 -104 -31 -102 -30 -153 -50 -275 -110
-273 -135 -484 -327 -623 -567 -72 -126 -108 -210 -150 -358 -52 -181 -67
-392 -67 -936 0 -313 -3 -394 -13 -403 -8 -6 -42 -10 -77 -10 -59 1 -64 -1
-99 -35 l-36 -36 -3 -318 c-2 -174 0 -332 3 -349 8 -44 69 -103 106 -103 48 0
59 -9 52 -43 -3 -18 -12 -39 -19 -48 -8 -8 -14 -19 -14 -23 0 -9 -54 -80 -80
-106 -51 -51 -119 -91 -215 -126 -73 -27 -326 -27 -405 0 -133 45 -202 88
-290 176 -148 148 -199 285 -207 558 l-4 152 83 0 c93 1 131 15 170 65 l23 30
0 420 c0 400 -1 421 -19 446 -40 52 -64 62 -160 68 l-91 6 -3 1075 c-1 591 0
1085 3 1097 5 20 11 21 144 25 l140 3 34 33 c63 61 67 91 67 481 0 412 -5 437
-92 494 -26 16 -92 17 -1018 17 l-991 0 -44 -45z m1835 -465 l0 -210 -781 -2
c-429 -2 -785 0 -791 3 -7 5 -14 346 -9 412 1 4 357 7 791 7 l790 0 0 -210z
m-382 -1622 c2 -875 0 -1098 -10 -1098 -248 -3 -802 1 -809 5 -15 10 -12 2168
3 2183 9 9 110 12 413 10 l400 -3 3 -1097z m4427 -43 l0 -520 -245 0 -245 0
-3 510 c-1 281 0 516 3 523 3 10 58 12 247 10 l243 -3 0 -520z m-797 8 l2
-383 -97 0 c-107 -1 -245 -25 -335 -59 -148 -57 -269 -177 -330 -326 -51 -126
-52 -136 -58 -590 l-5 -430 -455 0 -455 0 0 475 c0 542 10 671 66 835 6 17 14
44 18 60 4 17 13 39 19 50 6 11 20 40 32 65 96 199 254 361 485 497 11 7 40
21 65 33 25 12 58 28 73 35 16 8 35 15 42 15 8 0 29 6 47 14 150 64 368 94
673 92 l210 -1 3 -382z m-3350 -1361 c9 -7 12 -57 10 -218 l-3 -209 -695 0
-695 0 -3 205 c-1 112 0 210 2 217 4 10 143 13 688 13 376 0 689 -4 696 -8z
m-292 -730 c6 -4 14 -56 17 -122 9 -184 38 -347 82 -470 63 -174 192 -338 350
-445 60 -40 186 -105 204 -105 6 0 25 -6 43 -14 115 -50 404 -63 548 -26 217
55 353 142 478 306 18 23 32 45 32 50 0 4 6 15 13 23 16 20 73 155 82 196 4
16 11 36 17 42 15 19 901 19 916 0 11 -13 3 -67 -24 -167 -38 -136 -56 -188
-101 -287 -13 -29 -28 -62 -33 -75 -6 -13 -16 -32 -23 -43 -7 -11 -25 -43 -41
-70 -123 -210 -349 -432 -581 -571 -37 -23 -220 -111 -265 -129 -25 -9 -60
-23 -78 -31 -18 -8 -40 -14 -48 -14 -9 0 -37 -6 -63 -14 -197 -61 -495 -82
-741 -51 -115 14 -255 41 -273 52 -6 4 -27 10 -46 14 -43 9 -97 27 -133 45
-14 8 -31 14 -37 14 -13 0 -203 93 -246 121 -16 10 -37 22 -45 26 -53 24 -252
189 -345 284 -135 140 -193 223 -283 404 -81 164 -103 229 -148 420 -21 91
-44 344 -44 492 0 115 2 133 18 142 20 12 781 15 798 3z m3015 -2 c17 -10 19
-22 19 -120 0 -103 -1 -110 -22 -122 -18 -10 -160 -12 -683 -8 l-660 5 -3 114
c-2 75 1 118 9 127 10 12 119 14 666 14 432 0 661 -4 674 -10z"/>
</g>
</svg>
