<?xml version="1.0" standalone="no"?>
<!DOCTYPE svg PUBLIC "-//W3C//DTD SVG 20010904//EN"
 "http://www.w3.org/TR/2001/REC-SVG-20010904/DTD/svg10.dtd">
<svg version="1.0" xmlns="http://www.w3.org/2000/svg"
 width="900.000000pt" height="900.000000pt" viewBox="0 0 900.000000 900.000000"
 preserveAspectRatio="xMidYMid meet">
<metadata>
Created by potrace 1.10, written by Peter Selinger 2001-2011
</metadata>
<g transform="translate(0.000000,900.000000) scale(0.100000,-0.100000)"
fill="#00000090" stroke="none">
<path d="M3425 7703 c-55 -6 -157 -38 -217 -68 -173 -87 -310 -236 -371 -403
-53 -145 -51 -87 -56 -1227 l-6 -1070 -30 -15 c-38 -20 -143 -91 -175 -120
-78 -70 -209 -130 -285 -130 -40 0 -134 28 -178 53 -12 7 -64 44 -117 82 -179
131 -257 165 -379 165 -76 0 -79 -1 -114 -35 -26 -26 -37 -46 -42 -79 -14 -90
28 -150 113 -161 58 -8 129 -29 162 -47 37 -20 83 -51 99 -67 27 -25 175 -117
216 -133 132 -53 247 -62 371 -29 81 22 192 72 248 114 6 4 40 29 76 55 98 72
173 101 260 101 81 1 139 -23 258 -104 133 -90 187 -124 203 -124 8 -1 19 -5
25 -11 5 -5 43 -19 84 -30 90 -23 226 -26 285 -5 22 8 49 15 60 15 11 0 29 7
39 15 11 8 26 15 33 15 17 0 104 53 173 105 76 58 153 99 228 120 62 18 66 18
138 0 41 -10 79 -24 85 -32 6 -7 16 -13 21 -13 5 0 44 -26 86 -58 42 -32 84
-62 92 -65 8 -4 29 -16 45 -27 17 -11 37 -22 45 -26 8 -3 24 -10 35 -16 36
-20 170 -48 230 -48 91 0 251 44 325 89 19 11 42 24 50 28 13 5 136 99 150
113 8 8 44 30 60 36 8 3 33 13 54 22 30 13 73 17 185 17 l146 0 0 -225 0 -225
-185 -6 c-187 -6 -225 -12 -310 -55 -39 -19 -114 -70 -145 -97 -87 -78 -237
-147 -320 -147 -68 0 -221 63 -276 113 -48 45 -155 123 -189 139 -108 50 -120
53 -249 52 -101 0 -138 -5 -186 -22 -68 -23 -121 -46 -149 -65 -51 -32 -99
-66 -154 -110 -184 -144 -309 -143 -496 2 -128 100 -199 141 -306 177 -82 27
-264 25 -347 -4 -79 -28 -144 -64 -216 -121 -142 -114 -236 -161 -318 -161
-41 0 -143 31 -186 57 -42 24 -139 90 -155 106 -15 13 -26 20 -111 72 -32 19
-64 35 -70 35 -7 0 -23 7 -35 16 -17 11 -47 16 -114 16 l-90 0 -37 -36 c-33
-33 -36 -41 -36 -94 0 -90 53 -142 144 -142 59 0 149 -46 233 -118 46 -40 165
-115 213 -134 86 -35 150 -48 228 -48 92 0 161 18 262 67 109 54 111 55 234
156 83 67 123 82 231 81 114 -2 149 -17 306 -136 172 -130 268 -168 423 -168
155 0 237 33 411 165 53 40 123 87 155 105 55 30 68 33 150 33 83 0 94 -2 150
-32 33 -19 74 -46 90 -60 144 -130 332 -211 490 -211 74 0 195 24 241 48 11 5
39 20 64 32 25 13 93 59 153 103 162 120 153 117 344 117 l163 0 -2 -212 -3
-213 -150 -6 c-171 -7 -241 -16 -270 -35 -11 -8 -25 -14 -32 -14 -20 0 -121
-65 -188 -120 -35 -29 -74 -58 -87 -65 -117 -65 -195 -84 -281 -66 -83 16
-111 31 -248 132 -174 129 -270 168 -414 169 -162 0 -313 -60 -454 -182 -161
-139 -272 -161 -429 -84 -69 33 -80 41 -147 96 -64 53 -83 65 -145 96 -187 92
-378 97 -550 16 -36 -17 -108 -65 -160 -108 -52 -42 -111 -86 -130 -98 -73
-44 -178 -57 -260 -32 -49 15 -139 61 -155 80 -10 12 -155 121 -190 143 -97
61 -245 90 -312 61 -64 -27 -95 -99 -75 -171 18 -64 55 -87 166 -102 42 -6 68
-21 170 -98 126 -95 250 -164 320 -179 142 -29 147 -29 306 0 80 15 200 81
311 173 24 20 71 51 104 70 57 32 65 33 165 34 123 0 118 2 290 -126 130 -97
201 -134 310 -160 182 -45 357 0 539 139 182 139 195 145 311 146 114 1 129
-5 270 -110 148 -111 214 -143 345 -170 89 -18 163 -18 245 0 122 27 177 56
330 171 161 120 132 110 325 110 l170 0 0 -300 0 -300 -2290 -5 c-2075 -5
-2293 -6 -2317 -21 -15 -9 -37 -28 -49 -43 -21 -27 -21 -31 -22 -640 l-1 -613
23 -29 c12 -16 35 -37 49 -46 26 -17 174 -18 2965 -18 2664 0 2941 1 2965 16
15 9 36 28 47 42 20 27 20 43 20 1809 l0 1783 -38 37 -37 38 -833 0 -832 0
-63 -23 c-34 -12 -72 -28 -85 -35 -30 -17 -136 -96 -168 -125 -63 -58 -219
-122 -298 -122 -60 0 -166 37 -202 71 l-29 27 0 1091 c0 940 2 1103 15 1169
20 99 39 144 92 214 53 70 110 116 188 154 54 26 72 29 178 32 114 4 184 -8
237 -39 8 -5 22 -12 30 -16 8 -3 33 -20 55 -37 135 -105 195 -233 195 -418 0
-90 1 -95 28 -120 15 -14 37 -31 49 -37 55 -28 136 0 173 61 48 79 8 361 -69
489 -12 19 -24 41 -28 49 -35 80 -194 221 -306 274 -127 59 -180 70 -347 70
-136 0 -163 -3 -220 -23 -274 -96 -447 -282 -517 -556 -12 -47 -17 -151 -22
-465 l-6 -405 -794 -3 c-578 -1 -797 1 -807 9 -21 17 -20 644 1 760 34 187
153 329 330 391 97 35 331 16 377 -30 7 -7 16 -12 21 -12 13 0 86 -59 124
-100 74 -80 123 -228 123 -378 1 -74 13 -98 68 -126 63 -32 140 -11 180 50 18
28 22 48 22 121 1 347 -199 624 -535 742 -61 21 -257 35 -350 24z m1240 -1933
l0 -205 -788 -3 c-532 -1 -794 1 -808 8 -18 10 -19 23 -19 193 0 100 4 187 8
193 4 6 14 14 22 17 8 3 368 5 800 4 l785 -2 0 -205z m-11 -486 c14 -5 16 -30
16 -175 0 -186 2 -181 -63 -154 -52 22 -255 21 -322 -2 -97 -32 -137 -54 -245
-134 -100 -74 -163 -110 -230 -131 -71 -23 -104 -22 -178 1 -75 24 -85 30
-202 117 -130 98 -264 164 -330 164 -24 0 -33 6 -40 26 -12 30 -13 254 -2 271
6 10 180 13 793 16 431 1 785 3 786 5 1 1 8 -1 17 -4z m2590 -583 c4 -7 8
-2231 6 -3169 0 -10 -556 -12 -2762 -10 l-2763 3 -3 405 c-1 223 0 415 3 428
l5 22 2285 0 c1490 0 2293 3 2310 10 14 5 39 24 56 42 l29 32 0 1111 c0 851 3
1114 12 1123 15 15 813 17 822 3z"/>
</g>
</svg>
