<?xml version="1.0" standalone="no"?>
<!DOCTYPE svg PUBLIC "-//W3C//DTD SVG 20010904//EN"
 "http://www.w3.org/TR/2001/REC-SVG-20010904/DTD/svg10.dtd">
<svg version="1.0" xmlns="http://www.w3.org/2000/svg"
 width="900.000000pt" height="900.000000pt" viewBox="0 0 900.000000 900.000000"
 preserveAspectRatio="xMidYMid meet">
<metadata>
Created by potrace 1.10, written by Peter Selinger 2001-2011
</metadata>
<g transform="translate(0.000000,900.000000) scale(0.100000,-0.100000)"
fill="#00000090" stroke="none">
<path d="M4100 7458 c-25 -17 -98 -74 -164 -127 -65 -53 -142 -114 -170 -136
-28 -21 -55 -44 -61 -51 -5 -6 -39 -33 -75 -60 -36 -26 -69 -53 -75 -60 -5 -6
-39 -33 -75 -59 -36 -27 -67 -53 -70 -57 -3 -4 -31 -27 -62 -50 -69 -54 -201
-160 -208 -168 -3 -3 -33 -27 -67 -53 -34 -26 -68 -53 -75 -60 -7 -7 -103 -84
-212 -172 -109 -88 -224 -180 -254 -205 -30 -25 -72 -58 -92 -75 -208 -167
-287 -231 -295 -240 -5 -6 -44 -37 -85 -69 -41 -31 -102 -80 -135 -107 -33
-27 -96 -77 -140 -111 -44 -34 -82 -65 -85 -68 -3 -3 -27 -24 -55 -45 -74 -59
-293 -243 -313 -263 -56 -56 -67 -114 -33 -180 11 -20 57 -82 103 -137 46 -55
99 -120 118 -145 19 -25 44 -56 56 -70 130 -147 147 -160 210 -160 45 0 123
38 182 90 50 44 62 49 62 23 3 -413 -1 -2237 -5 -2243 -3 -4 -76 -8 -164 -7
-149 0 -161 -1 -187 -22 -79 -62 -68 -180 22 -226 39 -20 59 -20 2499 -20
2673 0 2524 -3 2580 55 22 23 27 38 27 80 0 42 -5 58 -29 88 -38 47 -63 52
-241 51 -79 -1 -146 2 -150 6 -4 4 -10 259 -14 568 -4 309 -9 604 -11 656 l-4
95 -41 38 c-36 33 -47 38 -89 38 -39 0 -54 -5 -80 -29 -39 -36 -55 -91 -43
-151 13 -64 13 -1220 0 -1220 -5 0 -257 0 -560 0 -302 0 -554 0 -560 0 -6 0
-10 292 -12 803 -3 743 -4 805 -21 847 -22 56 -60 96 -114 121 -40 18 -71 19
-616 19 -643 0 -634 1 -706 -71 -21 -21 -42 -54 -46 -72 -5 -17 -11 -393 -14
-835 -4 -590 -9 -805 -18 -810 -6 -4 -260 -5 -565 -2 l-553 5 -3 1246 -2 1246
142 114 c79 62 145 116 148 119 3 3 37 30 75 60 39 30 75 60 80 66 6 6 38 33
73 60 97 75 275 217 337 269 45 38 122 99 205 165 32 25 76 61 100 80 296 243
728 580 743 580 15 0 190 -130 217 -161 3 -3 55 -43 115 -89 61 -47 148 -116
195 -155 122 -102 127 -105 189 -105 48 0 57 3 87 35 18 20 36 51 40 69 14 75
-37 129 -353 372 -29 23 -70 55 -90 72 -147 119 -313 248 -338 264 -54 32
-107 23 -171 -31 -17 -14 -40 -33 -50 -41 -11 -8 -62 -49 -114 -91 -52 -41
-122 -96 -155 -122 -128 -100 -268 -213 -675 -542 -384 -311 -441 -356 -545
-437 -44 -34 -82 -65 -85 -68 -6 -7 -123 -101 -210 -170 -79 -62 -143 -114
-220 -180 -73 -63 -179 -146 -218 -172 -26 -17 -27 -17 -55 10 -16 15 -56 64
-90 110 -34 45 -65 82 -69 82 -4 0 -8 10 -8 23 0 16 19 37 68 75 129 100 197
153 202 160 3 4 50 43 105 87 55 44 106 86 113 92 7 7 41 34 75 60 34 26 67
52 72 59 6 6 38 33 73 60 90 70 183 144 323 259 194 159 208 171 433 350 130
103 211 169 216 175 3 3 41 34 85 68 91 70 146 114 207 165 24 20 75 61 113
92 39 32 88 72 110 90 22 19 90 73 150 120 61 48 119 94 130 103 92 76 116 94
127 89 7 -2 60 -42 118 -88 58 -46 134 -106 170 -134 36 -27 94 -74 130 -103
97 -81 100 -83 167 -135 34 -26 68 -53 75 -60 7 -7 49 -41 93 -75 44 -34 114
-89 155 -122 41 -33 111 -88 155 -122 44 -34 82 -64 85 -68 3 -3 36 -30 74
-60 68 -53 71 -55 134 -55 59 0 66 2 93 33 24 27 29 41 29 83 0 73 -24 105
-153 206 -62 49 -121 96 -132 105 -11 9 -49 40 -85 67 -64 50 -140 110 -370
291 -114 90 -200 158 -337 267 -39 32 -100 80 -135 107 -35 27 -80 64 -100 82
-74 65 -113 84 -175 84 -48 -1 -66 -6 -103 -32z m598 -4297 c1 -446 -2 -757
-7 -760 -5 -3 -225 -5 -489 -3 l-480 2 -6 23 c-3 12 -6 348 -6 748 0 554 3
728 12 737 9 9 127 12 493 10 l480 -3 3 -754z"/>
<path d="M6079 6186 c-3 -3 -38 -10 -79 -15 -94 -13 -199 -43 -280 -79 -30
-14 -248 -143 -328 -194 -15 -10 -34 -21 -42 -25 -27 -12 -94 -65 -128 -102
-39 -42 -50 -65 -63 -141 -9 -48 -18 -63 -72 -118 l-62 -62 -125 1 c-144 2
-126 9 -282 -108 -53 -40 -101 -73 -107 -73 -5 0 -32 -22 -60 -49 l-51 -50 0
-76 c0 -81 8 -104 61 -175 15 -19 53 -73 86 -120 32 -47 67 -94 76 -105 9 -11
57 -76 106 -145 118 -163 156 -202 214 -217 37 -10 54 -10 96 3 27 8 53 19 56
24 6 10 80 61 105 73 8 4 29 16 45 27 17 11 42 26 58 35 51 29 80 90 116 245
5 19 16 51 24 71 15 35 19 36 78 43 108 11 127 9 135 -16 12 -41 44 -72 95
-94 42 -17 59 -33 100 -93 27 -40 49 -74 49 -77 0 -2 19 -32 43 -67 24 -34 46
-69 50 -77 4 -8 15 -27 25 -42 9 -15 37 -59 62 -98 25 -39 53 -83 62 -98 10
-15 22 -36 28 -47 5 -11 32 -54 59 -95 28 -41 69 -106 93 -143 24 -38 50 -79
58 -92 41 -64 106 -168 115 -183 6 -9 28 -44 50 -77 22 -33 44 -68 50 -77 11
-19 91 -146 117 -186 10 -15 21 -34 25 -42 4 -8 26 -43 50 -77 24 -35 43 -65
43 -67 0 -3 19 -33 43 -68 23 -35 47 -73 54 -84 14 -22 91 -144 113 -179 20
-32 158 -255 173 -280 97 -163 240 -235 399 -201 121 26 287 127 350 215 63
89 70 109 71 211 1 92 0 97 -37 165 -21 39 -82 130 -137 202 -54 73 -99 135
-99 138 0 3 -34 51 -75 105 -41 54 -75 102 -75 105 0 3 -26 41 -58 83 -33 42
-81 109 -107 147 -89 129 -146 209 -210 300 -67 94 -129 182 -210 300 -26 39
-68 99 -93 135 -44 63 -177 260 -197 293 -5 8 -34 51 -64 94 -47 67 -118 171
-232 338 -61 90 -58 188 9 252 89 86 307 126 462 85 83 -22 149 -61 226 -132
90 -84 169 -92 235 -24 29 30 32 39 32 93 0 58 -1 60 -64 133 -35 40 -82 95
-104 122 -113 136 -110 134 -190 204 -106 95 -235 174 -377 233 -29 12 -67 28
-85 35 -17 8 -36 14 -43 14 -7 0 -33 6 -59 14 -71 23 -181 36 -295 36 -56 0
-105 -2 -107 -4z m319 -276 c133 -30 214 -63 305 -124 48 -32 35 -42 -70 -56
-152 -18 -239 -50 -335 -123 -95 -72 -148 -154 -171 -266 -9 -40 -20 -78 -24
-82 -5 -5 -63 -45 -129 -89 l-119 -79 -25 28 c-14 15 -50 58 -80 96 -30 37
-62 75 -70 83 -8 8 -33 39 -55 67 -69 91 -154 193 -165 200 -5 3 -10 16 -10
29 0 33 152 142 310 224 94 48 134 64 230 91 94 27 291 28 408 1z m-1027 -625
c29 -38 60 -78 69 -87 8 -9 23 -30 33 -47 17 -29 17 -30 0 -39 -10 -5 -44 -13
-75 -16 -49 -6 -65 -14 -106 -51 -38 -34 -52 -56 -66 -102 -10 -32 -24 -79
-32 -104 -8 -26 -14 -53 -14 -60 0 -42 -36 -98 -80 -123 -25 -15 -53 -32 -62
-39 -26 -17 -44 -2 -101 79 -88 129 -158 229 -212 305 l-53 76 51 38 c119 89
113 87 199 79 126 -11 215 26 317 130 32 32 48 43 62 38 9 -4 41 -38 70 -77z
m916 -401 c43 -63 83 -123 88 -132 6 -10 21 -33 35 -52 14 -19 30 -42 35 -52
6 -9 46 -70 91 -135 137 -200 236 -346 268 -393 17 -25 56 -81 88 -125 201
-279 318 -443 333 -467 28 -46 94 -139 132 -190 24 -31 43 -59 43 -63 0 -3 5
-11 10 -18 21 -24 152 -203 196 -267 152 -220 154 -223 154 -259 0 -28 -10
-47 -41 -83 -22 -27 -45 -48 -51 -48 -7 0 -20 -8 -31 -17 -14 -13 -36 -18 -84
-18 -74 0 -80 5 -154 125 -22 36 -62 99 -90 140 -27 41 -54 84 -59 95 -6 11
-19 34 -30 50 -10 17 -25 40 -32 52 -15 25 -155 251 -178 287 -8 13 -42 67
-75 121 -33 53 -68 109 -77 123 -10 15 -22 36 -28 47 -17 32 -31 54 -101 160
-57 86 -90 139 -134 213 -6 9 -28 44 -51 77 -22 34 -43 67 -48 75 -10 21 -26
47 -71 115 -22 33 -44 68 -50 77 -14 23 -157 254 -175 283 -8 13 -35 56 -60
95 -25 39 -49 79 -55 88 -5 10 -20 32 -32 49 -13 17 -23 38 -23 46 0 17 58 59
117 86 11 5 24 15 28 20 15 26 39 4 112 -105z"/>
</g>
</svg>
