<?xml version="1.0" standalone="no"?>
<!DOCTYPE svg PUBLIC "-//W3C//DTD SVG 20010904//EN"
 "http://www.w3.org/TR/2001/REC-SVG-20010904/DTD/svg10.dtd">
<svg version="1.0" xmlns="http://www.w3.org/2000/svg"
 width="900.000000pt" height="900.000000pt" viewBox="0 0 900.000000 900.000000"
 preserveAspectRatio="xMidYMid meet">
<metadata>
Created by potrace 1.10, written by Peter Selinger 2001-2011
</metadata>
<g transform="translate(0.000000,900.000000) scale(0.100000,-0.100000)"
fill="#00000090" stroke="none">
<path d="M4428 7765 c-36 -13 -57 -26 -238 -149 -47 -32 -94 -62 -105 -67 -11
-5 -33 -18 -50 -28 -52 -34 -220 -124 -325 -176 -162 -80 -316 -146 -430 -185
-14 -5 -50 -18 -80 -30 -30 -12 -68 -25 -85 -30 -16 -5 -46 -14 -65 -21 -19
-6 -51 -17 -70 -24 -37 -13 -96 -31 -195 -60 -33 -10 -78 -24 -100 -31 -23 -8
-51 -14 -63 -14 -13 0 -32 -5 -43 -11 -11 -6 -41 -14 -67 -18 -26 -5 -67 -13
-92 -19 -130 -32 -396 -72 -472 -72 -60 0 -136 -21 -175 -49 -13 -9 -35 -37
-48 -63 l-25 -47 1 -668 c0 -1064 18 -1355 100 -1678 6 -22 14 -58 19 -80 5
-22 16 -65 25 -95 10 -30 23 -75 30 -100 57 -193 186 -498 288 -682 18 -31 45
-81 61 -110 16 -29 45 -78 65 -108 19 -30 40 -63 46 -72 52 -86 234 -330 300
-403 213 -236 491 -510 629 -619 28 -22 60 -48 71 -58 51 -44 301 -231 360
-268 13 -8 61 -40 107 -71 99 -67 197 -131 218 -142 8 -4 29 -16 45 -27 17
-11 39 -24 50 -30 11 -6 34 -19 50 -29 17 -11 50 -31 75 -44 25 -14 61 -34 80
-46 19 -11 42 -23 50 -27 8 -3 27 -12 42 -20 14 -8 51 -14 82 -14 47 0 69 7
124 37 101 55 114 62 147 83 17 11 39 24 50 30 11 6 34 19 50 30 17 11 37 23
45 27 8 4 103 66 210 138 290 195 295 198 300 205 3 3 18 14 33 23 36 23 327
257 387 311 201 182 559 565 651 696 13 19 27 37 30 40 3 3 39 55 80 115 115
168 213 335 285 485 34 72 43 91 77 170 8 19 22 51 30 70 14 33 22 53 59 155
26 71 40 109 48 140 5 17 13 44 18 60 10 28 19 60 53 185 7 25 16 65 20 90 4
25 12 70 18 100 13 68 36 223 52 350 8 65 14 370 16 953 5 955 6 931 -61 995
-38 36 -110 62 -174 62 -51 0 -216 23 -327 46 -38 8 -81 14 -94 14 -13 0 -47
6 -75 14 -66 18 -140 37 -191 47 -22 4 -71 17 -110 29 -38 12 -86 25 -105 30
-19 4 -48 13 -65 19 -16 6 -77 27 -135 46 -58 18 -130 43 -160 55 -30 12 -66
25 -80 30 -14 4 -36 12 -50 18 -14 5 -45 18 -70 27 -126 49 -299 130 -475 225
-49 27 -112 60 -140 75 -27 14 -63 35 -80 45 -16 11 -37 23 -45 27 -8 4 -44
27 -80 52 -36 24 -92 63 -125 86 -56 38 -124 66 -156 64 -8 0 -31 -7 -51 -14z
m129 -352 c32 -21 66 -42 75 -48 9 -5 49 -30 88 -55 84 -53 85 -54 175 -105
38 -22 79 -45 90 -52 11 -6 74 -38 140 -71 108 -54 145 -71 253 -117 18 -8 47
-21 65 -28 35 -16 102 -42 157 -62 60 -22 124 -46 158 -61 18 -8 39 -14 47
-14 8 0 29 -6 47 -14 18 -7 60 -21 93 -31 33 -10 80 -23 105 -30 277 -81 608
-148 845 -172 l80 -8 8 -370 c11 -535 2 -1326 -18 -1457 -18 -118 -41 -243
-57 -308 -6 -25 -14 -63 -19 -85 -5 -22 -18 -71 -29 -110 -12 -38 -25 -83 -30
-100 -4 -16 -18 -55 -30 -85 -12 -30 -24 -64 -27 -75 -3 -11 -12 -36 -20 -55
-9 -19 -22 -51 -30 -70 -34 -80 -44 -101 -108 -230 -36 -74 -75 -148 -86 -165
-10 -16 -23 -39 -29 -50 -5 -11 -16 -29 -22 -40 -13 -19 -52 -82 -73 -117
-225 -372 -792 -928 -1288 -1264 -117 -78 -202 -134 -222 -144 -11 -6 -32 -18
-47 -28 -37 -24 -268 -163 -293 -176 -11 -6 -28 -17 -38 -25 -23 -19 -33 -13
-315 157 -78 48 -150 92 -160 97 -9 6 -50 33 -90 60 -41 28 -81 55 -90 60 -55
34 -394 293 -482 368 -135 116 -421 402 -536 537 -95 110 -214 264 -214 275 0
4 -12 24 -27 44 -16 20 -33 45 -40 56 -33 54 -109 182 -118 197 -16 27 -146
289 -163 328 -8 19 -19 44 -25 54 -5 11 -13 31 -17 45 -5 14 -18 51 -30 81
-11 30 -30 84 -41 120 -12 36 -27 80 -35 98 -8 18 -14 40 -14 50 0 9 -6 34
-14 57 -26 76 -67 280 -92 460 -14 101 -17 252 -21 957 l-5 838 27 10 c15 6
62 13 104 16 172 11 608 103 796 166 17 5 46 13 65 18 19 4 46 12 60 17 38 16
92 34 125 43 17 5 55 18 85 30 30 12 70 25 89 30 18 5 38 13 44 19 6 6 20 11
30 11 10 0 31 6 45 14 15 8 47 22 72 31 25 10 63 26 85 36 130 57 162 71 175
79 8 5 65 34 125 65 168 85 193 100 480 278 11 6 33 22 50 34 16 13 36 23 42
23 7 0 39 -17 70 -37z"/>
<path d="M4295 6483 c-133 -32 -252 -78 -330 -126 -132 -82 -288 -254 -353
-392 -71 -150 -81 -203 -92 -496 -6 -145 -12 -270 -15 -276 -3 -9 -26 -13 -65
-13 -116 0 -233 -62 -293 -154 -64 -98 -61 -58 -65 -911 -3 -724 -2 -784 15
-840 48 -164 168 -279 344 -329 49 -14 169 -16 1054 -16 893 0 1004 2 1054 16
162 47 292 171 335 319 16 55 17 123 14 850 -3 718 -5 794 -21 833 -60 148
-158 218 -327 231 l-85 6 -11 290 c-8 204 -16 306 -27 343 -38 126 -136 283
-243 390 -144 142 -294 221 -526 276 -83 20 -280 20 -363 -1z m370 -302 c89
-24 136 -45 199 -86 153 -98 250 -233 297 -411 17 -65 19 -103 17 -287 l-3
-212 -685 0 -685 0 -3 235 c-2 242 0 266 43 365 7 17 16 37 19 45 27 63 115
171 183 225 68 54 163 100 253 125 92 25 272 26 365 1z m906 -1288 c16 -10 34
-31 39 -49 7 -21 9 -273 5 -775 -7 -833 -3 -788 -80 -841 l-40 -27 -1000 -1
c-914 0 -1003 1 -1025 17 -42 28 -82 67 -90 90 -11 26 -15 1531 -5 1556 19 47
-9 46 1113 47 977 0 1056 -1 1083 -17z"/>
<path d="M4430 4550 c-25 -4 -63 -15 -84 -24 -43 -19 -156 -128 -156 -150 0
-8 -7 -27 -15 -42 -25 -49 -20 -180 9 -245 26 -56 78 -118 134 -157 l32 -23 0
-124 c0 -132 8 -165 48 -202 46 -42 151 -42 189 0 42 46 47 67 45 192 -1 66 2
125 6 130 4 6 31 26 60 45 206 136 181 459 -44 572 -56 28 -152 40 -224 28z
m113 -279 c5 -5 11 -27 14 -49 5 -34 1 -44 -20 -66 -14 -14 -34 -26 -44 -26
-31 1 -63 34 -69 72 -5 31 -2 41 20 63 22 22 33 26 59 21 17 -4 35 -10 40 -15z"/>
</g>
</svg>
