<?xml version="1.0" standalone="no"?>
<!DOCTYPE svg PUBLIC "-//W3C//DTD SVG 20010904//EN"
 "http://www.w3.org/TR/2001/REC-SVG-20010904/DTD/svg10.dtd">
<svg version="1.0" xmlns="http://www.w3.org/2000/svg"
 width="900.000000pt" height="900.000000pt" viewBox="0 0 900.000000 900.000000"
 preserveAspectRatio="xMidYMid meet">
<metadata>
Created by potrace 1.10, written by Peter Selinger 2001-2011
</metadata>
<g transform="translate(0.000000,900.000000) scale(0.100000,-0.100000)"
fill="#00000090" stroke="none">
<path d="M5805 8091 c-11 -5 -29 -19 -40 -31 -18 -20 -20 -39 -23 -181 -4
-177 6 -217 59 -244 65 -34 133 -9 168 60 18 35 21 60 21 156 0 183 -26 239
-116 245 -27 2 -58 0 -69 -5z"/>
<path d="M5062 7802 c-35 -27 -62 -74 -62 -108 0 -41 36 -89 153 -201 95 -92
97 -93 146 -93 44 0 54 4 86 37 29 30 35 43 35 80 0 60 -31 103 -152 213 -93
83 -104 90 -142 90 -23 0 -51 -8 -64 -18z"/>
<path d="M6524 7791 c-65 -48 -202 -194 -218 -231 -18 -45 -11 -79 26 -124 27
-33 34 -36 79 -36 30 0 61 7 77 17 35 23 183 170 206 206 25 37 25 121 0 148
-50 55 -113 63 -170 20z"/>
<path d="M5705 7503 c-47 -15 -100 -38 -154 -68 -139 -77 -241 -261 -256 -465
-9 -116 -6 -119 113 -121 120 -2 132 7 132 97 0 60 10 96 48 169 17 33 85 105
99 105 5 0 14 5 20 11 19 19 114 49 154 49 54 0 138 -30 186 -65 83 -63 122
-129 129 -222 12 -140 26 -153 157 -144 98 7 111 20 104 101 -13 153 -70 298
-151 388 -42 46 -141 122 -160 122 -8 0 -17 4 -20 9 -3 5 -37 18 -75 30 -85
26 -249 28 -326 4z"/>
<path d="M4758 7051 c-30 -27 -33 -35 -32 -85 0 -46 4 -59 28 -83 l28 -28 170
0 170 0 29 33 c22 25 29 42 29 73 0 49 -31 104 -63 113 -12 3 -91 6 -174 6
l-153 0 -32 -29z"/>
<path d="M6611 7073 c-23 -9 -46 -37 -60 -71 -12 -27 -12 -40 -1 -72 24 -73
30 -75 231 -75 l179 0 25 30 c34 42 34 118 0 160 l-25 30 -167 2 c-93 1 -174
-1 -182 -4z"/>
<path d="M2408 6660 c-33 -25 -45 -61 -92 -262 -22 -92 -45 -192 -61 -258 -7
-30 -20 -91 -30 -135 -17 -79 -31 -142 -55 -240 -7 -27 -16 -68 -20 -90 -4
-22 -13 -62 -20 -90 -6 -27 -18 -75 -25 -105 -7 -30 -19 -77 -25 -105 -7 -27
-16 -68 -20 -90 -9 -47 -26 -120 -46 -191 -8 -28 -14 -60 -14 -71 0 -11 -6
-39 -14 -64 -7 -24 -21 -78 -30 -119 -10 -41 -23 -102 -31 -135 -7 -33 -21
-94 -31 -135 -9 -41 -23 -95 -30 -119 -25 -79 -14 -131 36 -176 22 -20 40 -20
979 -25 l956 -5 -2 -25 c-3 -26 -26 -109 -48 -170 -7 -19 -23 -66 -34 -104
-36 -114 -13 -103 -238 -107 -216 -4 -230 -8 -267 -71 -28 -47 -21 -92 22
-138 l39 -40 1173 0 1173 0 31 24 c17 13 37 40 44 60 12 31 11 42 -3 79 -30
77 -44 82 -256 85 l-186 4 -20 51 c-28 75 -44 118 -53 152 -5 17 -21 63 -35
103 -15 39 -25 79 -21 87 5 13 120 15 947 15 853 0 943 2 969 16 59 35 72 94
46 202 -34 138 -39 159 -46 197 -4 22 -13 63 -20 90 -28 115 -39 164 -56 240
-9 44 -21 94 -26 110 -5 17 -13 50 -17 75 -5 25 -14 68 -21 95 -6 28 -18 75
-25 105 -7 30 -19 78 -25 105 -7 28 -16 68 -20 90 -4 22 -13 63 -20 90 -29
119 -39 165 -55 240 -9 44 -23 103 -31 131 -8 28 -14 63 -14 78 0 15 -7 43
-15 63 -8 19 -15 47 -15 61 0 14 -6 48 -14 76 -24 85 -38 148 -46 201 -12 74
-35 121 -73 144 l-34 21 -2055 0 c-2028 0 -2056 0 -2080 -20z m2981 -252 c15
-37 30 -127 35 -208 3 -41 8 -96 12 -122 l7 -48 -392 -2 c-216 -2 -401 0 -412
4 -18 7 -19 17 -17 195 l3 188 255 5 c550 12 499 13 509 -12z m1022 -5 c6 -16
15 -48 21 -73 5 -25 16 -67 23 -95 46 -176 50 -201 33 -206 -7 -2 -188 -2
-403 1 l-390 5 -3 50 c-1 28 -9 93 -17 146 -8 53 -15 119 -15 148 l0 51 370 0
370 0 11 -27z m-3091 -30 c0 -27 -7 -88 -15 -138 -8 -49 -15 -113 -15 -142 0
-28 -4 -54 -9 -58 -13 -8 -769 -7 -782 1 -6 3 -7 13 -4 23 4 9 10 39 15 66 4
28 13 73 20 100 16 68 41 167 46 183 3 9 86 12 374 12 l370 0 0 -47z m1045
-148 l0 -190 -393 -5 c-216 -3 -403 -2 -414 3 -17 6 -19 13 -14 40 4 17 9 70
12 117 5 75 10 110 30 208 l4 22 388 -2 387 -3 0 -190z m-1112 -470 c0 -11 -6
-60 -12 -110 -7 -49 -16 -130 -22 -180 -5 -49 -12 -102 -15 -117 l-6 -28 -428
0 c-295 0 -431 3 -435 11 -4 6 1 43 10 82 27 114 41 176 60 262 10 44 19 86
21 93 3 10 91 12 416 10 406 -3 413 -3 411 -23z m1112 -205 l0 -225 -446 -3
c-352 -2 -448 0 -452 10 -6 17 9 200 22 273 6 32 11 82 11 110 0 28 3 55 7 58
3 4 198 6 432 5 l426 -3 0 -225z m1109 214 c3 -9 6 -40 6 -70 0 -30 6 -96 14
-147 13 -82 21 -179 17 -215 -1 -10 -93 -12 -443 -10 l-443 3 -3 215 c-1 118
0 220 2 227 4 10 94 13 425 13 373 0 420 -2 425 -16z m1094 -34 c8 -25 18 -63
22 -85 8 -41 22 -100 46 -195 8 -30 15 -71 17 -90 l2 -35 -437 -3 -437 -2 -10
52 c-6 29 -15 107 -20 173 -5 66 -14 142 -20 168 -6 27 -9 53 -6 58 4 6 167 8
418 7 l411 -3 14 -45z m-3404 -725 c0 -33 -6 -105 -12 -160 -7 -55 -19 -154
-27 -219 -8 -66 -19 -122 -24 -125 -5 -3 -224 -5 -486 -3 l-477 2 7 52 c4 29
14 70 21 92 8 21 14 49 14 61 0 13 6 45 14 71 21 74 38 144 47 198 4 26 15 59
24 72 l16 24 442 -2 442 -3 -1 -60z m1201 -220 l0 -280 -495 0 -495 0 3 75 c1
41 9 131 17 200 8 69 17 155 21 193 3 39 12 73 21 82 13 13 76 15 471 13 l457
-3 0 -280z m1174 271 c6 -7 16 -49 21 -92 5 -44 16 -135 24 -204 9 -69 17
-154 18 -190 l3 -65 -490 0 -490 0 -3 274 c-2 213 1 276 10 283 7 4 212 8 454
8 363 0 444 -2 453 -14z m1171 4 c11 -6 22 -26 25 -48 3 -20 12 -62 20 -92 13
-52 26 -105 55 -225 7 -27 17 -70 22 -95 5 -25 11 -57 15 -72 l5 -28 -482 -2
c-265 -2 -486 -1 -490 2 -8 5 -19 80 -51 345 -18 153 -21 194 -15 210 5 13 66
15 441 15 275 0 443 -4 455 -10z m-1823 -855 c8 -22 18 -53 23 -70 4 -16 18
-55 30 -85 12 -30 25 -69 29 -85 4 -17 13 -40 19 -52 7 -12 12 -33 12 -47 l0
-26 -506 0 -506 0 5 23 c5 20 23 84 47 162 5 17 16 53 24 80 8 28 20 66 27 85
7 19 13 41 15 48 3 10 84 12 385 10 l381 -3 15 -40z"/>
<path d="M3441 3321 c-29 -24 -34 -34 -34 -71 0 -48 12 -62 151 -169 44 -34
83 -69 86 -77 14 -37 6 -127 -15 -160 -46 -75 -146 -120 -223 -100 -13 3 -71
53 -127 111 -98 100 -104 105 -144 105 -32 0 -47 -6 -66 -26 -22 -24 -24 -33
-23 -134 1 -101 3 -112 33 -170 29 -58 75 -124 111 -160 30 -30 95 -77 115
-83 11 -3 54 -18 95 -33 87 -31 213 -38 268 -15 l33 14 130 -130 c128 -129
168 -156 204 -135 7 4 79 71 160 150 112 108 148 149 148 167 0 19 -34 58
-136 157 -74 73 -146 141 -161 151 -23 16 -25 21 -14 40 19 36 14 185 -10 253
-81 235 -225 344 -451 344 -90 -1 -98 -2 -130 -29z"/>
<path d="M5435 3333 c-16 -9 -46 -29 -66 -44 -20 -16 -40 -29 -44 -29 -3 0
-32 -19 -63 -43 -31 -24 -80 -59 -109 -77 -56 -37 -70 -58 -79 -123 -3 -23 -7
-53 -10 -66 -3 -15 -146 -164 -368 -385 -346 -344 -441 -444 -535 -564 l-42
-53 -27 20 c-15 11 -43 35 -61 55 -31 32 -41 36 -84 36 l-49 0 -344 -342
c-189 -188 -352 -358 -362 -377 -11 -20 -25 -60 -31 -88 -30 -124 49 -272 180
-343 37 -20 58 -24 139 -24 148 0 146 -1 548 402 314 315 328 335 282 417 -11
20 -20 39 -20 43 0 4 51 54 113 111 184 170 477 453 688 664 l197 197 84 0
c79 0 86 2 110 28 22 24 88 126 88 136 0 3 19 37 43 78 126 212 130 228 68
289 -45 45 -148 99 -188 99 -15 -1 -41 -8 -58 -17z m-1458 -1603 c44 -27 67
-64 54 -87 -5 -10 -121 -129 -258 -265 -272 -270 -286 -280 -339 -235 -20 18
-28 34 -28 58 0 31 21 55 246 277 232 230 276 271 288 272 3 0 19 -9 37 -20z"/>
<path d="M4745 2042 c-11 -9 -78 -76 -148 -149 -89 -93 -127 -139 -127 -156 0
-23 16 -44 108 -141 26 -28 95 -103 152 -166 57 -63 127 -139 154 -169 28 -29
56 -59 61 -65 68 -76 200 -209 235 -237 47 -38 125 -69 171 -69 53 0 140 42
190 92 64 63 89 122 89 206 0 102 -29 150 -168 279 -63 60 -120 113 -126 119
-6 5 -56 50 -111 99 -55 49 -112 100 -126 114 -26 25 -163 151 -245 224 -45
40 -78 46 -109 19z m647 -784 c48 -62 -12 -151 -88 -132 -26 7 -64 61 -64 90
0 22 28 59 50 67 29 12 84 -2 102 -25z"/>
</g>
</svg>
